<svg version="1.1" viewBox="0.0 0.0 662.3674540682415 480.1417322834646" fill="none" stroke="none" stroke-linecap="square" stroke-miterlimit="10" xmlns:xlink="http://www.w3.org/1999/xlink" xmlns="http://www.w3.org/2000/svg"><clipPath id="p.0"><path d="m0 0l662.36743 0l0 480.14172l-662.36743 0l0 -480.14172z" clip-rule="nonzero"/></clipPath><g clip-path="url(#p.0)"><path fill="#000000" fill-opacity="0.0" d="m0 0l662.36743 0l0 480.14172l-662.36743 0z" fill-rule="evenodd"/><g filter="url(#shadowFilter-p.1)"><use xlink:href="#p.1" transform="matrix(1.0 0.0 0.0 1.0 0.0 2.0)"/></g><defs><filter id="shadowFilter-p.1" filterUnits="userSpaceOnUse"><feGaussianBlur in="SourceAlpha" stdDeviation="2.0" result="blur"/><feComponentTransfer in="blur" color-interpolation-filters="sRGB"><feFuncR type="linear" slope="0" intercept="0.0"/><feFuncG type="linear" slope="0" intercept="0.0"/><feFuncB type="linear" slope="0" intercept="0.0"/><feFuncA type="linear" slope="0.5" intercept="0"/></feComponentTransfer></filter></defs><g id="p.1"><path fill="#434343" d="m126.806694 94.76247l0 0c0 -19.62133 16.068398 -35.527557 35.889763 -35.527557l0 0c9.518555 0 18.647263 3.7430687 25.3779 10.405777c6.7306366 6.662712 10.511871 15.699287 10.511871 25.12178l0 0c0 19.62133 -16.068405 35.527557 -35.88977 35.527557l0 0c-19.821365 0 -35.889763 -15.906227 -35.889763 -35.527557z" fill-rule="evenodd"/><path stroke="#9e9e9e" stroke-width="1.0" stroke-linejoin="round" stroke-linecap="butt" d="m126.806694 94.76247l0 0c0 -19.62133 16.068398 -35.527557 35.889763 -35.527557l0 0c9.518555 0 18.647263 3.7430687 25.3779 10.405777c6.7306366 6.662712 10.511871 15.699287 10.511871 25.12178l0 0c0 19.62133 -16.068405 35.527557 -35.88977 35.527557l0 0c-19.821365 0 -35.889763 -15.906227 -35.889763 -35.527557z" fill-rule="evenodd"/></g><g filter="url(#shadowFilter-p.2)"><use xlink:href="#p.2" transform="matrix(1.0 0.0 0.0 1.0 0.0 2.0)"/></g><defs><filter id="shadowFilter-p.2" filterUnits="userSpaceOnUse"><feGaussianBlur in="SourceAlpha" stdDeviation="2.0" result="blur"/><feComponentTransfer in="blur" color-interpolation-filters="sRGB"><feFuncR type="linear" slope="0" intercept="0.0"/><feFuncG type="linear" slope="0" intercept="0.0"/><feFuncB type="linear" slope="0" intercept="0.0"/><feFuncA type="linear" slope="0.5" intercept="0"/></feComponentTransfer></filter></defs><g id="p.2"><path fill="#f3f3f3" d="m126.806694 340.16666l0 0c0 -19.621307 16.068398 -35.527557 35.889763 -35.527557l0 0c9.518555 0 18.647263 3.7430725 25.3779 10.405792c6.7306366 6.6627197 10.511871 15.69928 10.511871 25.121765l0 0c0 19.621338 -16.068405 35.527557 -35.88977 35.527557l0 0c-19.821365 0 -35.889763 -15.9062195 -35.889763 -35.527557z" fill-rule="evenodd"/><path stroke="#9e9e9e" stroke-width="1.0" stroke-linejoin="round" stroke-linecap="butt" d="m126.806694 340.16666l0 0c0 -19.621307 16.068398 -35.527557 35.889763 -35.527557l0 0c9.518555 0 18.647263 3.7430725 25.3779 10.405792c6.7306366 6.6627197 10.511871 15.69928 10.511871 25.121765l0 0c0 19.621338 -16.068405 35.527557 -35.88977 35.527557l0 0c-19.821365 0 -35.889763 -15.9062195 -35.889763 -35.527557z" fill-rule="evenodd"/></g><path fill="#000000" fill-opacity="0.0" d="m150.46024 181.10236l24.472443 0l0 72.72441l-24.472443 0z" fill-rule="evenodd"/><path fill="#000000" d="m160.24149 199.04173q0 -0.75 0.53125 -1.28125q0.53125 -0.53125 1.28125 -0.53125q0.75 0 1.28125 0.53125q0.53125 0.53125 0.53125 1.28125q0 0.75 -0.53125 1.28125q-0.53125 0.53125 -1.28125 0.53125q-0.75 0 -1.28125 -0.53125q-0.53125 -0.53125 -0.53125 -1.28125z" fill-rule="nonzero"/><path fill="#000000" d="m160.24149 216.64174q0 -0.75 0.53125 -1.28125q0.53125 -0.53125 1.28125 -0.53125q0.75 0 1.28125 0.53125q0.53125 0.53125 0.53125 1.28125q0 0.75 -0.53125 1.28125q-0.53125 0.53125 -1.28125 0.53125q-0.75 0 -1.28125 -0.53125q-0.53125 -0.53125 -0.53125 -1.28125z" fill-rule="nonzero"/><path fill="#000000" d="m160.24149 234.24173q0 -0.75 0.53125 -1.28125q0.53125 -0.53125 1.28125 -0.53125q0.75 0 1.28125 0.53125q0.53125 0.53125 0.53125 1.28125q0 0.75 -0.53125 1.28125q-0.53125 0.53125 -1.28125 0.53125q-0.75 0 -1.28125 -0.53125q-0.53125 -0.53125 -0.53125 -1.28125z" fill-rule="nonzero"/><g filter="url(#shadowFilter-p.3)"><use xlink:href="#p.3" transform="matrix(1.0 0.0 0.0 1.0 0.0 2.0)"/></g><defs><filter id="shadowFilter-p.3" filterUnits="userSpaceOnUse"><feGaussianBlur in="SourceAlpha" stdDeviation="2.0" result="blur"/><feComponentTransfer in="blur" color-interpolation-filters="sRGB"><feFuncR type="linear" slope="0" intercept="0.0"/><feFuncG type="linear" slope="0" intercept="0.0"/><feFuncB type="linear" slope="0" intercept="0.0"/><feFuncA type="linear" slope="0.5" intercept="0"/></feComponentTransfer></filter></defs><g id="p.3"><path fill="#d9d9d9" d="m12.618767 46.7231l0 0c0 -19.62133 16.068394 -35.52756 35.889763 -35.52756l0 0c9.5185585 0 18.647263 3.7430706 25.3779 10.40578c6.7306366 6.66271 10.511864 15.699284 10.511864 25.12178l0 0c0 19.62133 -16.06839 35.527557 -35.889763 35.527557l0 0c-19.82137 0 -35.889763 -15.906227 -35.889763 -35.527557z" fill-rule="evenodd"/><path stroke="#9e9e9e" stroke-width="1.0" stroke-linejoin="round" stroke-linecap="butt" d="m12.618767 46.7231l0 0c0 -19.62133 16.068394 -35.52756 35.889763 -35.52756l0 0c9.5185585 0 18.647263 3.7430706 25.3779 10.40578c6.7306366 6.66271 10.511864 15.699284 10.511864 25.12178l0 0c0 19.62133 -16.06839 35.527557 -35.889763 35.527557l0 0c-19.82137 0 -35.889763 -15.906227 -35.889763 -35.527557z" fill-rule="evenodd"/><path fill="#37474f" d="m38.05251 50.865597q-0.71875 0.609375 -1.375 0.859375q-0.65625 0.25 -1.421875 0.25q-1.25 0 -1.921875 -0.609375q-0.671875 -0.609375 -0.671875 -1.5625q0 -0.5625 0.25 -1.015625q0.25 -0.46875 0.65625 -0.75q0.421875 -0.28125 0.9375 -0.421875q0.375 -0.09375 1.140625 -0.1875q1.5625 -0.1875 2.296875 -0.453125q0.015625 -0.265625 0.015625 -0.328125q0 -0.796875 -0.375 -1.109375q-0.484375 -0.4375 -1.453125 -0.4375q-0.921875 0 -1.359375 0.328125q-0.421875 0.3125 -0.625 1.109375l-1.265625 -0.171875q0.171875 -0.796875 0.5625 -1.296875q0.390625 -0.5 1.140625 -0.765625q0.75 -0.265625 1.71875 -0.265625q0.984375 0 1.59375 0.234375q0.609375 0.21875 0.890625 0.5625q0.28125 0.34375 0.40625 0.875q0.0625 0.328125 0.0625 1.1875l0 1.71875q0 1.796875 0.078125 2.28125q0.078125 0.46875 0.328125 0.90625l-1.34375 0q-0.203125 -0.40625 -0.265625 -0.9375zm-0.109375 -2.875q-0.703125 0.28125 -2.09375 0.484375q-0.796875 0.109375 -1.125 0.265625q-0.328125 0.140625 -0.515625 0.421875q-0.171875 0.265625 -0.171875 0.59375q0 0.515625 0.390625 0.859375q0.390625 0.34375 1.140625 0.34375q0.734375 0 1.3125 -0.3125q0.59375 -0.328125 0.859375 -0.890625q0.203125 -0.4375 0.203125 -1.296875l0 -0.46875z" fill-rule="nonzero"/><path fill="#37474f" d="m43.922367 57.303097l-0.859375 0l0 -5.46875q-0.3125 0.296875 -0.8125 0.59375q-0.5 0.296875 -0.90625 0.4375l0 -0.828125q0.71875 -0.34375 1.25 -0.8125q0.546875 -0.484375 0.765625 -0.9375l0.5625 0l0 7.015625z" fill-rule="nonzero"/><path fill="#37474f" d="m47.994083 48.365597q-0.703125 -0.90625 -1.203125 -2.109375q-0.484375 -1.203125 -0.484375 -2.484375q0 -1.140625 0.359375 -2.171875q0.4375 -1.203125 1.328125 -2.40625l0.625 0q-0.578125 0.984375 -0.765625 1.421875q-0.296875 0.65625 -0.46875 1.375q-0.203125 0.890625 -0.203125 1.78125q0 2.296875 1.4375 4.59375l-0.625 0zm1.3769684 -5.515625q0 -1.234375 0.25 -1.984375q0.265625 -0.765625 0.765625 -1.171875q0.5 -0.40625 1.265625 -0.40625q0.5625 0 0.984375 0.234375q0.421875 0.21875 0.703125 0.640625q0.28125 0.421875 0.4375 1.046875q0.15625 0.609375 0.15625 1.640625q0 1.234375 -0.265625 2.0q-0.25 0.75 -0.75 1.171875q-0.5 0.40625 -1.265625 0.40625q-1.015625 0 -1.59375 -0.734375q-0.6875 -0.875 -0.6875 -2.84375zm0.875 0q0 1.734375 0.40625 2.296875q0.40625 0.5625 1.0 0.5625q0.59375 0 0.984375 -0.5625q0.40625 -0.578125 0.40625 -2.296875q0 -1.71875 -0.40625 -2.28125q-0.390625 -0.578125 -1.0 -0.578125q-0.59375 0 -0.9375 0.5q-0.453125 0.640625 -0.453125 2.359375zm5.3529663 5.515625l-0.609375 0q1.421875 -2.296875 1.421875 -4.59375q0 -0.890625 -0.203125 -1.78125q-0.15625 -0.703125 -0.453125 -1.359375q-0.1875 -0.4375 -0.765625 -1.4375l0.609375 0q0.90625 1.203125 1.328125 2.40625q0.375 1.03125 0.375 2.171875q0 1.28125 -0.5 2.484375q-0.5 1.203125 -1.203125 2.109375z" fill-rule="nonzero"/></g><g filter="url(#shadowFilter-p.4)"><use xlink:href="#p.4" transform="matrix(1.0 0.0 0.0 1.0 0.0 2.0)"/></g><defs><filter id="shadowFilter-p.4" filterUnits="userSpaceOnUse"><feGaussianBlur in="SourceAlpha" stdDeviation="2.0" result="blur"/><feComponentTransfer in="blur" color-interpolation-filters="sRGB"><feFuncR type="linear" slope="0" intercept="0.0"/><feFuncG type="linear" slope="0" intercept="0.0"/><feFuncB type="linear" slope="0" intercept="0.0"/><feFuncA type="linear" slope="0.5" intercept="0"/></feComponentTransfer></filter></defs><g id="p.4"><path fill="#efefef" d="m12.618767 388.21075l0 0c0 -19.621307 16.068394 -35.527557 35.889763 -35.527557l0 0c9.5185585 0 18.647263 3.7430725 25.3779 10.405792c6.7306366 6.662689 10.511864 15.69928 10.511864 25.121765l0 0c0 19.621338 -16.06839 35.527557 -35.889763 35.527557l0 0c-19.82137 0 -35.889763 -15.9062195 -35.889763 -35.527557z" fill-rule="evenodd"/><path stroke="#9e9e9e" stroke-width="1.0" stroke-linejoin="round" stroke-linecap="butt" d="m12.618767 388.21075l0 0c0 -19.621307 16.068394 -35.527557 35.889763 -35.527557l0 0c9.5185585 0 18.647263 3.7430725 25.3779 10.405792c6.7306366 6.662689 10.511864 15.69928 10.511864 25.121765l0 0c0 19.621338 -16.06839 35.527557 -35.889763 35.527557l0 0c-19.82137 0 -35.889763 -15.9062195 -35.889763 -35.527557z" fill-rule="evenodd"/><path fill="#37474f" d="m38.05251 392.35327q-0.71875 0.609375 -1.375 0.859375q-0.65625 0.25 -1.421875 0.25q-1.25 0 -1.921875 -0.609375q-0.671875 -0.609375 -0.671875 -1.5625q0 -0.5625 0.25 -1.015625q0.25 -0.46875 0.65625 -0.75q0.421875 -0.28125 0.9375 -0.421875q0.375 -0.09375 1.140625 -0.1875q1.5625 -0.1875 2.296875 -0.453125q0.015625 -0.265625 0.015625 -0.328125q0 -0.796875 -0.375 -1.109375q-0.484375 -0.4375 -1.453125 -0.4375q-0.921875 0 -1.359375 0.328125q-0.421875 0.3125 -0.625 1.109375l-1.265625 -0.171875q0.171875 -0.796875 0.5625 -1.296875q0.390625 -0.5 1.140625 -0.765625q0.75 -0.265625 1.71875 -0.265625q0.984375 0 1.59375 0.234375q0.609375 0.21875 0.890625 0.5625q0.28125 0.34375 0.40625 0.875q0.0625 0.328125 0.0625 1.1875l0 1.71875q0 1.796875 0.078125 2.28125q0.078125 0.46875 0.328125 0.90625l-1.34375 0q-0.203125 -0.40625 -0.265625 -0.9375zm-0.109375 -2.875q-0.703125 0.28125 -2.09375 0.484375q-0.796875 0.109375 -1.125 0.265625q-0.328125 0.140625 -0.515625 0.421875q-0.171875 0.265625 -0.171875 0.59375q0 0.515625 0.390625 0.859375q0.390625 0.34375 1.140625 0.34375q0.734375 0 1.3125 -0.3125q0.59375 -0.328125 0.859375 -0.890625q0.203125 -0.4375 0.203125 -1.296875l0 -0.46875z" fill-rule="nonzero"/><path fill="#37474f" d="m40.922367 398.79077l0 -5.0625l0.78125 0l0 0.71875q0.546875 -0.828125 1.609375 -0.828125q0.453125 0 0.828125 0.171875q0.390625 0.15625 0.578125 0.421875q0.203125 0.265625 0.28125 0.625q0.046875 0.25 0.046875 0.84375l0 3.109375l-0.859375 0l0 -3.078125q0 -0.53125 -0.109375 -0.78125q-0.09375 -0.265625 -0.359375 -0.421875q-0.25 -0.15625 -0.59375 -0.15625q-0.546875 0 -0.953125 0.359375q-0.390625 0.34375 -0.390625 1.3125l0 2.765625l-0.859375 0z" fill-rule="nonzero"/><path fill="#37474f" d="m47.994083 389.85327q-0.703125 -0.90625 -1.203125 -2.109375q-0.484375 -1.203125 -0.484375 -2.484375q0 -1.140625 0.359375 -2.171875q0.4375 -1.203125 1.328125 -2.40625l0.625 0q-0.578125 0.984375 -0.765625 1.421875q-0.296875 0.65625 -0.46875 1.375q-0.203125 0.890625 -0.203125 1.78125q0 2.296875 1.4375 4.59375l-0.625 0zm1.3769684 -5.515625q0 -1.234375 0.25 -1.984375q0.265625 -0.765625 0.765625 -1.171875q0.5 -0.40625 1.265625 -0.40625q0.5625 0 0.984375 0.234375q0.421875 0.21875 0.703125 0.640625q0.28125 0.421875 0.4375 1.046875q0.15625 0.609375 0.15625 1.640625q0 1.234375 -0.265625 2.0q-0.25 0.75 -0.75 1.171875q-0.5 0.40625 -1.265625 0.40625q-1.015625 0 -1.59375 -0.734375q-0.6875 -0.875 -0.6875 -2.84375zm0.875 0q0 1.734375 0.40625 2.296875q0.40625 0.5625 1.0 0.5625q0.59375 0 0.984375 -0.5625q0.40625 -0.578125 0.40625 -2.296875q0 -1.71875 -0.40625 -2.28125q-0.390625 -0.578125 -1.0 -0.578125q-0.59375 0 -0.9375 0.5q-0.453125 0.640625 -0.453125 2.359375zm5.3529663 5.515625l-0.609375 0q1.421875 -2.296875 1.421875 -4.59375q0 -0.890625 -0.203125 -1.78125q-0.15625 -0.703125 -0.453125 -1.359375q-0.1875 -0.4375 -0.765625 -1.4375l0.609375 0q0.90625 1.203125 1.328125 2.40625q0.375 1.03125 0.375 2.171875q0 1.28125 -0.5 2.484375q-0.5 1.203125 -1.203125 2.109375z" fill-rule="nonzero"/></g><path fill="#000000" fill-opacity="0.0" d="m36.27231 181.10472l24.472443 0l0 72.72441l-24.472443 0z" fill-rule="evenodd"/><path fill="#000000" d="m46.05356 199.0441q0 -0.75 0.53125 -1.28125q0.53125 -0.53125 1.28125 -0.53125q0.75 0 1.28125 0.53125q0.53125 0.53125 0.53125 1.28125q0 0.75 -0.53125 1.28125q-0.53125 0.53125 -1.28125 0.53125q-0.75 0 -1.28125 -0.53125q-0.53125 -0.53125 -0.53125 -1.28125z" fill-rule="nonzero"/><path fill="#000000" d="m46.05356 216.6441q0 -0.75 0.53125 -1.28125q0.53125 -0.53125 1.28125 -0.53125q0.75 0 1.28125 0.53125q0.53125 0.53125 0.53125 1.28125q0 0.75 -0.53125 1.28125q-0.53125 0.53125 -1.28125 0.53125q-0.75 0 -1.28125 -0.53125q-0.53125 -0.53125 -0.53125 -1.28125z" fill-rule="nonzero"/><path fill="#000000" d="m46.05356 234.2441q0 -0.75 0.53125 -1.28125q0.53125 -0.53125 1.28125 -0.53125q0.75 0 1.28125 0.53125q0.53125 0.53125 0.53125 1.28125q0 0.75 -0.53125 1.28125q-0.53125 0.53125 -1.28125 0.53125q-0.75 0 -1.28125 -0.53125q-0.53125 -0.53125 -0.53125 -1.28125z" fill-rule="nonzero"/><g filter="url(#shadowFilter-p.5)"><use xlink:href="#p.5" transform="matrix(1.0 0.0 0.0 1.0 0.0 2.0)"/></g><defs><filter id="shadowFilter-p.5" filterUnits="userSpaceOnUse"><feGaussianBlur in="SourceAlpha" stdDeviation="2.0" result="blur"/><feComponentTransfer in="blur" color-interpolation-filters="sRGB"><feFuncR type="linear" slope="0" intercept="0.0"/><feFuncG type="linear" slope="0" intercept="0.0"/><feFuncB type="linear" slope="0" intercept="0.0"/><feFuncA type="linear" slope="0.5" intercept="0"/></feComponentTransfer></filter></defs><g id="p.5"><path fill="#666666" d="m12.618767 131.67769l0 0c0 -19.62133 16.068394 -35.527557 35.889763 -35.527557l0 0c9.5185585 0 18.647263 3.7430725 25.3779 10.405785c6.7306366 6.6627045 10.511864 15.69928 10.511864 25.121773l0 0c0 19.621338 -16.06839 35.527557 -35.889763 35.527557l0 0c-19.82137 0 -35.889763 -15.9062195 -35.889763 -35.527557z" fill-rule="evenodd"/><path stroke="#9e9e9e" stroke-width="1.0" stroke-linejoin="round" stroke-linecap="butt" d="m12.618767 131.67769l0 0c0 -19.62133 16.068394 -35.527557 35.889763 -35.527557l0 0c9.5185585 0 18.647263 3.7430725 25.3779 10.405785c6.7306366 6.6627045 10.511864 15.69928 10.511864 25.121773l0 0c0 19.621338 -16.06839 35.527557 -35.889763 35.527557l0 0c-19.82137 0 -35.889763 -15.9062195 -35.889763 -35.527557z" fill-rule="evenodd"/></g><g filter="url(#shadowFilter-p.6)"><use xlink:href="#p.6" transform="matrix(1.0 0.0 0.0 1.0 0.0 2.0)"/></g><defs><filter id="shadowFilter-p.6" filterUnits="userSpaceOnUse"><feGaussianBlur in="SourceAlpha" stdDeviation="2.0" result="blur"/><feComponentTransfer in="blur" color-interpolation-filters="sRGB"><feFuncR type="linear" slope="0" intercept="0.0"/><feFuncG type="linear" slope="0" intercept="0.0"/><feFuncB type="linear" slope="0" intercept="0.0"/><feFuncA type="linear" slope="0.5" intercept="0"/></feComponentTransfer></filter></defs><g id="p.6"><path fill="#b7b7b7" d="m12.619422 301.7126l0 0c0 -18.768982 15.976737 -33.984253 35.68504 -33.984253l0 0c9.46426 0 18.54089 3.5804749 25.233135 9.953766c6.692238 6.373291 10.451904 15.017303 10.451904 24.030487l0 0c0 18.768982 -15.976738 33.984253 -35.68504 33.984253l0 0c-19.708303 0 -35.68504 -15.215271 -35.68504 -33.984253z" fill-rule="evenodd"/><path stroke="#9e9e9e" stroke-width="1.0" stroke-linejoin="round" stroke-linecap="butt" d="m12.619422 301.7126l0 0c0 -18.768982 15.976737 -33.984253 35.68504 -33.984253l0 0c9.46426 0 18.54089 3.5804749 25.233135 9.953766c6.692238 6.373291 10.451904 15.017303 10.451904 24.030487l0 0c0 18.768982 -15.976738 33.984253 -35.68504 33.984253l0 0c-19.708303 0 -35.68504 -15.215271 -35.68504 -33.984253z" fill-rule="evenodd"/></g><path fill="#000000" fill-opacity="0.0" d="m12.823491 438.6378l71.37008 0l0 37.165375l-71.37008 0z" fill-rule="evenodd"/><path fill="#000000" d="m33.569267 461.7178l0 -10.484375l1.390625 0l0 10.484375l-1.390625 0zm3.6813507 0l0 -7.59375l1.15625 0l0 1.078125q0.84375 -1.25 2.421875 -1.25q0.6875 0 1.265625 0.25q0.578125 0.234375 0.859375 0.640625q0.28125 0.40625 0.40625 0.953125q0.0625 0.359375 0.0625 1.25l0 4.671875l-1.28125 0l0 -4.625q0 -0.78125 -0.15625 -1.171875q-0.15625 -0.390625 -0.546875 -0.625q-0.375 -0.234375 -0.890625 -0.234375q-0.8125 0 -1.421875 0.53125q-0.59375 0.515625 -0.59375 1.96875l0 4.15625l-1.28125 0zm8.151108 2.90625l0 -10.5l1.171875 0l0 0.984375q0.421875 -0.578125 0.9375 -0.859375q0.515625 -0.296875 1.265625 -0.296875q0.96875 0 1.71875 0.5q0.75 0.5 1.125 1.421875q0.375 0.90625 0.375 1.984375q0 1.171875 -0.421875 2.109375q-0.40625 0.921875 -1.21875 1.421875q-0.796875 0.5 -1.671875 0.5q-0.640625 0 -1.15625 -0.265625q-0.515625 -0.28125 -0.84375 -0.6875l0 3.6875l-1.28125 0zm1.15625 -6.65625q0 1.453125 0.59375 2.15625q0.609375 0.703125 1.453125 0.703125q0.859375 0 1.46875 -0.71875q0.609375 -0.734375 0.609375 -2.25q0 -1.453125 -0.609375 -2.171875q-0.59375 -0.734375 -1.421875 -0.734375q-0.8125 0 -1.453125 0.78125q-0.640625 0.765625 -0.640625 2.234375zm11.979233 3.75l0 -1.109375q-0.890625 1.28125 -2.421875 1.28125q-0.671875 0 -1.25 -0.25q-0.578125 -0.265625 -0.875 -0.65625q-0.28125 -0.390625 -0.390625 -0.953125q-0.078125 -0.375 -0.078125 -1.203125l0 -4.703125l1.28125 0l0 4.203125q0 1.015625 0.078125 1.359375q0.125 0.515625 0.515625 0.8125q0.40625 0.28125 0.984375 0.28125q0.578125 0 1.078125 -0.296875q0.515625 -0.296875 0.71875 -0.8125q0.21875 -0.515625 0.21875 -1.484375l0 -4.0625l1.28125 0l0 7.59375l-1.140625 0zm5.979233 -1.15625l0.1875 1.140625q-0.546875 0.109375 -0.984375 0.109375q-0.6875 0 -1.078125 -0.21875q-0.390625 -0.21875 -0.546875 -0.578125q-0.15625 -0.359375 -0.15625 -1.515625l0 -4.375l-0.953125 0l0 -1.0l0.953125 0l0 -1.890625l1.28125 -0.765625l0 2.65625l1.296875 0l0 1.0l-1.296875 0l0 4.4375q0 0.546875 0.0625 0.71875q0.078125 0.15625 0.21875 0.25q0.15625 0.078125 0.453125 0.078125q0.203125 0 0.5625 -0.046875z" fill-rule="nonzero"/><g filter="url(#shadowFilter-p.7)"><use xlink:href="#p.7" transform="matrix(1.0 0.0 0.0 1.0 0.0 2.0)"/></g><defs><filter id="shadowFilter-p.7" filterUnits="userSpaceOnUse"><feGaussianBlur in="SourceAlpha" stdDeviation="2.0" result="blur"/><feComponentTransfer in="blur" color-interpolation-filters="sRGB"><feFuncR type="linear" slope="0" intercept="0.0"/><feFuncG type="linear" slope="0" intercept="0.0"/><feFuncB type="linear" slope="0" intercept="0.0"/><feFuncA type="linear" slope="0.5" intercept="0"/></feComponentTransfer></filter></defs><g id="p.7"><path fill="#999999" d="m468.96103 309.43307l0 0c0 -19.621338 16.06839 -35.527557 35.88977 -35.527557l0 0c9.518524 0 18.647247 3.7430725 25.3779 10.405762c6.730591 6.6627197 10.511841 15.69931 10.511841 25.121796l0 0c0 19.621338 -16.06836 35.527557 -35.88974 35.527557l0 0c-19.82138 0 -35.88977 -15.9062195 -35.88977 -35.527557z" fill-rule="evenodd"/><path stroke="#9e9e9e" stroke-width="1.0" stroke-linejoin="round" stroke-linecap="butt" d="m468.96103 309.43307l0 0c0 -19.621338 16.06839 -35.527557 35.88977 -35.527557l0 0c9.518524 0 18.647247 3.7430725 25.3779 10.405762c6.730591 6.6627197 10.511841 15.69931 10.511841 25.121796l0 0c0 19.621338 -16.06836 35.527557 -35.88974 35.527557l0 0c-19.82138 0 -35.88977 -15.9062195 -35.88977 -35.527557z" fill-rule="evenodd"/><path fill="#ffffff" d="m494.39478 313.57556q-0.71875 0.609375 -1.375 0.859375q-0.65625 0.25 -1.421875 0.25q-1.25 0 -1.921875 -0.609375q-0.671875 -0.609375 -0.671875 -1.5625q0 -0.5625 0.25 -1.015625q0.25 -0.46875 0.65625 -0.75q0.421875 -0.28125 0.9375 -0.421875q0.375 -0.09375 1.140625 -0.1875q1.5625 -0.1875 2.296875 -0.453125q0.015625 -0.265625 0.015625 -0.328125q0 -0.796875 -0.375 -1.109375q-0.484375 -0.4375 -1.453125 -0.4375q-0.921875 0 -1.359375 0.328125q-0.421875 0.3125 -0.625 1.109375l-1.265625 -0.171875q0.171875 -0.796875 0.5625 -1.296875q0.390625 -0.5 1.140625 -0.765625q0.75 -0.265625 1.71875 -0.265625q0.984375 0 1.59375 0.234375q0.609375 0.21875 0.890625 0.5625q0.28125 0.34375 0.40625 0.875q0.0625 0.328125 0.0625 1.1875l0 1.71875q0 1.796875 0.078125 2.28125q0.078125 0.46875 0.328125 0.90625l-1.34375 0q-0.203125 -0.40625 -0.265625 -0.9375zm-0.109375 -2.875q-0.703125 0.28125 -2.09375 0.484375q-0.796875 0.109375 -1.125 0.265625q-0.328125 0.140625 -0.515625 0.421875q-0.171875 0.265625 -0.171875 0.59375q0 0.515625 0.390625 0.859375q0.390625 0.34375 1.140625 0.34375q0.734375 0 1.3125 -0.3125q0.59375 -0.328125 0.859375 -0.890625q0.203125 -0.4375 0.203125 -1.296875l0 -0.46875z" fill-rule="nonzero"/><path fill="#ffffff" d="m497.26462 320.01306l0 -5.0625l0.78125 0l0 0.71875q0.546875 -0.828125 1.609375 -0.828125q0.453125 0 0.828125 0.171875q0.390625 0.15625 0.578125 0.421875q0.203125 0.265625 0.28125 0.625q0.046875 0.25 0.046875 0.84375l0 3.109375l-0.859375 0l0 -3.078125q0 -0.53125 -0.109375 -0.78125q-0.09375 -0.265625 -0.359375 -0.421875q-0.25 -0.15625 -0.59375 -0.15625q-0.546875 0 -0.953125 0.359375q-0.390625 0.34375 -0.390625 1.3125l0 2.765625l-0.859375 0z" fill-rule="nonzero"/><path fill="#ffffff" d="m504.33633 311.07556q-0.703125 -0.90625 -1.203125 -2.109375q-0.484375 -1.203125 -0.484375 -2.484375q0 -1.140625 0.359375 -2.171875q0.4375 -1.203125 1.328125 -2.40625l0.625 0q-0.578125 0.984375 -0.765625 1.421875q-0.296875 0.65625 -0.46875 1.375q-0.203125 0.890625 -0.203125 1.78125q0 2.296875 1.4375 4.59375l-0.625 0zm1.6269836 -2.0625l0 -6.984375l0.84375 0l0 3.984375l2.03125 -2.0625l1.125 0l-1.9375 1.875l2.125 3.1875l-1.0625 0l-1.671875 -2.59375l-0.609375 0.59375l0 2.0l-0.84375 0zm5.429596 2.0625l-0.609375 0q1.4219055 -2.296875 1.4219055 -4.59375q0 -0.890625 -0.203125 -1.78125q-0.15628052 -0.703125 -0.45315552 -1.359375q-0.1875 -0.4375 -0.765625 -1.4375l0.609375 0q0.9062805 1.203125 1.3281555 2.40625q0.375 1.03125 0.375 2.171875q0 1.28125 -0.5 2.484375q-0.5 1.203125 -1.2031555 2.109375z" fill-rule="nonzero"/></g><g filter="url(#shadowFilter-p.8)"><use xlink:href="#p.8" transform="matrix(1.0 0.0 0.0 1.0 0.0 2.0)"/></g><defs><filter id="shadowFilter-p.8" filterUnits="userSpaceOnUse"><feGaussianBlur in="SourceAlpha" stdDeviation="2.0" result="blur"/><feComponentTransfer in="blur" color-interpolation-filters="sRGB"><feFuncR type="linear" slope="0" intercept="0.0"/><feFuncG type="linear" slope="0" intercept="0.0"/><feFuncB type="linear" slope="0" intercept="0.0"/><feFuncA type="linear" slope="0.5" intercept="0"/></feComponentTransfer></filter></defs><g id="p.8"><path fill="#666666" d="m468.96103 125.49869l0 0c0 -19.62133 16.06839 -35.527557 35.88977 -35.527557l0 0c9.518524 0 18.647247 3.7430725 25.3779 10.405777c6.730591 6.662712 10.511841 15.699287 10.511841 25.12178l0 0c0 19.621323 -16.06836 35.527557 -35.88974 35.527557l0 0c-19.82138 0 -35.88977 -15.906235 -35.88977 -35.527557z" fill-rule="evenodd"/><path stroke="#9e9e9e" stroke-width="1.0" stroke-linejoin="round" stroke-linecap="butt" d="m468.96103 125.49869l0 0c0 -19.62133 16.06839 -35.527557 35.88977 -35.527557l0 0c9.518524 0 18.647247 3.7430725 25.3779 10.405777c6.730591 6.662712 10.511841 15.699287 10.511841 25.12178l0 0c0 19.621323 -16.06836 35.527557 -35.88974 35.527557l0 0c-19.82138 0 -35.88977 -15.906235 -35.88977 -35.527557z" fill-rule="evenodd"/><path fill="#ffffff" d="m494.39478 129.64119q-0.71875 0.609375 -1.375 0.859375q-0.65625 0.25 -1.421875 0.25q-1.25 0 -1.921875 -0.609375q-0.671875 -0.609375 -0.671875 -1.5625q0 -0.5625 0.25 -1.015625q0.25 -0.46875 0.65625 -0.75q0.421875 -0.28125 0.9375 -0.421875q0.375 -0.09375 1.140625 -0.1875q1.5625 -0.1875 2.296875 -0.453125q0.015625 -0.265625 0.015625 -0.328125q0 -0.796875 -0.375 -1.109375q-0.484375 -0.4375 -1.453125 -0.4375q-0.921875 0 -1.359375 0.328125q-0.421875 0.3125 -0.625 1.109375l-1.265625 -0.171875q0.171875 -0.796875 0.5625 -1.296875q0.390625 -0.5 1.140625 -0.765625q0.75 -0.265625 1.71875 -0.265625q0.984375 0 1.59375 0.234375q0.609375 0.21875 0.890625 0.5625q0.28125 0.34375 0.40625 0.875q0.0625 0.328125 0.0625 1.1875l0 1.71875q0 1.796875 0.078125 2.28125q0.078125 0.46875 0.328125 0.90625l-1.34375 0q-0.203125 -0.40625 -0.265625 -0.9375zm-0.109375 -2.875q-0.703125 0.28125 -2.09375 0.484375q-0.796875 0.109375 -1.125 0.265625q-0.328125 0.140625 -0.515625 0.421875q-0.171875 0.265625 -0.171875 0.59375q0 0.515625 0.390625 0.859375q0.390625 0.34375 1.140625 0.34375q0.734375 0 1.3125 -0.3125q0.59375 -0.328125 0.859375 -0.890625q0.203125 -0.4375 0.203125 -1.296875l0 -0.46875z" fill-rule="nonzero"/><path fill="#ffffff" d="m497.03024 132.62556q0 -1.234375 0.25 -1.984375q0.265625 -0.765625 0.765625 -1.171875q0.5 -0.40625 1.265625 -0.40625q0.5625 0 0.984375 0.234375q0.421875 0.21875 0.703125 0.640625q0.28125 0.421875 0.4375 1.046875q0.15625 0.609375 0.15625 1.640625q0 1.234375 -0.265625 2.0q-0.25 0.75 -0.75 1.171875q-0.5 0.40625 -1.265625 0.40625q-1.015625 0 -1.59375 -0.734375q-0.6875 -0.875 -0.6875 -2.84375zm0.875 0q0 1.734375 0.40625 2.296875q0.40625 0.5625 1.0 0.5625q0.59375 0 0.984375 -0.5625q0.40625 -0.578125 0.40625 -2.296875q0 -1.71875 -0.40625 -2.28125q-0.390625 -0.578125 -1.0 -0.578125q-0.59375 0 -0.9375 0.5q-0.453125 0.640625 -0.453125 2.359375z" fill-rule="nonzero"/><path fill="#ffffff" d="m504.33633 127.14119q-0.703125 -0.90625 -1.203125 -2.109375q-0.484375 -1.203125 -0.484375 -2.484375q0 -1.140625 0.359375 -2.171875q0.4375 -1.203125 1.328125 -2.40625l0.625 0q-0.578125 0.984375 -0.765625 1.421875q-0.296875 0.65625 -0.46875 1.375q-0.203125 0.890625 -0.203125 1.78125q0 2.296875 1.4375 4.59375l-0.625 0zm1.6269836 -2.0625l0 -6.984375l0.84375 0l0 3.984375l2.03125 -2.0625l1.125 0l-1.9375 1.875l2.125 3.1875l-1.0625 0l-1.671875 -2.59375l-0.609375 0.59375l0 2.0l-0.84375 0zm5.429596 2.0625l-0.609375 0q1.4219055 -2.296875 1.4219055 -4.59375q0 -0.890625 -0.203125 -1.78125q-0.15628052 -0.703125 -0.45315552 -1.359375q-0.1875 -0.4375 -0.765625 -1.4375l0.609375 0q0.9062805 1.203125 1.3281555 2.40625q0.375 1.03125 0.375 2.171875q0 1.28125 -0.5 2.484375q-0.5 1.203125 -1.2031555 2.109375z" fill-rule="nonzero"/></g><g filter="url(#shadowFilter-p.9)"><use xlink:href="#p.9" transform="matrix(1.0 0.0 0.0 1.0 0.0 2.0)"/></g><defs><filter id="shadowFilter-p.9" filterUnits="userSpaceOnUse"><feGaussianBlur in="SourceAlpha" stdDeviation="2.0" result="blur"/><feComponentTransfer in="blur" color-interpolation-filters="sRGB"><feFuncR type="linear" slope="0" intercept="0.0"/><feFuncG type="linear" slope="0" intercept="0.0"/><feFuncB type="linear" slope="0" intercept="0.0"/><feFuncA type="linear" slope="0.5" intercept="0"/></feComponentTransfer></filter></defs><g id="p.9"><path fill="#efefef" d="m468.96103 217.46588l0 0c0 -19.621338 16.06839 -35.527557 35.88977 -35.527557l0 0c9.518524 0 18.647247 3.7430725 25.3779 10.405777c6.730591 6.6627045 10.511841 15.69928 10.511841 25.12178l0 0c0 19.621323 -16.06836 35.527557 -35.88974 35.527557l0 0c-19.82138 0 -35.88977 -15.906235 -35.88977 -35.527557z" fill-rule="evenodd"/><path stroke="#9e9e9e" stroke-width="1.0" stroke-linejoin="round" stroke-linecap="butt" d="m468.96103 217.46588l0 0c0 -19.621338 16.06839 -35.527557 35.88977 -35.527557l0 0c9.518524 0 18.647247 3.7430725 25.3779 10.405777c6.730591 6.6627045 10.511841 15.69928 10.511841 25.12178l0 0c0 19.621323 -16.06836 35.527557 -35.88974 35.527557l0 0c-19.82138 0 -35.88977 -15.906235 -35.88977 -35.527557z" fill-rule="evenodd"/></g><g filter="url(#shadowFilter-p.10)"><use xlink:href="#p.10" transform="matrix(1.0 0.0 0.0 1.0 0.0 2.0)"/></g><defs><filter id="shadowFilter-p.10" filterUnits="userSpaceOnUse"><feGaussianBlur in="SourceAlpha" stdDeviation="2.0" result="blur"/><feComponentTransfer in="blur" color-interpolation-filters="sRGB"><feFuncR type="linear" slope="0" intercept="0.0"/><feFuncG type="linear" slope="0" intercept="0.0"/><feFuncB type="linear" slope="0" intercept="0.0"/><feFuncA type="linear" slope="0.5" intercept="0"/></feComponentTransfer></filter></defs><g id="p.10"><path fill="#efefef" d="m354.7731 94.76378l0 0c0 -19.62133 16.06839 -35.527557 35.88977 -35.527557l0 0c9.518555 0 18.647247 3.7430687 25.3779 10.405777c6.7306213 6.662712 10.511841 15.699287 10.511841 25.12178l0 0c0 19.62133 -16.06839 35.527557 -35.88974 35.527557l0 0c-19.82138 0 -35.88977 -15.906227 -35.88977 -35.527557z" fill-rule="evenodd"/><path stroke="#9e9e9e" stroke-width="1.0" stroke-linejoin="round" stroke-linecap="butt" d="m354.7731 94.76378l0 0c0 -19.62133 16.06839 -35.527557 35.88977 -35.527557l0 0c9.518555 0 18.647247 3.7430687 25.3779 10.405777c6.7306213 6.662712 10.511841 15.699287 10.511841 25.12178l0 0c0 19.62133 -16.06839 35.527557 -35.88974 35.527557l0 0c-19.82138 0 -35.88977 -15.906227 -35.88977 -35.527557z" fill-rule="evenodd"/></g><g filter="url(#shadowFilter-p.11)"><use xlink:href="#p.11" transform="matrix(1.0 0.0 0.0 1.0 0.0 2.0)"/></g><defs><filter id="shadowFilter-p.11" filterUnits="userSpaceOnUse"><feGaussianBlur in="SourceAlpha" stdDeviation="2.0" result="blur"/><feComponentTransfer in="blur" color-interpolation-filters="sRGB"><feFuncR type="linear" slope="0" intercept="0.0"/><feFuncG type="linear" slope="0" intercept="0.0"/><feFuncB type="linear" slope="0" intercept="0.0"/><feFuncA type="linear" slope="0.5" intercept="0"/></feComponentTransfer></filter></defs><g id="p.11"><path fill="#999999" d="m354.7731 340.16797l0 0c0 -19.621307 16.06839 -35.527557 35.88977 -35.527557l0 0c9.518555 0 18.647247 3.7430725 25.3779 10.405792c6.7306213 6.6627197 10.511841 15.69928 10.511841 25.121765l0 0c0 19.621338 -16.06839 35.527557 -35.88974 35.527557l0 0c-19.82138 0 -35.88977 -15.9062195 -35.88977 -35.527557z" fill-rule="evenodd"/><path stroke="#9e9e9e" stroke-width="1.0" stroke-linejoin="round" stroke-linecap="butt" d="m354.7731 340.16797l0 0c0 -19.621307 16.06839 -35.527557 35.88977 -35.527557l0 0c9.518555 0 18.647247 3.7430725 25.3779 10.405792c6.7306213 6.6627197 10.511841 15.69928 10.511841 25.121765l0 0c0 19.621338 -16.06839 35.527557 -35.88974 35.527557l0 0c-19.82138 0 -35.88977 -15.9062195 -35.88977 -35.527557z" fill-rule="evenodd"/></g><path fill="#000000" fill-opacity="0.0" d="m378.42664 181.10367l24.472443 0l0 72.72441l-24.472443 0z" fill-rule="evenodd"/><path fill="#000000" d="m388.2079 199.04305q0 -0.75 0.53125 -1.28125q0.53125 -0.53125 1.28125 -0.53125q0.75 0 1.28125 0.53125q0.53125 0.53125 0.53125 1.28125q0 0.75 -0.53125 1.28125q-0.53125 0.53125 -1.28125 0.53125q-0.75 0 -1.28125 -0.53125q-0.53125 -0.53125 -0.53125 -1.28125z" fill-rule="nonzero"/><path fill="#000000" d="m388.2079 216.64305q0 -0.75 0.53125 -1.28125q0.53125 -0.53125 1.28125 -0.53125q0.75 0 1.28125 0.53125q0.53125 0.53125 0.53125 1.28125q0 0.75 -0.53125 1.28125q-0.53125 0.53125 -1.28125 0.53125q-0.75 0 -1.28125 -0.53125q-0.53125 -0.53125 -0.53125 -1.28125z" fill-rule="nonzero"/><path fill="#000000" d="m388.2079 234.24304q0 -0.75 0.53125 -1.28125q0.53125 -0.53125 1.28125 -0.53125q0.75 0 1.28125 0.53125q0.53125 0.53125 0.53125 1.28125q0 0.75 -0.53125 1.28125q-0.53125 0.53125 -1.28125 0.53125q-0.75 0 -1.28125 -0.53125q-0.53125 -0.53125 -0.53125 -1.28125z" fill-rule="nonzero"/><path fill="#000000" fill-opacity="0.0" d="m583.1463 106.91338l71.37012 0l0 37.16535l-71.37012 0z" fill-rule="evenodd"/><path fill="#000000" d="m593.30255 129.9934l0 -10.484383l4.640625 0q1.40625 0 2.140625 0.28125q0.734375 0.28125 1.171875 1.0q0.4375 0.703125 0.4375 1.578125q0 1.109375 -0.734375 1.875q-0.71875 0.765625 -2.234375 0.984375q0.5625 0.25 0.84375 0.515625q0.609375 0.5625 1.15625 1.390625l1.8125 2.8593826l-1.734375 0l-1.390625 -2.1875076q-0.609375 -0.9375 -1.0 -1.4375q-0.390625 -0.5 -0.703125 -0.703125q-0.3125 -0.203125 -0.640625 -0.28125q-0.234375 -0.046875 -0.765625 -0.046875l-1.609375 0l0 4.6562576l-1.390625 0zm1.390625 -5.8593826l2.984375 0q0.9375 0 1.46875 -0.1875q0.546875 -0.203125 0.828125 -0.640625q0.28125 -0.4375 0.28125 -0.9375q0 -0.75 -0.546875 -1.21875q-0.53125 -0.484375 -1.703125 -0.484375l-3.3125 0l0 3.46875zm9.006165 -3.15625l0 -1.46875l1.296875 0l0 1.46875l-1.296875 0zm0 9.015633l0 -7.5937576l1.296875 0l0 7.5937576l-1.296875 0zm3.0217896 0.625l1.25 0.1875q0.078125 0.578125 0.4375 0.84375q0.46875 0.359375 1.3125 0.359375q0.890625 0 1.375 -0.359375q0.484375 -0.359375 0.65625 -1.0q0.109375 -0.390625 0.09375 -1.65625q-0.84375 1.0 -2.109375 1.0q-1.5625 0 -2.421875 -1.125q-0.859375 -1.1406326 -0.859375 -2.7187576q0 -1.09375 0.390625 -2.0q0.40625 -0.921875 1.140625 -1.421875q0.75 -0.5 1.765625 -0.5q1.34375 0 2.21875 1.078125l0 -0.90625l1.1875 0l0 6.5625076q0 1.78125 -0.359375 2.515625q-0.359375 0.734375 -1.15625 1.15625q-0.78125 0.4375 -1.921875 0.4375q-1.359375 0 -2.203125 -0.609375q-0.828125 -0.609375 -0.796875 -1.84375zm1.0625 -4.5625076q0 1.5 0.59375 2.1875076q0.59375 0.6875 1.484375 0.6875q0.890625 0 1.484375 -0.6875q0.609375 -0.6875076 0.609375 -2.1406326q0 -1.390625 -0.625 -2.09375q-0.609375 -0.71875 -1.484375 -0.71875q-0.859375 0 -1.46875 0.703125q-0.59375 0.6875 -0.59375 2.0625zm7.322998 3.9375076l0 -10.484383l1.28125 0l0 3.75q0.90625 -1.03125 2.28125 -1.03125q0.84375 0 1.46875 0.328125q0.625 0.328125 0.890625 0.921875q0.265625 0.578125 0.265625 1.703125l0 4.8125076l-1.28125 0l0 -4.8125076q0 -0.96875 -0.421875 -1.40625q-0.421875 -0.4375 -1.1875 -0.4375q-0.578125 0 -1.078125 0.296875q-0.5 0.296875 -0.71875 0.8125q-0.21875 0.5 -0.21875 1.390625l0 4.1562576l-1.28125 0zm10.963562 -1.15625l0.1875 1.140625q-0.546875 0.109375 -0.984375 0.109375q-0.6875 0 -1.078125 -0.21875q-0.390625 -0.21875 -0.546875 -0.578125q-0.15625 -0.359375 -0.15625 -1.5156326l0 -4.375l-0.953125 0l0 -1.0l0.953125 0l0 -1.890625l1.28125 -0.765625l0 2.65625l1.296875 0l0 1.0l-1.296875 0l0 4.4375q0 0.5468826 0.0625 0.7187576q0.078125 0.15625 0.21875 0.25q0.15625 0.078125 0.453125 0.078125q0.203125 0 0.5625 -0.046875z" fill-rule="nonzero"/><path fill="#000000" fill-opacity="0.0" d="m583.1489 198.8819l71.37012 0l0 37.165344l-71.37012 0z" fill-rule="evenodd"/><path fill="#000000" d="m600.7583 218.29001l1.390625 0.34375q-0.4375 1.703125 -1.578125 2.609375q-1.125 0.890625 -2.765625 0.890625q-1.6875 0 -2.75 -0.6875q-1.0625 -0.6875 -1.625 -2.0q-0.546875 -1.3125 -0.546875 -2.8125q0 -1.640625 0.625 -2.859375q0.625 -1.21875 1.78125 -1.84375q1.15625 -0.640625 2.546875 -0.640625q1.5625 0 2.640625 0.8125q1.078125 0.796875 1.5 2.25l-1.375 0.3125q-0.359375 -1.140625 -1.0625 -1.65625q-0.6875 -0.53125 -1.734375 -0.53125q-1.21875 0 -2.03125 0.578125q-0.8125 0.578125 -1.140625 1.5625q-0.328125 0.96875 -0.328125 2.015625q0 1.328125 0.390625 2.328125q0.390625 1.0 1.21875 1.5q0.828125 0.484375 1.78125 0.484375q1.171875 0 1.96875 -0.671875q0.8125 -0.671875 1.09375 -1.984375zm8.14679 1.21875l1.328125 0.171875q-0.3125 1.171875 -1.171875 1.8125q-0.84375 0.640625 -2.171875 0.640625q-1.671875 0 -2.65625 -1.015625q-0.96875 -1.03125 -0.96875 -2.890625q0 -1.921875 0.984375 -2.96875q1.0 -1.0625 2.578125 -1.0625q1.515625 0 2.484375 1.03125q0.96875 1.03125 0.96875 2.921875q0 0.109375 -0.015625 0.34375l-5.65625 0q0.0625 1.25 0.703125 1.921875q0.640625 0.65625 1.59375 0.65625q0.703125 0 1.203125 -0.359375q0.5 -0.375 0.796875 -1.203125zm-4.234375 -2.078125l4.25 0q-0.09375 -0.953125 -0.484375 -1.4375q-0.625 -0.75 -1.609375 -0.75q-0.875 0 -1.484375 0.59375q-0.609375 0.59375 -0.671875 1.59375zm7.182373 4.53125l0 -7.59375l1.15625 0l0 1.078125q0.84375 -1.25 2.421875 -1.25q0.6875 0 1.265625 0.25q0.578125 0.234375 0.859375 0.640625q0.28125 0.40625 0.40625 0.953125q0.0625 0.359375 0.0625 1.25l0 4.671875l-1.28125 0l0 -4.625q0 -0.78125 -0.15625 -1.171875q-0.15625 -0.390625 -0.546875 -0.625q-0.375 -0.234375 -0.890625 -0.234375q-0.8125 0 -1.421875 0.53125q-0.59375 0.515625 -0.59375 1.96875l0 4.15625l-1.28125 0zm10.963623 -1.15625l0.1875 1.140625q-0.546875 0.109375 -0.984375 0.109375q-0.6875 0 -1.078125 -0.21875q-0.390625 -0.21875 -0.546875 -0.578125q-0.15625 -0.359375 -0.15625 -1.515625l0 -4.375l-0.953125 0l0 -1.0l0.953125 0l0 -1.890625l1.28125 -0.765625l0 2.65625l1.296875 0l0 1.0l-1.296875 0l0 4.4375q0 0.546875 0.0625 0.71875q0.078125 0.15625 0.21875 0.25q0.15625 0.078125 0.453125 0.078125q0.203125 0 0.5625 -0.046875zm6.4625854 -1.296875l1.328125 0.171875q-0.3125 1.171875 -1.171875 1.8125q-0.84375 0.640625 -2.171875 0.640625q-1.671875 0 -2.65625 -1.015625q-0.96875 -1.03125 -0.96875 -2.890625q0 -1.921875 0.984375 -2.96875q1.0 -1.0625 2.578125 -1.0625q1.515625 0 2.484375 1.03125q0.96875 1.03125 0.96875 2.921875q0 0.109375 -0.015625 0.34375l-5.65625 0q0.0625 1.25 0.703125 1.921875q0.640625 0.65625 1.59375 0.65625q0.703125 0 1.203125 -0.359375q0.5 -0.375 0.796875 -1.203125zm-4.234375 -2.078125l4.25 0q-0.09375 -0.953125 -0.484375 -1.4375q-0.625 -0.75 -1.609375 -0.75q-0.875 0 -1.484375 0.59375q-0.609375 0.59375 -0.671875 1.59375zm7.166748 4.53125l0 -7.59375l1.15625 0l0 1.140625q0.453125 -0.796875 0.828125 -1.046875q0.375 -0.265625 0.8125 -0.265625q0.65625 0 1.328125 0.40625l-0.4375 1.203125q-0.46875 -0.28125 -0.953125 -0.28125q-0.421875 0 -0.765625 0.25q-0.328125 0.25 -0.46875 0.703125q-0.21875 0.6875 -0.21875 1.5l0 3.984375l-1.28125 0z" fill-rule="nonzero"/><path fill="#000000" fill-opacity="0.0" d="m583.1489 290.8504l71.37012 0l0 37.165344l-71.37012 0z" fill-rule="evenodd"/><path fill="#000000" d="m593.22705 313.9304l0 -10.484375l1.390625 0l0 9.25l5.15625 0l0 1.234375l-6.546875 0zm13.244873 -2.453125l1.328125 0.171875q-0.3125 1.171875 -1.171875 1.8125q-0.84375 0.640625 -2.171875 0.640625q-1.671875 0 -2.65625 -1.015625q-0.96875 -1.03125 -0.96875 -2.890625q0 -1.921875 0.984375 -2.96875q1.0 -1.0625 2.578125 -1.0625q1.515625 0 2.484375 1.03125q0.96875 1.03125 0.96875 2.921875q0 0.109375 -0.015625 0.34375l-5.65625 0q0.0625 1.25 0.703125 1.921875q0.640625 0.65625 1.59375 0.65625q0.703125 0 1.203125 -0.359375q0.5 -0.375 0.796875 -1.203125zm-4.234375 -2.078125l4.25 0q-0.09375 -0.953125 -0.484375 -1.4375q-0.625 -0.75 -1.609375 -0.75q-0.875 0 -1.484375 0.59375q-0.609375 0.59375 -0.671875 1.59375zm7.494873 4.53125l0 -6.59375l-1.140625 0l0 -1.0l1.140625 0l0 -0.8125q0 -0.765625 0.125 -1.140625q0.1875 -0.5 0.65625 -0.8125q0.46875 -0.3125 1.3125 -0.3125q0.546875 0 1.203125 0.125l-0.1875 1.125q-0.40625 -0.0625 -0.765625 -0.0625q-0.578125 0 -0.828125 0.25q-0.234375 0.25 -0.234375 0.9375l0 0.703125l1.46875 0l0 1.0l-1.46875 0l0 6.59375l-1.28125 0zm6.5719604 -1.15625l0.1875 1.140625q-0.546875 0.109375 -0.984375 0.109375q-0.6875 0 -1.078125 -0.21875q-0.390625 -0.21875 -0.546875 -0.578125q-0.15625 -0.359375 -0.15625 -1.515625l0 -4.375l-0.953125 0l0 -1.0l0.953125 0l0 -1.890625l1.28125 -0.765625l0 2.65625l1.296875 0l0 1.0l-1.296875 0l0 4.4375q0 0.546875 0.0625 0.71875q0.078125 0.15625 0.21875 0.25q0.15625 0.078125 0.453125 0.078125q0.203125 0 0.5625 -0.046875z" fill-rule="nonzero"/><path fill="#000000" fill-opacity="0.0" d="m461.14975 359.5l87.40158 0l0 54.92914l-87.40158 0z" fill-rule="evenodd"/><path fill="#000000" d="m479.483 377.4706q0 -2.609375 1.40625 -4.078125q1.40625 -1.484375 3.625 -1.484375q1.453125 0 2.609375 0.703125q1.171875 0.6875 1.78125 1.921875q0.609375 1.234375 0.609375 2.8125q0 1.59375 -0.640625 2.859375q-0.640625 1.265625 -1.828125 1.90625q-1.171875 0.640625 -2.546875 0.640625q-1.46875 0 -2.640625 -0.703125q-1.171875 -0.71875 -1.78125 -1.953125q-0.59375 -1.25 -0.59375 -2.625zm1.4375 0.015625q0 1.90625 1.015625 3.0q1.015625 1.078125 2.5625 1.078125q1.5625 0 2.578125 -1.09375q1.015625 -1.109375 1.015625 -3.125q0 -1.28125 -0.4375 -2.234375q-0.4375 -0.96875 -1.265625 -1.484375q-0.828125 -0.53125 -1.875 -0.53125q-1.46875 0 -2.53125 1.015625q-1.0625 1.015625 -1.0625 3.375zm15.212616 5.09375l0 -1.109375q-0.890625 1.28125 -2.421875 1.28125q-0.671875 0 -1.25 -0.25q-0.578125 -0.265625 -0.875 -0.65625q-0.28125 -0.390625 -0.390625 -0.953125q-0.078125 -0.375 -0.078125 -1.203125l0 -4.703125l1.28125 0l0 4.203125q0 1.015625 0.078125 1.359375q0.125 0.515625 0.515625 0.8125q0.40625 0.28125 0.984375 0.28125q0.578125 0 1.078125 -0.296875q0.515625 -0.296875 0.71875 -0.8125q0.21875 -0.515625 0.21875 -1.484375l0 -4.0625l1.28125 0l0 7.59375l-1.140625 0zm5.9792175 -1.15625l0.1875 1.140625q-0.546875 0.109375 -0.984375 0.109375q-0.6875 0 -1.078125 -0.21875q-0.390625 -0.21875 -0.546875 -0.578125q-0.15625 -0.359375 -0.15625 -1.515625l0 -4.375l-0.953125 0l0 -1.0l0.953125 0l0 -1.890625l1.28125 -0.765625l0 2.65625l1.296875 0l0 1.0l-1.296875 0l0 4.4375q0 0.546875 0.0625 0.71875q0.078125 0.15625 0.21875 0.25q0.15625 0.078125 0.453125 0.078125q0.203125 0 0.5625 -0.046875zm1.259491 4.0625l0 -10.5l1.171875 0l0 0.984375q0.421875 -0.578125 0.9375 -0.859375q0.515625 -0.296875 1.265625 -0.296875q0.96875 0 1.71875 0.5q0.75 0.5 1.125 1.421875q0.375 0.90625 0.375 1.984375q0 1.171875 -0.421875 2.109375q-0.40625 0.921875 -1.21875 1.421875q-0.796875 0.5 -1.671875 0.5q-0.640625 0 -1.15625 -0.265625q-0.515625 -0.28125 -0.84375 -0.6875l0 3.6875l-1.28125 0zm1.15625 -6.65625q0 1.453125 0.59375 2.15625q0.609375 0.703125 1.453125 0.703125q0.859375 0 1.46875 -0.71875q0.609375 -0.734375 0.609375 -2.25q0 -1.453125 -0.609375 -2.171875q-0.59375 -0.734375 -1.421875 -0.734375q-0.8125 0 -1.453125 0.78125q-0.640625 0.765625 -0.640625 2.234375zm11.979248 3.75l0 -1.109375q-0.890625 1.28125 -2.421875 1.28125q-0.671875 0 -1.25 -0.25q-0.578125 -0.265625 -0.8750305 -0.65625q-0.28125 -0.390625 -0.390625 -0.953125q-0.078125 -0.375 -0.078125 -1.203125l0 -4.703125l1.2812805 0l0 4.203125q0 1.015625 0.078125 1.359375q0.125 0.515625 0.515625 0.8125q0.40625 0.28125 0.984375 0.28125q0.578125 0 1.078125 -0.296875q0.515625 -0.296875 0.71875 -0.8125q0.21875 -0.515625 0.21875 -1.484375l0 -4.0625l1.28125 0l0 7.59375l-1.140625 0zm5.979187 -1.15625l0.1875 1.140625q-0.546875 0.109375 -0.984375 0.109375q-0.6875 0 -1.078125 -0.21875q-0.390625 -0.21875 -0.546875 -0.578125q-0.15625 -0.359375 -0.15625 -1.515625l0 -4.375l-0.953125 0l0 -1.0l0.953125 0l0 -1.890625l1.28125 -0.765625l0 2.65625l1.296875 0l0 1.0l-1.296875 0l0 4.4375q0 0.546875 0.0625 0.71875q0.078125 0.15625 0.21875 0.25q0.15625 0.078125 0.453125 0.078125q0.203125 0 0.5625 -0.046875zm4.362732 1.328125l3.046875 -10.84375l1.03125 0l-3.046875 10.84375l-1.03125 0z" fill-rule="nonzero"/><path fill="#000000" d="m477.87247 400.18l0 -10.484375l3.625 0q1.21875 0 1.859375 0.140625q0.90625 0.203125 1.546875 0.75q0.828125 0.703125 1.234375 1.796875q0.40625 1.09375 0.40625 2.5q0 1.1875 -0.28125 2.109375q-0.265625 0.921875 -0.703125 1.53125q-0.4375 0.609375 -0.96875 0.953125q-0.515625 0.34375 -1.25 0.53125q-0.71875 0.171875 -1.671875 0.171875l-3.796875 0zm1.390625 -1.234375l2.25 0q1.03125 0 1.625 -0.1875q0.59375 -0.203125 0.9375 -0.546875q0.5 -0.5 0.765625 -1.328125q0.28125 -0.84375 0.28125 -2.03125q0 -1.640625 -0.546875 -2.515625q-0.53125 -0.890625 -1.3125 -1.1875q-0.546875 -0.21875 -1.796875 -0.21875l-2.203125 0l0 8.015625zm14.24054 -1.21875l1.328125 0.171875q-0.3125 1.171875 -1.171875 1.8125q-0.84375 0.640625 -2.171875 0.640625q-1.671875 0 -2.65625 -1.015625q-0.96875 -1.03125 -0.96875 -2.890625q0 -1.921875 0.984375 -2.96875q1.0 -1.0625 2.578125 -1.0625q1.515625 0 2.484375 1.03125q0.96875 1.03125 0.96875 2.921875q0 0.109375 -0.015625 0.34375l-5.65625 0q0.0625 1.25 0.703125 1.921875q0.640625 0.65625 1.59375 0.65625q0.703125 0 1.203125 -0.359375q0.5 -0.375 0.796875 -1.203125zm-4.234375 -2.078125l4.25 0q-0.09375 -0.953125 -0.484375 -1.4375q-0.625 -0.75 -1.609375 -0.75q-0.875 0 -1.484375 0.59375q-0.609375 0.59375 -0.671875 1.59375zm12.135468 1.75l1.265625 0.15625q-0.203125 1.3125 -1.0625 2.0625q-0.84375 0.734375 -2.09375 0.734375q-1.5625 0 -2.515625 -1.015625q-0.9375 -1.03125 -0.9375 -2.921875q0 -1.234375 0.40625 -2.15625q0.40625 -0.921875 1.234375 -1.375q0.84375 -0.46875 1.8125 -0.46875q1.25 0 2.03125 0.625q0.78125 0.625 1.015625 1.765625l-1.265625 0.203125q-0.171875 -0.765625 -0.625 -1.15625q-0.453125 -0.390625 -1.09375 -0.390625q-0.984375 0 -1.59375 0.703125q-0.609375 0.703125 -0.609375 2.203125q0 1.53125 0.578125 2.234375q0.59375 0.6875 1.546875 0.6875q0.75 0 1.265625 -0.453125q0.515625 -0.46875 0.640625 -1.4375zm2.375 -6.234375l0 -1.46875l1.296875 0l0 1.46875l-1.296875 0zm0 9.015625l0 -7.59375l1.296875 0l0 7.59375l-1.296875 0zm2.7405396 -2.265625l1.265625 -0.203125q0.109375 0.765625 0.59375 1.171875q0.5 0.40625 1.375 0.40625q0.890625 0 1.3125 -0.359375q0.4375 -0.359375 0.4375 -0.84375q0 -0.4375 -0.375 -0.6875q-0.265625 -0.171875 -1.3125 -0.4375q-1.421875 -0.359375 -1.96875 -0.609375q-0.546875 -0.265625 -0.828125 -0.734375q-0.28125 -0.46875 -0.28125 -1.015625q0 -0.515625 0.21875 -0.9375q0.234375 -0.4375 0.640625 -0.734375q0.296875 -0.21875 0.8125 -0.359375q0.53125 -0.15625 1.125 -0.15625q0.890625 0 1.5625 0.265625q0.671875 0.25 1.0 0.6875q0.328125 0.4375 0.4375 1.171875l-1.25 0.171875q-0.09375 -0.578125 -0.5 -0.90625q-0.40625 -0.34375 -1.15625 -0.34375q-0.890625 0 -1.28125 0.296875q-0.375 0.296875 -0.375 0.6875q0 0.25 0.15625 0.453125q0.15625 0.203125 0.5 0.34375q0.1875 0.078125 1.140625 0.328125q1.359375 0.359375 1.890625 0.59375q0.546875 0.234375 0.859375 0.6875q0.3125 0.4375 0.3125 1.09375q0 0.640625 -0.375 1.21875q-0.375 0.5625 -1.09375 0.875q-0.703125 0.3125 -1.59375 0.3125q-1.484375 0 -2.265625 -0.609375q-0.765625 -0.625 -0.984375 -1.828125zm7.84375 -6.75l0 -1.46875l1.296875 0l0 1.46875l-1.296875 0zm0 9.015625l0 -7.59375l1.296875 0l0 7.59375l-1.296875 0zm2.7717896 -3.796875q0 -2.109375 1.171875 -3.125q0.984375 -0.84375 2.390625 -0.84375q1.578125 0 2.5625 1.03125q1.0 1.015625 1.0 2.828125q0 1.46875 -0.4375 2.3125q-0.4375 0.828125 -1.28125 1.296875q-0.84375 0.46875 -1.84375 0.46875q-1.59375 0 -2.578125 -1.015625q-0.984375 -1.03125 -0.984375 -2.953125zm1.328125 0q0 1.453125 0.625 2.1875q0.640625 0.71875 1.609375 0.71875q0.96875 0 1.59375 -0.71875q0.640625 -0.734375 0.640625 -2.234375q0 -1.40625 -0.640625 -2.125q-0.640625 -0.734375 -1.59375 -0.734375q-0.96875 0 -1.609375 0.71875q-0.625 0.71875 -0.625 2.1875zm7.307312 3.796875l0 -7.59375l1.15625 0l0 1.078125q0.84375 -1.25 2.421875 -1.25q0.6875 0 1.265625 0.25q0.578125 0.234375 0.859375 0.640625q0.28125 0.40625 0.40625 0.953125q0.0625 0.359375 0.0625 1.25l0 4.671875l-1.28125 0l0 -4.625q0 -0.78125 -0.15625 -1.171875q-0.15625 -0.390625 -0.546875 -0.625q-0.375 -0.234375 -0.890625 -0.234375q-0.8125 0 -1.421875 0.53125q-0.59375 0.515625 -0.59375 1.96875l0 4.15625l-1.28125 0z" fill-rule="nonzero"/><path fill="#000000" fill-opacity="0.0" d="m240.99461 198.88321l71.37007 0l0 37.165344l-71.37007 0z" fill-rule="evenodd"/><path fill="#000000" d="m255.51231 216.82257q0 -0.75 0.53126526 -1.28125q0.53125 -0.53125 1.28125 -0.53125q0.75 0 1.28125 0.53125q0.53125 0.53125 0.53125 1.28125q0 0.75 -0.53125 1.28125q-0.53125 0.53125 -1.28125 0.53125q-0.75 0 -1.28125 -0.53125q-0.53126526 -0.53125 -0.53126526 -1.28125zm21.419022 0q0 -0.75 0.53125 -1.28125q0.53125 -0.53125 1.28125 -0.53125q0.75 0 1.28125 0.53125q0.53125 0.53125 0.53125 1.28125q0 0.75 -0.53125 1.28125q-0.53125 0.53125 -1.28125 0.53125q-0.75 0 -1.28125 -0.53125q-0.53125 -0.53125 -0.53125 -1.28125zm17.347046 0q0 -0.75 0.53125 -1.28125q0.53125 -0.53125 1.28125 -0.53125q0.75 0 1.28125 0.53125q0.53125 0.53125 0.53125 1.28125q0 0.75 -0.53125 1.28125q-0.53125 0.53125 -1.28125 0.53125q-0.75 0 -1.28125 -0.53125q-0.53125 -0.53125 -0.53125 -1.28125z" fill-rule="nonzero"/><path fill="#000000" fill-opacity="0.0" d="m84.39829 46.7231l42.3937 48.031494" fill-rule="evenodd"/><path stroke="#000000" stroke-width="1.0" stroke-linejoin="round" stroke-linecap="butt" d="m84.39829 46.7231l42.3937 48.031494" fill-rule="evenodd"/><path fill="#000000" fill-opacity="0.0" d="m84.39829 46.7231l42.3937 293.4488" fill-rule="evenodd"/><path stroke="#000000" stroke-width="1.0" stroke-linejoin="round" stroke-linecap="butt" d="m84.39829 46.7231l42.3937 293.4488" fill-rule="evenodd"/><path fill="#000000" fill-opacity="0.0" d="m84.39829 131.67769l42.3937 -36.913383" fill-rule="evenodd"/><path stroke="#000000" stroke-width="1.0" stroke-linejoin="round" stroke-linecap="butt" d="m84.39829 131.67769l42.3937 -36.913383" fill-rule="evenodd"/><path fill="#000000" fill-opacity="0.0" d="m84.39829 131.67769l42.3937 208.50395" fill-rule="evenodd"/><path stroke="#000000" stroke-width="1.0" stroke-linejoin="round" stroke-linecap="butt" d="m84.39829 131.67769l42.3937 208.50395" fill-rule="evenodd"/><path fill="#000000" fill-opacity="0.0" d="m83.9895 301.7126l42.803146 -206.96062" fill-rule="evenodd"/><path stroke="#000000" stroke-width="1.0" stroke-linejoin="round" stroke-linecap="butt" d="m83.9895 301.7126l42.803146 -206.96062" fill-rule="evenodd"/><path fill="#000000" fill-opacity="0.0" d="m83.9895 301.7126l42.803146 38.456696" fill-rule="evenodd"/><path stroke="#000000" stroke-width="1.0" stroke-linejoin="round" stroke-linecap="butt" d="m83.9895 301.7126l42.803146 38.456696" fill-rule="evenodd"/><path fill="#000000" fill-opacity="0.0" d="m84.39829 388.21075l42.3937 -293.44882" fill-rule="evenodd"/><path stroke="#000000" stroke-width="1.0" stroke-linejoin="round" stroke-linecap="butt" d="m84.39829 388.21075l42.3937 -293.44882" fill-rule="evenodd"/><path fill="#000000" fill-opacity="0.0" d="m84.39829 388.21075l42.3937 -48.031494" fill-rule="evenodd"/><path stroke="#000000" stroke-width="1.0" stroke-linejoin="round" stroke-linecap="butt" d="m84.39829 388.21075l42.3937 -48.031494" fill-rule="evenodd"/><path fill="#000000" fill-opacity="0.0" d="m426.5526 94.76378l42.393707 30.740158" fill-rule="evenodd"/><path stroke="#000000" stroke-width="1.0" stroke-linejoin="round" stroke-linecap="butt" d="m426.5526 94.76378l42.393707 30.740158" fill-rule="evenodd"/><path fill="#000000" fill-opacity="0.0" d="m426.5526 94.76378l42.393707 122.708664" fill-rule="evenodd"/><path stroke="#000000" stroke-width="1.0" stroke-linejoin="round" stroke-linecap="butt" d="m426.5526 94.76378l42.393707 122.708664" fill-rule="evenodd"/><path fill="#000000" fill-opacity="0.0" d="m426.5526 94.76378l42.393707 214.67717" fill-rule="evenodd"/><path stroke="#000000" stroke-width="1.0" stroke-linejoin="round" stroke-linecap="butt" d="m426.5526 94.76378l42.393707 214.67717" fill-rule="evenodd"/><path fill="#000000" fill-opacity="0.0" d="m426.5526 340.16797l42.393707 -30.740143" fill-rule="evenodd"/><path stroke="#000000" stroke-width="1.0" stroke-linejoin="round" stroke-linecap="butt" d="m426.5526 340.16797l42.393707 -30.740143" fill-rule="evenodd"/><path fill="#000000" fill-opacity="0.0" d="m426.5526 340.16797l42.393707 -122.70865" fill-rule="evenodd"/><path stroke="#000000" stroke-width="1.0" stroke-linejoin="round" stroke-linecap="butt" d="m426.5526 340.16797l42.393707 -122.70865" fill-rule="evenodd"/><path fill="#000000" fill-opacity="0.0" d="m426.5526 340.16797l42.393707 -214.67715" fill-rule="evenodd"/><path stroke="#000000" stroke-width="1.0" stroke-linejoin="round" stroke-linecap="butt" d="m426.5526 340.16797l42.393707 -214.67715" fill-rule="evenodd"/><path fill="#000000" fill-opacity="0.0" d="m198.58623 94.76247l42.393692 122.708664" fill-rule="evenodd"/><path stroke="#000000" stroke-width="1.0" stroke-linejoin="round" stroke-linecap="butt" d="m198.58623 94.76247l42.393692 122.708664" fill-rule="evenodd"/><path fill="#000000" fill-opacity="0.0" d="m198.58623 340.16666l42.393692 -122.70865" fill-rule="evenodd"/><path stroke="#000000" stroke-width="1.0" stroke-linejoin="round" stroke-linecap="butt" d="m198.58623 340.16666l42.393692 -122.70865" fill-rule="evenodd"/><path fill="#000000" fill-opacity="0.0" d="m174.93268 217.46457l66.04724 0" fill-rule="evenodd"/><path stroke="#000000" stroke-width="1.0" stroke-linejoin="round" stroke-linecap="butt" d="m174.93268 217.46457l66.04724 0" fill-rule="evenodd"/><path fill="#000000" fill-opacity="0.0" d="m312.3647 217.46588l42.393707 -122.708664" fill-rule="evenodd"/><path stroke="#000000" stroke-width="1.0" stroke-linejoin="round" stroke-linecap="butt" d="m312.3647 217.46588l42.393707 -122.708664" fill-rule="evenodd"/><path fill="#000000" fill-opacity="0.0" d="m312.3647 217.46588l66.04727 0" fill-rule="evenodd"/><path stroke="#000000" stroke-width="1.0" stroke-linejoin="round" stroke-linecap="butt" d="m312.3647 217.46588l66.04727 0" fill-rule="evenodd"/><path fill="#000000" fill-opacity="0.0" d="m312.3647 217.46588l42.393707 122.70865" fill-rule="evenodd"/><path stroke="#000000" stroke-width="1.0" stroke-linejoin="round" stroke-linecap="butt" d="m312.3647 217.46588l42.393707 122.70865" fill-rule="evenodd"/><path fill="#000000" fill-opacity="0.0" d="m540.74054 125.49869l42.393738 0" fill-rule="evenodd"/><path stroke="#000000" stroke-width="1.0" stroke-linejoin="round" stroke-linecap="butt" d="m540.74054 125.49869l36.393738 0" fill-rule="evenodd"/><path fill="#000000" stroke="#000000" stroke-width="1.0" stroke-linecap="butt" d="m577.1343 127.15042l4.538086 -1.6517334l-4.538086 -1.6517334z" fill-rule="evenodd"/><path fill="#000000" fill-opacity="0.0" d="m540.74054 217.46588l42.393738 0" fill-rule="evenodd"/><path stroke="#000000" stroke-width="1.0" stroke-linejoin="round" stroke-linecap="butt" d="m540.74054 217.46588l36.393738 0" fill-rule="evenodd"/><path fill="#000000" stroke="#000000" stroke-width="1.0" stroke-linecap="butt" d="m577.1343 219.11761l4.538086 -1.6517334l-4.538086 -1.6517334z" fill-rule="evenodd"/><path fill="#000000" fill-opacity="0.0" d="m540.74054 309.43307l42.393738 0" fill-rule="evenodd"/><path stroke="#000000" stroke-width="1.0" stroke-linejoin="round" stroke-linecap="butt" d="m540.74054 309.43307l36.393738 0" fill-rule="evenodd"/><path fill="#000000" stroke="#000000" stroke-width="1.0" stroke-linecap="butt" d="m577.1343 311.0848l4.538086 -1.6517334l-4.538086 -1.6517334z" fill-rule="evenodd"/><path fill="#000000" fill-opacity="0.0" d="m577.4634 340.91733l82.74011 0l0 37.165344l-82.74011 0z" fill-rule="evenodd"/><path fill="#000000" d="m600.96783 360.32544l1.390625 0.34375q-0.4375 1.703125 -1.578125 2.609375q-1.125 0.890625 -2.765625 0.890625q-1.6875 0 -2.75 -0.6875q-1.0625 -0.6875 -1.625 -2.0q-0.546875 -1.3125 -0.546875 -2.8125q0 -1.640625 0.625 -2.859375q0.625 -1.21875 1.78125 -1.84375q1.15625 -0.640625 2.546875 -0.640625q1.5625 0 2.640625 0.8125q1.078125 0.796875 1.5 2.25l-1.375 0.3125q-0.359375 -1.140625 -1.0625 -1.65625q-0.6875 -0.53125 -1.734375 -0.53125q-1.21875 0 -2.03125 0.578125q-0.8125 0.578125 -1.140625 1.5625q-0.328125 0.96875 -0.328125 2.015625q0 1.328125 0.390625 2.328125q0.390625 1.0 1.21875 1.5q0.828125 0.484375 1.78125 0.484375q1.171875 0 1.96875 -0.671875q0.8125 -0.671875 1.09375 -1.984375zm2.9436035 3.671875l0 -10.484375l1.28125 0l0 3.75q0.90625 -1.03125 2.28125 -1.03125q0.84375 0 1.46875 0.328125q0.625 0.328125 0.890625 0.921875q0.265625 0.578125 0.265625 1.703125l0 4.8125l-1.28125 0l0 -4.8125q0 -0.96875 -0.421875 -1.40625q-0.421875 -0.4375 -1.1875 -0.4375q-0.578125 0 -1.078125 0.296875q-0.5 0.296875 -0.71875 0.8125q-0.21875 0.5 -0.21875 1.390625l0 4.15625l-1.28125 0zm7.666748 -3.796875q0 -2.109375 1.171875 -3.125q0.984375 -0.84375 2.390625 -0.84375q1.578125 0 2.5625 1.03125q1.0 1.015625 1.0 2.828125q0 1.46875 -0.4375 2.3125q-0.4375 0.828125 -1.28125 1.296875q-0.84375 0.46875 -1.84375 0.46875q-1.59375 0 -2.578125 -1.015625q-0.984375 -1.03125 -0.984375 -2.953125zm1.328125 0q0 1.453125 0.625 2.1875q0.640625 0.71875 1.609375 0.71875q0.96875 0 1.59375 -0.71875q0.640625 -0.734375 0.640625 -2.234375q0 -1.40625 -0.640625 -2.125q-0.640625 -0.734375 -1.59375 -0.734375q-0.96875 0 -1.609375 0.71875q-0.625 0.71875 -0.625 2.1875zm7.307373 -5.21875l0 -1.46875l1.296875 0l0 1.46875l-1.296875 0zm0 9.015625l0 -7.59375l1.296875 0l0 7.59375l-1.296875 0zm8.20929 -2.78125l1.265625 0.15625q-0.203125 1.3125 -1.0625 2.0625q-0.84375 0.734375 -2.09375 0.734375q-1.5625 0 -2.515625 -1.015625q-0.9375 -1.03125 -0.9375 -2.921875q0 -1.234375 0.40625 -2.15625q0.40625 -0.921875 1.234375 -1.375q0.84375 -0.46875 1.8125 -0.46875q1.25 0 2.03125 0.625q0.78125 0.625 1.015625 1.765625l-1.265625 0.203125q-0.171875 -0.765625 -0.625 -1.15625q-0.453125 -0.390625 -1.09375 -0.390625q-0.984375 0 -1.59375 0.703125q-0.609375 0.703125 -0.609375 2.203125q0 1.53125 0.578125 2.234375q0.59375 0.6875 1.546875 0.6875q0.75 0 1.265625 -0.453125q0.515625 -0.46875 0.640625 -1.4375zm7.578125 0.328125l1.328125 0.171875q-0.3125 1.171875 -1.171875 1.8125q-0.84375 0.640625 -2.171875 0.640625q-1.671875 0 -2.65625 -1.015625q-0.96875 -1.03125 -0.96875 -2.890625q0 -1.921875 0.984375 -2.96875q1.0 -1.0625 2.578125 -1.0625q1.515625 0 2.484375 1.03125q0.96875 1.03125 0.96875 2.921875q0 0.109375 -0.015625 0.34375l-5.65625 0q0.0625 1.25 0.703125 1.921875q0.640625 0.65625 1.59375 0.65625q0.703125 0 1.203125 -0.359375q0.5 -0.375 0.796875 -1.203125zm-4.234375 -2.078125l4.25 0q-0.09375 -0.953125 -0.484375 -1.4375q-0.625 -0.75 -1.609375 -0.75q-0.875 0 -1.484375 0.59375q-0.609375 0.59375 -0.671875 1.59375zm6.666687 2.265625l1.265625 -0.203125q0.109375 0.765625 0.59375 1.171875q0.5 0.40625 1.375 0.40625q0.890625 0 1.3125 -0.359375q0.4375 -0.359375 0.4375 -0.84375q0 -0.4375 -0.375 -0.6875q-0.265625 -0.171875 -1.3125 -0.4375q-1.421875 -0.359375 -1.96875 -0.609375q-0.546875 -0.265625 -0.828125 -0.734375q-0.28125 -0.46875 -0.28125 -1.015625q0 -0.515625 0.21875 -0.9375q0.234375 -0.4375 0.640625 -0.734375q0.296875 -0.21875 0.8125 -0.359375q0.53125 -0.15625 1.125 -0.15625q0.890625 0 1.5625 0.265625q0.671875 0.25 1.0 0.6875q0.328125 0.4375 0.4375 1.171875l-1.25 0.171875q-0.09375 -0.578125 -0.5 -0.90625q-0.40625 -0.34375 -1.15625 -0.34375q-0.890625 0 -1.28125 0.296875q-0.375 0.296875 -0.375 0.6875q0 0.25 0.15625 0.453125q0.15625 0.203125 0.5 0.34375q0.1875 0.078125 1.140625 0.328125q1.359375 0.359375 1.890625 0.59375q0.546875 0.234375 0.859375 0.6875q0.3125 0.4375 0.3125 1.09375q0 0.640625 -0.375 1.21875q-0.375 0.5625 -1.09375 0.875q-0.703125 0.3125 -1.59375 0.3125q-1.484375 0 -2.265625 -0.609375q-0.765625 -0.625 -0.984375 -1.828125z" fill-rule="nonzero"/></g></svg>