<svg version="1.1" viewBox="0.0 0.0 681.3018372703413 265.04199475065616" fill="none" stroke="none" stroke-linecap="square" stroke-miterlimit="10" xmlns:xlink="http://www.w3.org/1999/xlink" xmlns="http://www.w3.org/2000/svg"><clipPath id="p.0"><path d="m0 0l681.3018 0l0 265.042l-681.3018 0l0 -265.042z" clip-rule="nonzero"/></clipPath><g clip-path="url(#p.0)"><path fill="#000000" fill-opacity="0.0" d="m0 0l681.3018 0l0 265.042l-681.3018 0z" fill-rule="evenodd"/><g filter="url(#shadowFilter-p.1)"><use xlink:href="#p.1" transform="matrix(1.0 0.0 0.0 1.0 0.0 2.0)"/></g><defs><filter id="shadowFilter-p.1" filterUnits="userSpaceOnUse"><feGaussianBlur in="SourceAlpha" stdDeviation="2.0" result="blur"/><feComponentTransfer in="blur" color-interpolation-filters="sRGB"><feFuncR type="linear" slope="0" intercept="0.0"/><feFuncG type="linear" slope="0" intercept="0.0"/><feFuncB type="linear" slope="0" intercept="0.0"/><feFuncA type="linear" slope="0.5" intercept="0"/></feComponentTransfer></filter></defs><g id="p.1"><path fill="#e0e0e0" d="m76.7408 33.1168l0 0c0 -14.768181 11.725204 -26.740158 26.18898 -26.740158l0 0c6.9457474 0 13.6070175 2.8172588 18.518402 7.832011c4.9113846 5.0147524 7.670578 11.816216 7.670578 18.908146l0 0c0 14.768181 -11.725204 26.740158 -26.18898 26.740158l0 0c-14.463776 0 -26.18898 -11.971977 -26.18898 -26.740158z" fill-rule="evenodd"/><path stroke="#9e9e9e" stroke-width="1.0" stroke-linejoin="round" stroke-linecap="butt" d="m76.7408 33.1168l0 0c0 -14.768181 11.725204 -26.740158 26.18898 -26.740158l0 0c6.9457474 0 13.6070175 2.8172588 18.518402 7.832011c4.9113846 5.0147524 7.670578 11.816216 7.670578 18.908146l0 0c0 14.768181 -11.725204 26.740158 -26.18898 26.740158l0 0c-14.463776 0 -26.18898 -11.971977 -26.18898 -26.740158z" fill-rule="evenodd"/><path fill="#37474f" d="m94.19263 33.443047q0 -2.359377 0.484375 -3.796877q0.484375 -1.453125 1.4375 -2.234375q0.96875 -0.78125 2.421875 -0.78125q1.078125 0 1.890625 0.4375q0.8125 0.421875 1.328125 1.25q0.53125 0.8125 0.828125 1.984375q0.3125 1.15625 0.3125 3.140627q0 2.359375 -0.484375 3.8125q-0.484375 1.4375 -1.453125 2.234375q-0.953125 0.78125 -2.421875 0.78125q-1.921875 0 -3.03125 -1.390625q-1.3125 -1.671875 -1.3125 -5.4375zm1.671875 0q0 3.296875 0.765625 4.390625q0.78125 1.078125 1.90625 1.078125q1.140625 0 1.90625 -1.09375q0.765625 -1.09375 0.765625 -4.375q0 -3.296877 -0.765625 -4.375002q-0.765625 -1.078125 -1.921875 -1.078125q-1.125 0 -1.796875 0.953125q-0.859375 1.21875 -0.859375 4.500002z" fill-rule="nonzero"/></g><g filter="url(#shadowFilter-p.2)"><use xlink:href="#p.2" transform="matrix(1.0 0.0 0.0 1.0 0.0 2.0)"/></g><defs><filter id="shadowFilter-p.2" filterUnits="userSpaceOnUse"><feGaussianBlur in="SourceAlpha" stdDeviation="2.0" result="blur"/><feComponentTransfer in="blur" color-interpolation-filters="sRGB"><feFuncR type="linear" slope="0" intercept="0.0"/><feFuncG type="linear" slope="0" intercept="0.0"/><feFuncB type="linear" slope="0" intercept="0.0"/><feFuncA type="linear" slope="0.5" intercept="0"/></feComponentTransfer></filter></defs><g id="p.2"><path fill="#000000" fill-opacity="0.0" d="m31.822302 122.79228l52.598427 -70.77165" fill-rule="evenodd"/><path stroke="#9e9e9e" stroke-width="1.0" stroke-linejoin="round" stroke-linecap="butt" d="m31.822302 122.79228l52.598427 -70.77165" fill-rule="evenodd"/></g><g filter="url(#shadowFilter-p.3)"><use xlink:href="#p.3" transform="matrix(1.0 0.0 0.0 1.0 0.0 2.0)"/></g><defs><filter id="shadowFilter-p.3" filterUnits="userSpaceOnUse"><feGaussianBlur in="SourceAlpha" stdDeviation="2.0" result="blur"/><feComponentTransfer in="blur" color-interpolation-filters="sRGB"><feFuncR type="linear" slope="0" intercept="0.0"/><feFuncG type="linear" slope="0" intercept="0.0"/><feFuncB type="linear" slope="0" intercept="0.0"/><feFuncA type="linear" slope="0.5" intercept="0"/></feComponentTransfer></filter></defs><g id="p.3"><path fill="#e0e0e0" d="m5.6333256 149.53244l0 0c0 -14.768173 11.725204 -26.740158 26.188976 -26.740158l0 0c6.9457493 0 13.607016 2.8172607 18.518404 7.832016c4.9113846 5.0147552 7.670574 11.816208 7.670574 18.908142l0 0c0 14.768188 -11.725204 26.740158 -26.188978 26.740158l0 0c-14.463772 0 -26.188976 -11.97197 -26.188976 -26.740158z" fill-rule="evenodd"/><path stroke="#9e9e9e" stroke-width="1.0" stroke-linejoin="round" stroke-linecap="butt" d="m5.6333256 149.53244l0 0c0 -14.768173 11.725204 -26.740158 26.188976 -26.740158l0 0c6.9457493 0 13.607016 2.8172607 18.518404 7.832016c4.9113846 5.0147552 7.670574 11.816208 7.670574 18.908142l0 0c0 14.768188 -11.725204 26.740158 -26.188978 26.740158l0 0c-14.463772 0 -26.188976 -11.97197 -26.188976 -26.740158z" fill-rule="evenodd"/><path fill="#37474f" d="m29.257025 156.45244l-1.640625 0l0 -10.453125q-0.59375 0.5625 -1.5625 1.140625q-0.953125 0.5625 -1.71875 0.84375l0 -1.59375q1.375 -0.640625 2.40625 -1.5625q1.03125 -0.921875 1.453125 -1.78125l1.0625 0l0 13.40625z" fill-rule="nonzero"/></g><g filter="url(#shadowFilter-p.4)"><use xlink:href="#p.4" transform="matrix(1.0 0.0 0.0 1.0 0.0 2.0)"/></g><defs><filter id="shadowFilter-p.4" filterUnits="userSpaceOnUse"><feGaussianBlur in="SourceAlpha" stdDeviation="2.0" result="blur"/><feComponentTransfer in="blur" color-interpolation-filters="sRGB"><feFuncR type="linear" slope="0" intercept="0.0"/><feFuncG type="linear" slope="0" intercept="0.0"/><feFuncB type="linear" slope="0" intercept="0.0"/><feFuncA type="linear" slope="0.5" intercept="0"/></feComponentTransfer></filter></defs><g id="p.4"><path fill="#e0e0e0" d="m143.93294 149.53244l0 0c0 -14.768173 11.725204 -26.740158 26.18898 -26.740158l0 0c6.9457397 0 13.60701 2.8172607 18.518402 7.832016c4.911377 5.0147552 7.6705627 11.816208 7.6705627 18.908142l0 0c0 14.768188 -11.725204 26.740158 -26.188965 26.740158l0 0c-14.463776 0 -26.18898 -11.97197 -26.18898 -26.740158z" fill-rule="evenodd"/><path stroke="#9e9e9e" stroke-width="1.0" stroke-linejoin="round" stroke-linecap="butt" d="m143.93294 149.53244l0 0c0 -14.768173 11.725204 -26.740158 26.18898 -26.740158l0 0c6.9457397 0 13.60701 2.8172607 18.518402 7.832016c4.911377 5.0147552 7.6705627 11.816208 7.6705627 18.908142l0 0c0 14.768188 -11.725204 26.740158 -26.188965 26.740158l0 0c-14.463776 0 -26.18898 -11.97197 -26.18898 -26.740158z" fill-rule="evenodd"/><path fill="#37474f" d="m169.99414 154.87431l0 1.578125l-8.828125 0q-0.015625 -0.59375 0.1875 -1.140625q0.34375 -0.90625 1.078125 -1.78125q0.75 -0.875 2.15625 -2.015625q2.171875 -1.78125 2.9375 -2.828125q0.765625 -1.046875 0.765625 -1.96875q0 -0.984375 -0.703125 -1.640625q-0.6875 -0.671875 -1.8125 -0.671875q-1.1875 0 -1.90625 0.71875q-0.703125 0.703125 -0.703125 1.953125l-1.6875 -0.171875q0.171875 -1.890625 1.296875 -2.875q1.140625 -0.984375 3.03125 -0.984375q1.921875 0 3.046875 1.0625q1.125 1.0625 1.125 2.640625q0 0.796875 -0.328125 1.578125q-0.328125 0.78125 -1.09375 1.640625q-0.75 0.84375 -2.53125 2.34375q-1.46875 1.234375 -1.890625 1.6875q-0.421875 0.4375 -0.6875 0.875l6.546875 0z" fill-rule="nonzero"/></g><g filter="url(#shadowFilter-p.5)"><use xlink:href="#p.5" transform="matrix(1.0 0.0 0.0 1.0 0.0 2.0)"/></g><defs><filter id="shadowFilter-p.5" filterUnits="userSpaceOnUse"><feGaussianBlur in="SourceAlpha" stdDeviation="2.0" result="blur"/><feComponentTransfer in="blur" color-interpolation-filters="sRGB"><feFuncR type="linear" slope="0" intercept="0.0"/><feFuncG type="linear" slope="0" intercept="0.0"/><feFuncB type="linear" slope="0" intercept="0.0"/><feFuncA type="linear" slope="0.5" intercept="0"/></feComponentTransfer></filter></defs><g id="p.5"><path fill="#000000" fill-opacity="0.0" d="m121.44818 52.024944l48.661423 70.77165" fill-rule="evenodd"/><path stroke="#9e9e9e" stroke-width="1.0" stroke-linejoin="round" stroke-linecap="butt" d="m121.44818 52.024944l48.661423 70.77165" fill-rule="evenodd"/></g><g filter="url(#shadowFilter-p.6)"><use xlink:href="#p.6" transform="matrix(1.0 0.0 0.0 1.0 0.0 2.0)"/></g><defs><filter id="shadowFilter-p.6" filterUnits="userSpaceOnUse"><feGaussianBlur in="SourceAlpha" stdDeviation="2.0" result="blur"/><feComponentTransfer in="blur" color-interpolation-filters="sRGB"><feFuncR type="linear" slope="0" intercept="0.0"/><feFuncG type="linear" slope="0" intercept="0.0"/><feFuncB type="linear" slope="0" intercept="0.0"/><feFuncA type="linear" slope="0.5" intercept="0"/></feComponentTransfer></filter></defs><g id="p.6"><path fill="#000000" fill-opacity="0.0" d="m143.93294 149.53244l-85.921265 0" fill-rule="evenodd"/><path stroke="#9e9e9e" stroke-width="1.0" stroke-linejoin="round" stroke-linecap="butt" d="m143.93294 149.53244l-85.921265 0" fill-rule="evenodd"/></g><g filter="url(#shadowFilter-p.7)"><use xlink:href="#p.7" transform="matrix(1.0 0.0 0.0 1.0 0.0 2.0)"/></g><defs><filter id="shadowFilter-p.7" filterUnits="userSpaceOnUse"><feGaussianBlur in="SourceAlpha" stdDeviation="2.0" result="blur"/><feComponentTransfer in="blur" color-interpolation-filters="sRGB"><feFuncR type="linear" slope="0" intercept="0.0"/><feFuncG type="linear" slope="0" intercept="0.0"/><feFuncB type="linear" slope="0" intercept="0.0"/><feFuncA type="linear" slope="0.5" intercept="0"/></feComponentTransfer></filter></defs><g id="p.7"><path fill="#e0e0e0" d="m323.69357 33.1168l0 0c0 -14.768181 11.725189 -26.740158 26.188965 -26.740158l0 0c6.9457397 0 13.607025 2.8172588 18.518402 7.832011c4.911377 5.0147524 7.6705627 11.816216 7.6705627 18.908146l0 0c0 14.768181 -11.725189 26.740158 -26.188965 26.740158l0 0c-14.463776 0 -26.188965 -11.971977 -26.188965 -26.740158z" fill-rule="evenodd"/><path stroke="#9e9e9e" stroke-width="1.0" stroke-linejoin="round" stroke-linecap="butt" d="m323.69357 33.1168l0 0c0 -14.768181 11.725189 -26.740158 26.188965 -26.740158l0 0c6.9457397 0 13.607025 2.8172588 18.518402 7.832011c4.911377 5.0147524 7.6705627 11.816216 7.6705627 18.908146l0 0c0 14.768181 -11.725189 26.740158 -26.188965 26.740158l0 0c-14.463776 0 -26.188965 -11.971977 -26.188965 -26.740158z" fill-rule="evenodd"/><path fill="#37474f" d="m341.1454 33.443047q0 -2.359377 0.484375 -3.796877q0.484375 -1.453125 1.4375 -2.234375q0.96875 -0.78125 2.421875 -0.78125q1.078125 0 1.890625 0.4375q0.8125 0.421875 1.328125 1.25q0.53125 0.8125 0.828125 1.984375q0.3125 1.15625 0.3125 3.140627q0 2.359375 -0.484375 3.8125q-0.484375 1.4375 -1.453125 2.234375q-0.953125 0.78125 -2.421875 0.78125q-1.921875 0 -3.03125 -1.390625q-1.3125 -1.671875 -1.3125 -5.4375zm1.671875 0q0 3.296875 0.765625 4.390625q0.78125 1.078125 1.90625 1.078125q1.140625 0 1.90625 -1.09375q0.765625 -1.09375 0.765625 -4.375q0 -3.296877 -0.765625 -4.375002q-0.765625 -1.078125 -1.921875 -1.078125q-1.125 0 -1.796875 0.953125q-0.859375 1.21875 -0.859375 4.500002z" fill-rule="nonzero"/></g><g filter="url(#shadowFilter-p.8)"><use xlink:href="#p.8" transform="matrix(1.0 0.0 0.0 1.0 0.0 2.0)"/></g><defs><filter id="shadowFilter-p.8" filterUnits="userSpaceOnUse"><feGaussianBlur in="SourceAlpha" stdDeviation="2.0" result="blur"/><feComponentTransfer in="blur" color-interpolation-filters="sRGB"><feFuncR type="linear" slope="0" intercept="0.0"/><feFuncG type="linear" slope="0" intercept="0.0"/><feFuncB type="linear" slope="0" intercept="0.0"/><feFuncA type="linear" slope="0.5" intercept="0"/></feComponentTransfer></filter></defs><g id="p.8"><path fill="#000000" fill-opacity="0.0" d="m278.77505 122.79228l52.59842 -70.77165" fill-rule="evenodd"/><path stroke="#9e9e9e" stroke-width="1.0" stroke-linejoin="round" stroke-linecap="butt" d="m278.77505 122.79228l52.59842 -70.77165" fill-rule="evenodd"/></g><g filter="url(#shadowFilter-p.9)"><use xlink:href="#p.9" transform="matrix(1.0 0.0 0.0 1.0 0.0 2.0)"/></g><defs><filter id="shadowFilter-p.9" filterUnits="userSpaceOnUse"><feGaussianBlur in="SourceAlpha" stdDeviation="2.0" result="blur"/><feComponentTransfer in="blur" color-interpolation-filters="sRGB"><feFuncR type="linear" slope="0" intercept="0.0"/><feFuncG type="linear" slope="0" intercept="0.0"/><feFuncB type="linear" slope="0" intercept="0.0"/><feFuncA type="linear" slope="0.5" intercept="0"/></feComponentTransfer></filter></defs><g id="p.9"><path fill="#e0e0e0" d="m252.58607 149.53244l0 0c0 -14.768173 11.725204 -26.740158 26.18898 -26.740158l0 0c6.9457397 0 13.607025 2.8172607 18.518402 7.832016c4.911377 5.0147552 7.6705627 11.816208 7.6705627 18.908142l0 0c0 14.768188 -11.725189 26.740158 -26.188965 26.740158l0 0c-14.463776 0 -26.18898 -11.97197 -26.18898 -26.740158z" fill-rule="evenodd"/><path stroke="#9e9e9e" stroke-width="1.0" stroke-linejoin="round" stroke-linecap="butt" d="m252.58607 149.53244l0 0c0 -14.768173 11.725204 -26.740158 26.18898 -26.740158l0 0c6.9457397 0 13.607025 2.8172607 18.518402 7.832016c4.911377 5.0147552 7.6705627 11.816208 7.6705627 18.908142l0 0c0 14.768188 -11.725189 26.740158 -26.188965 26.740158l0 0c-14.463776 0 -26.18898 -11.97197 -26.18898 -26.740158z" fill-rule="evenodd"/><path fill="#37474f" d="m276.20978 156.45244l-1.640625 0l0 -10.453125q-0.59375 0.5625 -1.5625 1.140625q-0.953125 0.5625 -1.71875 0.84375l0 -1.59375q1.375 -0.640625 2.40625 -1.5625q1.03125 -0.921875 1.453125 -1.78125l1.0625 0l0 13.40625z" fill-rule="nonzero"/></g><g filter="url(#shadowFilter-p.10)"><use xlink:href="#p.10" transform="matrix(1.0 0.0 0.0 1.0 0.0 2.0)"/></g><defs><filter id="shadowFilter-p.10" filterUnits="userSpaceOnUse"><feGaussianBlur in="SourceAlpha" stdDeviation="2.0" result="blur"/><feComponentTransfer in="blur" color-interpolation-filters="sRGB"><feFuncR type="linear" slope="0" intercept="0.0"/><feFuncG type="linear" slope="0" intercept="0.0"/><feFuncB type="linear" slope="0" intercept="0.0"/><feFuncA type="linear" slope="0.5" intercept="0"/></feComponentTransfer></filter></defs><g id="p.10"><path fill="#e0e0e0" d="m390.88568 149.53244l0 0c0 -14.768173 11.72522 -26.740158 26.188995 -26.740158l0 0c6.9457397 0 13.606995 2.8172607 18.518402 7.832016c4.911377 5.0147552 7.6705627 11.816208 7.6705627 18.908142l0 0c0 14.768188 -11.725189 26.740158 -26.188965 26.740158l0 0c-14.463776 0 -26.188995 -11.97197 -26.188995 -26.740158z" fill-rule="evenodd"/><path stroke="#9e9e9e" stroke-width="1.0" stroke-linejoin="round" stroke-linecap="butt" d="m390.88568 149.53244l0 0c0 -14.768173 11.72522 -26.740158 26.188995 -26.740158l0 0c6.9457397 0 13.606995 2.8172607 18.518402 7.832016c4.911377 5.0147552 7.6705627 11.816208 7.6705627 18.908142l0 0c0 14.768188 -11.725189 26.740158 -26.188965 26.740158l0 0c-14.463776 0 -26.188995 -11.97197 -26.188995 -26.740158z" fill-rule="evenodd"/><path fill="#37474f" d="m416.9469 154.87431l0 1.578125l-8.828125 0q-0.015625 -0.59375 0.1875 -1.140625q0.34375 -0.90625 1.078125 -1.78125q0.75 -0.875 2.15625 -2.015625q2.171875 -1.78125 2.9375 -2.828125q0.765625 -1.046875 0.765625 -1.96875q0 -0.984375 -0.703125 -1.640625q-0.6875 -0.671875 -1.8125 -0.671875q-1.1875 0 -1.90625 0.71875q-0.703125 0.703125 -0.703125 1.953125l-1.6875 -0.171875q0.171875 -1.890625 1.296875 -2.875q1.140625 -0.984375 3.03125 -0.984375q1.921875 0 3.046875 1.0625q1.125 1.0625 1.125 2.640625q0 0.796875 -0.328125 1.578125q-0.328125 0.78125 -1.09375 1.640625q-0.75 0.84375 -2.53125 2.34375q-1.46875 1.234375 -1.890625 1.6875q-0.421875 0.4375 -0.6875 0.875l6.546875 0z" fill-rule="nonzero"/></g><g filter="url(#shadowFilter-p.11)"><use xlink:href="#p.11" transform="matrix(1.0 0.0 0.0 1.0 0.0 2.0)"/></g><defs><filter id="shadowFilter-p.11" filterUnits="userSpaceOnUse"><feGaussianBlur in="SourceAlpha" stdDeviation="2.0" result="blur"/><feComponentTransfer in="blur" color-interpolation-filters="sRGB"><feFuncR type="linear" slope="0" intercept="0.0"/><feFuncG type="linear" slope="0" intercept="0.0"/><feFuncB type="linear" slope="0" intercept="0.0"/><feFuncA type="linear" slope="0.5" intercept="0"/></feComponentTransfer></filter></defs><g id="p.11"><path fill="#000000" fill-opacity="0.0" d="m368.40094 52.024944l48.661407 70.77165" fill-rule="evenodd"/><path stroke="#9e9e9e" stroke-width="1.0" stroke-linejoin="round" stroke-linecap="butt" d="m368.40094 52.024944l48.661407 70.77165" fill-rule="evenodd"/></g><g filter="url(#shadowFilter-p.12)"><use xlink:href="#p.12" transform="matrix(1.0 0.0 0.0 1.0 0.0 2.0)"/></g><defs><filter id="shadowFilter-p.12" filterUnits="userSpaceOnUse"><feGaussianBlur in="SourceAlpha" stdDeviation="2.0" result="blur"/><feComponentTransfer in="blur" color-interpolation-filters="sRGB"><feFuncR type="linear" slope="0" intercept="0.0"/><feFuncG type="linear" slope="0" intercept="0.0"/><feFuncB type="linear" slope="0" intercept="0.0"/><feFuncA type="linear" slope="0.5" intercept="0"/></feComponentTransfer></filter></defs><g id="p.12"><path fill="#000000" fill-opacity="0.0" d="m390.88568 149.53244l-85.921234 0" fill-rule="evenodd"/><path stroke="#9e9e9e" stroke-width="1.0" stroke-linejoin="round" stroke-linecap="butt" d="m390.88568 149.53244l-85.921234 0" fill-rule="evenodd"/></g><path fill="#000000" fill-opacity="0.0" d="m50.1063 194.03543l101.73228 0l0 64.62991l-101.73228 0z" fill-rule="evenodd"/><path fill="#000000" d="m70.3645 208.17418l3.3125 0q2.171875 0 3.859375 0.84375q1.890625 0.96875 2.609375 2.828125q0.421875 1.03125 0.421875 2.296875q0 3.0 -1.859375 4.90625q-1.84375 1.90625 -5.34375 1.90625l-3.0 0q-1.46875 0 -2.640625 0.0625l-0.046875 -0.546875q0.953125 -0.1875 1.28125 -0.328125q0.34375 -0.15625 0.375 -0.46875q0.140625 -1.109375 0.140625 -4.0q0 -4.6875 -0.109375 -5.84375l-0.03125 -0.375q-0.03125 -0.328125 -0.34375 -0.46875q-0.296875 -0.140625 -1.1875 -0.328125l0.0625 -0.53125q1.171875 0.046875 2.5 0.046875zm1.0 11.65625q1.015625 0.234375 2.140625 0.234375q1.140625 0 2.171875 -0.453125q1.03125 -0.46875 1.5625 -1.09375q0.546875 -0.625 0.859375 -1.484375q0.5 -1.265625 0.5 -2.609375q0 -5.46875 -6.078125 -5.46875q-0.671875 0 -0.890625 0.078125q-0.203125 0.078125 -0.265625 0.3125q-0.203125 1.21875 -0.203125 4.109375q0 4.5 0.140625 5.953125l0.0625 0.421875zm13.393539 -9.65625q-0.28125 0.28125 -0.6875 0.28125q-0.40625 0 -0.6875 -0.28125q-0.28125 -0.296875 -0.28125 -0.71875q0 -0.421875 0.28125 -0.703125q0.28125 -0.28125 0.6875 -0.28125q0.40625 0 0.6875 0.28125q0.28125 0.28125 0.28125 0.703125q0 0.421875 -0.28125 0.71875zm0.078125 2.390625l-0.03125 4.125q0 2.40625 0.140625 3.125l0.03125 0.25q0.03125 0.125 0.484375 0.25q0.453125 0.125 0.84375 0.15625l-0.046875 0.546875q-0.90625 -0.0625 -2.1875 -0.0625q-1.28125 0 -2.1875 0.0625l0.0625 -0.546875q0.390625 -0.03125 0.828125 -0.15625q0.453125 -0.125 0.46875 -0.25q0.15625 -0.65625 0.15625 -2.609375q0 -3.171875 -0.15625 -3.890625l-1.1875 -0.359375l-0.03125 -0.484375q1.1875 0 2.453125 -0.328125l0.359375 0.171875zm7.7242126 -0.296875q0.140625 0 0.484375 0.4375q0.359375 0.4375 0.46875 0.859375l-0.28125 0.359375q-0.671875 -0.265625 -1.40625 -0.265625q-0.71875 0 -1.328125 0.609375q-0.59375 0.609375 -0.59375 1.953125q0.03125 3.28125 0.171875 3.8125q0.015625 0.15625 0.53125 0.28125q0.515625 0.125 1.078125 0.15625l-0.0625 0.546875q-0.890625 -0.0625 -2.265625 -0.0625q-1.375 0 -2.265625 0.0625l0.0625 -0.546875q0.375 -0.03125 0.78125 -0.15625q0.40625 -0.125 0.421875 -0.25q0.15625 -0.65625 0.15625 -2.609375q0 -3.171875 -0.15625 -3.890625l-1.1875 -0.359375l-0.046875 -0.484375q1.203125 0 2.46875 -0.328125l0.359375 0.171875q-0.046875 0.28125 -0.046875 1.53125q0.546875 -0.90625 1.375 -1.359375q0.828125 -0.46875 1.28125 -0.46875zm6.926117 2.71875q0 -0.859375 -0.5 -1.28125q-0.484375 -0.421875 -1.078125 -0.421875q-0.875 0 -1.515625 0.703125q-0.625 0.6875 -0.828125 1.6875l3.859375 -0.140625q0.0625 -0.28125 0.0625 -0.546875zm-1.625 6.140625q-1.984375 0 -3.0 -1.125q-1.0 -1.140625 -1.0 -3.015625q0 -1.875 1.109375 -3.234375q1.109375 -1.375 3.359375 -1.375q1.125 0 1.96875 0.796875q0.859375 0.796875 0.859375 2.390625l-0.640625 0.765625q-0.109375 -0.015625 -1.765625 -0.015625q-1.640625 0 -3.296875 0.125l0 0.171875q0 1.6875 0.703125 2.546875q0.703125 0.84375 1.9375 0.84375q1.234375 0 2.59375 -0.59375l0.234375 0.5625q-1.4375 1.15625 -3.0625 1.15625zm11.735092 -1.234375q-1.546875 1.234375 -3.375 1.234375q-1.828125 0 -2.828125 -1.15625q-0.984375 -1.15625 -0.984375 -3.015625q0 -1.859375 1.140625 -3.21875q1.15625 -1.359375 3.203125 -1.359375q0.84375 0 1.5 0.265625q0.671875 0.265625 0.953125 0.546875q0.28125 0.28125 0.28125 0.453125q0 0.75 -0.453125 1.359375l-0.453125 0q-0.21875 -0.609375 -0.75 -1.109375q-0.53125 -0.515625 -1.375 -0.515625q-1.15625 0 -1.78125 1.046875q-0.625 1.03125 -0.625 2.53125q0 1.5 0.71875 2.28125q0.734375 0.78125 2.03125 0.78125q1.3125 0 2.5625 -0.734375l0.234375 0.609375zm4.0459747 1.234375q-1.9375 0 -1.9375 -1.875q0.015625 -1.640625 0.015625 -3.0q0 -1.375 -0.046875 -2.875l-1.1875 0.015625l-0.0625 -0.203125l0.4375 -0.71875q0.265625 0.046875 0.78125 0.078125l-0.078125 -1.71875l1.234375 -1.109375l0.359375 0.171875q-0.046875 1.375 -0.046875 2.625l2.75 -0.015625l0.09375 0.21875l-0.671875 0.75q-0.640625 -0.078125 -2.171875 -0.09375l0 2.5q0 2.328125 0.0625 3.34375q0.0625 0.84375 0.984375 0.84375q0.75 0 1.640625 -0.4375l0.234375 0.625q-1.328125 0.875 -2.390625 0.875zm8.772476 -6.140625q0 -0.859375 -0.5 -1.28125q-0.484375 -0.421875 -1.078125 -0.421875q-0.875 0 -1.515625 0.703125q-0.625 0.6875 -0.828125 1.6875l3.859375 -0.140625q0.0625 -0.28125 0.0625 -0.546875zm-1.625 6.140625q-1.984375 0 -3.0 -1.125q-1.0 -1.140625 -1.0 -3.015625q0 -1.875 1.109375 -3.234375q1.109375 -1.375 3.359375 -1.375q1.125 0 1.96875 0.796875q0.859375 0.796875 0.859375 2.390625l-0.640625 0.765625q-0.109375 -0.015625 -1.765625 -0.015625q-1.640625 0 -3.296875 0.125l0 0.171875q0 1.6875 0.703125 2.546875q0.703125 0.84375 1.9375 0.84375q1.234375 0 2.59375 -0.59375l0.234375 0.5625q-1.4375 1.15625 -3.0625 1.15625zm10.906967 -1.21875q-1.28125 1.21875 -2.8125 1.21875q-1.53125 0 -2.515625 -1.109375q-0.96875 -1.109375 -0.96875 -3.171875q0 -2.0625 1.15625 -3.265625q1.171875 -1.21875 2.890625 -1.21875q0.921875 0 2.234375 0.640625q0 -3.453125 -0.109375 -4.234375l-0.046875 -0.25l-1.1875 -0.359375l-0.03125 -0.484375q1.1875 0 2.453125 -0.34375l0.359375 0.171875q-0.046875 2.328125 -0.046875 6.609375q0 4.265625 0.03125 4.890625q0.046875 0.609375 0.171875 0.765625q0.125 0.15625 0.359375 0.234375q0.390625 0.109375 0.921875 0.15625l-0.0625 0.53125q-0.671875 0.0625 -2.03125 0.34375q-0.5625 -0.25 -0.765625 -1.125zm-1.765625 -6.421875q-1.484375 0 -2.1875 0.96875q-0.6875 0.953125 -0.6875 2.375q0 1.421875 0.609375 2.28125q0.625 0.84375 1.75 0.84375q1.140625 0 2.171875 -0.65625q0.09375 -1.5 0.09375 -5.46875q-0.96875 -0.34375 -1.75 -0.34375z" fill-rule="nonzero"/><path fill="#000000" d="m83.40824 242.66792q2.046875 0 3.3125 -0.671875l-0.125 -3.03125q-0.03125 -0.328125 -0.328125 -0.46875q-0.296875 -0.140625 -1.203125 -0.328125l0.0625 -0.546875q1.171875 0.0625 2.203125 0.0625q1.046875 0 2.21875 -0.0625l0.046875 0.546875q-0.28125 0.0625 -0.453125 0.125q-0.171875 0.046875 -0.296875 0.078125q-0.109375 0.015625 -0.171875 0.109375q-0.046875 0.09375 -0.0625 0.125q-0.03125 0.078125 -0.03125 0.359375l-0.140625 3.359375q-2.9375 1.25 -5.09375 1.25q-3.046875 0 -4.84375 -1.65625q-1.796875 -1.671875 -1.796875 -4.796875q0 -1.828125 0.765625 -3.328125q0.78125 -1.5 2.375 -2.4375q1.609375 -0.953125 3.765625 -0.953125q0.890625 0 1.984375 0.140625q1.109375 0.140625 1.515625 0.140625q0.421875 0 0.890625 -0.109375l0 0.28125q0 1.359375 0.21875 2.625l-0.515625 0.234375q-0.8125 -2.453125 -4.171875 -2.453125q-2.046875 0 -3.453125 1.421875q-1.40625 1.421875 -1.40625 4.125q0 2.28125 1.0625 3.953125q0.53125 0.859375 1.484375 1.390625q0.953125 0.515625 2.1875 0.515625zm12.51947 -8.0q0.140625 0 0.484375 0.4375q0.359375 0.4375 0.46875 0.859375l-0.28125 0.359375q-0.671875 -0.265625 -1.40625 -0.265625q-0.71875 0 -1.328125 0.609375q-0.59375 0.609375 -0.59375 1.953125q0.03125 3.28125 0.171875 3.8125q0.015625 0.15625 0.53125 0.28125q0.515625 0.125 1.078125 0.15625l-0.0625 0.546875q-0.890625 -0.0625 -2.265625 -0.0625q-1.375 0 -2.265625 0.0625l0.0625 -0.546875q0.375 -0.03125 0.78125 -0.15625q0.40625 -0.125 0.421875 -0.25q0.15625 -0.65625 0.15625 -2.609375q0 -3.171875 -0.15625 -3.890625l-1.1875 -0.359375l-0.046875 -0.484375q1.203125 0 2.46875 -0.328125l0.359375 0.171875q-0.046875 0.28125 -0.046875 1.53125q0.546875 -0.90625 1.375 -1.359375q0.828125 -0.46875 1.28125 -0.46875zm6.5021515 4.765625q-1.515625 0.046875 -2.328125 0.59375q-0.796875 0.53125 -0.796875 1.171875q0 0.625 0.328125 0.921875q0.328125 0.28125 1.046875 0.28125q0.734375 0 1.75 -0.609375l0 -2.359375zm1.375 4.09375q-1.125 0 -1.3125 -1.21875q-1.640625 1.21875 -2.828125 1.21875q-0.8125 0 -1.375 -0.5q-0.546875 -0.5 -0.546875 -1.53125q0 -1.046875 1.109375 -1.890625q1.109375 -0.84375 3.578125 -1.0l0 -1.75q0 -0.515625 -0.375 -0.796875q-0.375 -0.28125 -1.078125 -0.28125q-0.6875 0 -1.09375 0.390625q-0.40625 0.375 -0.40625 0.96875q0 0.234375 0.046875 0.515625l-0.40625 0.1875q-0.375 -0.21875 -0.703125 -0.5625q-0.328125 -0.359375 -0.328125 -0.515625q0 -0.15625 0.25 -0.46875q0.25 -0.3125 0.671875 -0.65625q0.4375 -0.359375 1.15625 -0.609375q0.71875 -0.25 1.609375 -0.25q0.90625 0 1.46875 0.4375q0.5625 0.4375 0.5625 1.59375q0 1.140625 0.109375 4.828125q0.015625 0.890625 0.671875 0.890625q0.28125 0 0.578125 -0.140625l0.1875 0.484375q-0.71875 0.65625 -1.546875 0.65625zm6.5102844 -1.0q1.484375 0 2.234375 -0.984375q0.75 -1.0 0.75 -2.375q0 -1.390625 -0.65625 -2.296875q-0.640625 -0.921875 -1.921875 -0.921875q-0.5 0 -1.15625 0.1875q-0.65625 0.1875 -0.96875 0.390625l0 5.6875q0.890625 0.3125 1.71875 0.3125zm-0.359375 5.734375q-0.890625 -0.0625 -2.171875 -0.0625q-1.265625 0 -2.15625 0.0625l0.0625 -0.546875q1.25 -0.109375 1.28125 -0.34375q0.21875 -1.0625 0.21875 -4.53125q0 -5.609375 -0.109375 -6.5625l-0.03125 -0.3125l-1.203125 -0.359375l-0.03125 -0.484375q1.171875 0 2.4375 -0.328125l0.359375 0.171875l0 0.90625q1.453125 -1.09375 2.96875 -1.09375q1.515625 0 2.4375 1.015625q0.9375 1.0 0.9375 3.15625q0 2.15625 -1.171875 3.375q-1.171875 1.203125 -2.875 1.203125q-1.234375 0 -2.3125 -0.59375q0.015625 4.171875 0.109375 4.4375q0.03125 0.234375 1.3125 0.34375l-0.0625 0.546875zm10.201935 -4.84375q-0.890625 -0.0625 -2.046875 -0.0625q-1.15625 0 -2.0625 0.0625l0.0625 -0.546875q0.359375 -0.03125 0.75 -0.15625q0.40625 -0.125 0.421875 -0.25q0.140625 -1.21875 0.140625 -4.671875q0 -5.609375 -0.125 -6.5625l-0.03125 -0.3125l-1.1875 -0.359375l-0.046875 -0.484375q1.203125 0 2.46875 -0.34375l0.359375 0.171875q-0.046875 2.1875 -0.046875 5.953125q2.078125 -1.078125 3.734375 -1.078125q0.9375 0 1.421875 0.375q0.484375 0.375 0.484375 1.390625l0 2.546875q0 2.40625 0.140625 3.125l0.046875 0.25q0.015625 0.125 0.40625 0.25q0.40625 0.125 0.78125 0.15625l-0.046875 0.546875q-0.90625 -0.0625 -2.0625 -0.0625q-1.15625 0 -2.046875 0.0625l0.046875 -0.546875q0.359375 -0.03125 0.75 -0.15625q0.40625 -0.125 0.4375 -0.25q0.140625 -0.65625 0.140625 -3.375l0 -1.8125q0 -0.734375 -0.4375 -1.015625q-0.421875 -0.28125 -1.015625 -0.28125q-0.59375 0 -0.96875 0.046875q-0.359375 0.046875 -0.65625 0.125q-0.75 0.203125 -0.96875 0.296875l-0.1875 0.0625q0 5.53125 0.203125 5.953125q0.03125 0.125 0.421875 0.25q0.40625 0.125 0.78125 0.15625l-0.0625 0.546875z" fill-rule="nonzero"/><g filter="url(#shadowFilter-p.13)"><use xlink:href="#p.13" transform="matrix(1.0 0.0 0.0 1.0 0.0 2.0)"/></g><defs><filter id="shadowFilter-p.13" filterUnits="userSpaceOnUse"><feGaussianBlur in="SourceAlpha" stdDeviation="2.0" result="blur"/><feComponentTransfer in="blur" color-interpolation-filters="sRGB"><feFuncR type="linear" slope="0" intercept="0.0"/><feFuncG type="linear" slope="0" intercept="0.0"/><feFuncB type="linear" slope="0" intercept="0.0"/><feFuncA type="linear" slope="0.5" intercept="0"/></feComponentTransfer></filter></defs><g id="p.13"><path fill="#000000" fill-opacity="0.0" d="m31.816889 122.7966l52.598427 -70.77165" fill-rule="evenodd"/><path stroke="#00ff00" stroke-width="3.0" stroke-linejoin="round" stroke-linecap="butt" d="m31.816889 122.7966l41.861275 -56.32473" fill-rule="evenodd"/><path fill="#00ff00" stroke="#00ff00" stroke-width="3.0" stroke-linecap="butt" d="m77.65524 69.42769l4.143959 -13.882744l-12.098114 7.9711113z" fill-rule="evenodd"/></g><g filter="url(#shadowFilter-p.14)"><use xlink:href="#p.14" transform="matrix(1.0 0.0 0.0 1.0 0.0 2.0)"/></g><defs><filter id="shadowFilter-p.14" filterUnits="userSpaceOnUse"><feGaussianBlur in="SourceAlpha" stdDeviation="2.0" result="blur"/><feComponentTransfer in="blur" color-interpolation-filters="sRGB"><feFuncR type="linear" slope="0" intercept="0.0"/><feFuncG type="linear" slope="0" intercept="0.0"/><feFuncB type="linear" slope="0" intercept="0.0"/><feFuncA type="linear" slope="0.5" intercept="0"/></feComponentTransfer></filter></defs><g id="p.14"><path fill="#000000" fill-opacity="0.0" d="m121.46443 52.020634l48.661423 70.77165" fill-rule="evenodd"/><path stroke="#00ff00" stroke-width="3.0" stroke-linejoin="round" stroke-linecap="butt" d="m121.46443 52.020634l38.46306 55.939472" fill-rule="evenodd"/><path fill="#00ff00" stroke="#00ff00" stroke-width="3.0" stroke-linecap="butt" d="m155.84436 110.7676l11.796661 8.410812l-3.6304016 -14.025803z" fill-rule="evenodd"/></g><g filter="url(#shadowFilter-p.15)"><use xlink:href="#p.15" transform="matrix(1.0 0.0 0.0 1.0 0.0 2.0)"/></g><defs><filter id="shadowFilter-p.15" filterUnits="userSpaceOnUse"><feGaussianBlur in="SourceAlpha" stdDeviation="2.0" result="blur"/><feComponentTransfer in="blur" color-interpolation-filters="sRGB"><feFuncR type="linear" slope="0" intercept="0.0"/><feFuncG type="linear" slope="0" intercept="0.0"/><feFuncB type="linear" slope="0" intercept="0.0"/><feFuncA type="linear" slope="0.5" intercept="0"/></feComponentTransfer></filter></defs><g id="p.15"><path fill="#000000" fill-opacity="0.0" d="m143.93648 149.53244l-85.921265 0" fill-rule="evenodd"/><path stroke="#00ff00" stroke-width="3.0" stroke-linejoin="round" stroke-linecap="butt" d="m143.93648 149.53244l-67.921265 0" fill-rule="evenodd"/><path fill="#00ff00" stroke="#00ff00" stroke-width="3.0" stroke-linecap="butt" d="m76.01521 144.57724l-13.614292 4.9552l13.614292 4.9552z" fill-rule="evenodd"/></g><path fill="#000000" fill-opacity="0.0" d="m272.17453 194.03543l151.49606 0l0 64.62991l-151.49606 0z" fill-rule="evenodd"/><path fill="#000000" d="m286.51315 208.17418l3.3125 0q2.171875 0 3.859375 0.84375q1.890625 0.96875 2.609375 2.828125q0.421875 1.03125 0.421875 2.296875q0 3.0 -1.859375 4.90625q-1.84375 1.90625 -5.34375 1.90625l-3.0 0q-1.46875 0 -2.640625 0.0625l-0.046875 -0.546875q0.953125 -0.1875 1.28125 -0.328125q0.34375 -0.15625 0.375 -0.46875q0.140625 -1.109375 0.140625 -4.0q0 -4.6875 -0.109375 -5.84375l-0.03125 -0.375q-0.03125 -0.328125 -0.34375 -0.46875q-0.296875 -0.140625 -1.1875 -0.328125l0.0625 -0.53125q1.171875 0.046875 2.5 0.046875zm1.0 11.65625q1.015625 0.234375 2.140625 0.234375q1.140625 0 2.171875 -0.453125q1.03125 -0.46875 1.5625 -1.09375q0.546875 -0.625 0.859375 -1.484375q0.5 -1.265625 0.5 -2.609375q0 -5.46875 -6.078125 -5.46875q-0.671875 0 -0.890625 0.078125q-0.203125 0.078125 -0.265625 0.3125q-0.203125 1.21875 -0.203125 4.109375q0 4.5 0.140625 5.953125l0.0625 0.421875zm13.393555 -9.65625q-0.28125 0.28125 -0.6875 0.28125q-0.40625 0 -0.6875 -0.28125q-0.28125 -0.296875 -0.28125 -0.71875q0 -0.421875 0.28125 -0.703125q0.28125 -0.28125 0.6875 -0.28125q0.40625 0 0.6875 0.28125q0.28125 0.28125 0.28125 0.703125q0 0.421875 -0.28125 0.71875zm0.078125 2.390625l-0.03125 4.125q0 2.40625 0.140625 3.125l0.03125 0.25q0.03125 0.125 0.484375 0.25q0.453125 0.125 0.84375 0.15625l-0.046875 0.546875q-0.90625 -0.0625 -2.1875 -0.0625q-1.28125 0 -2.1875 0.0625l0.0625 -0.546875q0.390625 -0.03125 0.828125 -0.15625q0.453125 -0.125 0.46875 -0.25q0.15625 -0.65625 0.15625 -2.609375q0 -3.171875 -0.15625 -3.890625l-1.1875 -0.359375l-0.03125 -0.484375q1.1875 0 2.453125 -0.328125l0.359375 0.171875zm7.7242126 -0.296875q0.140625 0 0.484375 0.4375q0.359375 0.4375 0.46875 0.859375l-0.28125 0.359375q-0.671875 -0.265625 -1.40625 -0.265625q-0.71875 0 -1.328125 0.609375q-0.59375 0.609375 -0.59375 1.953125q0.03125 3.28125 0.171875 3.8125q0.015625 0.15625 0.53125 0.28125q0.515625 0.125 1.078125 0.15625l-0.0625 0.546875q-0.890625 -0.0625 -2.265625 -0.0625q-1.375 0 -2.265625 0.0625l0.0625 -0.546875q0.375 -0.03125 0.78125 -0.15625q0.40625 -0.125 0.421875 -0.25q0.15625 -0.65625 0.15625 -2.609375q0 -3.171875 -0.15625 -3.890625l-1.1875 -0.359375l-0.046875 -0.484375q1.203125 0 2.46875 -0.328125l0.359375 0.171875q-0.046875 0.28125 -0.046875 1.53125q0.546875 -0.90625 1.375 -1.359375q0.828125 -0.46875 1.28125 -0.46875zm6.926117 2.71875q0 -0.859375 -0.5 -1.28125q-0.484375 -0.421875 -1.078125 -0.421875q-0.875 0 -1.515625 0.703125q-0.625 0.6875 -0.828125 1.6875l3.859375 -0.140625q0.0625 -0.28125 0.0625 -0.546875zm-1.625 6.140625q-1.984375 0 -3.0 -1.125q-1.0 -1.140625 -1.0 -3.015625q0 -1.875 1.109375 -3.234375q1.109375 -1.375 3.359375 -1.375q1.125 0 1.96875 0.796875q0.859375 0.796875 0.859375 2.390625l-0.640625 0.765625q-0.109375 -0.015625 -1.765625 -0.015625q-1.640625 0 -3.296875 0.125l0 0.171875q0 1.6875 0.703125 2.546875q0.703125 0.84375 1.9375 0.84375q1.234375 0 2.59375 -0.59375l0.234375 0.5625q-1.4375 1.15625 -3.0625 1.15625zm11.735077 -1.234375q-1.546875 1.234375 -3.375 1.234375q-1.828125 0 -2.828125 -1.15625q-0.984375 -1.15625 -0.984375 -3.015625q0 -1.859375 1.140625 -3.21875q1.15625 -1.359375 3.203125 -1.359375q0.84375 0 1.5 0.265625q0.671875 0.265625 0.953125 0.546875q0.28125 0.28125 0.28125 0.453125q0 0.75 -0.453125 1.359375l-0.453125 0q-0.21875 -0.609375 -0.75 -1.109375q-0.53125 -0.515625 -1.375 -0.515625q-1.15625 0 -1.78125 1.046875q-0.625 1.03125 -0.625 2.53125q0 1.5 0.71875 2.28125q0.734375 0.78125 2.03125 0.78125q1.3125 0 2.5625 -0.734375l0.234375 0.609375zm4.04599 1.234375q-1.9375 0 -1.9375 -1.875q0.015625 -1.640625 0.015625 -3.0q0 -1.375 -0.046875 -2.875l-1.1875 0.015625l-0.0625 -0.203125l0.4375 -0.71875q0.265625 0.046875 0.78125 0.078125l-0.078125 -1.71875l1.234375 -1.109375l0.359375 0.171875q-0.046875 1.375 -0.046875 2.625l2.75 -0.015625l0.09375 0.21875l-0.671875 0.75q-0.640625 -0.078125 -2.171875 -0.09375l0 2.5q0 2.328125 0.0625 3.34375q0.0625 0.84375 0.984375 0.84375q0.75 0 1.640625 -0.4375l0.234375 0.625q-1.328125 0.875 -2.390625 0.875zm8.772461 -6.140625q0 -0.859375 -0.5 -1.28125q-0.484375 -0.421875 -1.078125 -0.421875q-0.875 0 -1.515625 0.703125q-0.625 0.6875 -0.828125 1.6875l3.859375 -0.140625q0.0625 -0.28125 0.0625 -0.546875zm-1.625 6.140625q-1.984375 0 -3.0 -1.125q-1.0 -1.140625 -1.0 -3.015625q0 -1.875 1.109375 -3.234375q1.109375 -1.375 3.359375 -1.375q1.125 0 1.96875 0.796875q0.859375 0.796875 0.859375 2.390625l-0.640625 0.765625q-0.109375 -0.015625 -1.765625 -0.015625q-1.640625 0 -3.296875 0.125l0 0.171875q0 1.6875 0.703125 2.546875q0.703125 0.84375 1.9375 0.84375q1.234375 0 2.59375 -0.59375l0.234375 0.5625q-1.4375 1.15625 -3.0625 1.15625zm10.906982 -1.21875q-1.28125 1.21875 -2.8125 1.21875q-1.53125 0 -2.515625 -1.109375q-0.96875 -1.109375 -0.96875 -3.171875q0 -2.0625 1.15625 -3.265625q1.171875 -1.21875 2.890625 -1.21875q0.921875 0 2.234375 0.640625q0 -3.453125 -0.109375 -4.234375l-0.046875 -0.25l-1.1875 -0.359375l-0.03125 -0.484375q1.1875 0 2.453125 -0.34375l0.359375 0.171875q-0.046875 2.328125 -0.046875 6.609375q0 4.265625 0.03125 4.890625q0.046875 0.609375 0.171875 0.765625q0.125 0.15625 0.359375 0.234375q0.390625 0.109375 0.921875 0.15625l-0.0625 0.53125q-0.671875 0.0625 -2.03125 0.34375q-0.5625 -0.25 -0.765625 -1.125zm-1.765625 -6.421875q-1.484375 0 -2.1875 0.96875q-0.6875 0.953125 -0.6875 2.375q0 1.421875 0.609375 2.28125q0.625 0.84375 1.75 0.84375q1.140625 0 2.171875 -0.65625q0.09375 -1.5 0.09375 -5.46875q-0.96875 -0.34375 -1.75 -0.34375zm14.219299 7.53125q-1.1875 -0.0625 -2.3125 -0.0625q-1.125 0 -2.296875 0.0625l-0.0625 -0.546875q0.859375 -0.171875 1.203125 -0.359375q0.359375 -0.203125 0.46875 -0.5625l3.71875 -11.359375l1.625 -0.1875l4.34375 11.671875q0.140625 0.3125 0.4375 0.46875q0.3125 0.15625 1.15625 0.328125l-0.0625 0.546875q-1.171875 -0.0625 -2.5625 -0.0625q-1.375 0 -2.546875 0.0625l-0.0625 -0.546875q1.328125 -0.265625 1.53125 -0.484375q0.109375 -0.09375 0.109375 -0.1875q0 -0.109375 -1.015625 -3.359375l-4.21875 0l-1.015625 3.328125q0 0.234375 0.375 0.390625q0.375 0.140625 1.234375 0.3125l-0.046875 0.546875zm1.484375 -11.0625l-0.078125 0q-0.125 0.4375 -0.328125 1.0625q-0.1875 0.625 -0.578125 1.953125q-0.390625 1.3125 -0.78125 2.609375l3.65625 0l-1.890625 -5.625zm14.650574 9.9375q-1.546875 1.234375 -3.375 1.234375q-1.828125 0 -2.828125 -1.15625q-0.984375 -1.15625 -0.984375 -3.015625q0 -1.859375 1.140625 -3.21875q1.15625 -1.359375 3.203125 -1.359375q0.84375 0 1.5 0.265625q0.671875 0.265625 0.953125 0.546875q0.28125 0.28125 0.28125 0.453125q0 0.75 -0.453125 1.359375l-0.453125 0q-0.21875 -0.609375 -0.75 -1.109375q-0.53125 -0.515625 -1.375 -0.515625q-1.15625 0 -1.78125 1.046875q-0.625 1.03125 -0.625 2.53125q0 1.5 0.71875 2.28125q0.734375 0.78125 2.03125 0.78125q1.3125 0 2.5625 -0.734375l0.234375 0.609375zm4.3584595 -6.90625q-0.5625 0.0625 -0.84375 0.234375q-0.28125 0.15625 -0.28125 0.265625q0 0.09375 1.984375 6.203125q2.046875 -5.859375 2.046875 -6.15625q0 -0.40625 -1.015625 -0.546875l-0.0625 -0.53125q0.640625 0.046875 1.34375 0.046875l1.90625 -0.046875l0.046875 0.53125q-0.9375 0.140625 -1.171875 0.6875q-0.796875 2.5 -2.703125 7.28125q-1.4375 3.640625 -2.734375 4.546875q-0.375 0.265625 -0.578125 0.3125q-0.1875 0.046875 -0.375 0.046875q-0.1875 0 -0.53125 -0.4375q-0.34375 -0.4375 -0.46875 -0.875l0.28125 -0.34375q0.359375 0.171875 0.84375 0.171875q1.34375 0 2.6875 -3.421875l-0.65625 -0.390625q-1.4375 -4.4375 -2.21875 -6.21875l-0.28125 -0.59375q-0.234375 -0.609375 -1.140625 -0.765625l-0.046875 -0.53125q1.28125 0.046875 1.96875 0.046875l1.953125 -0.046875l0.046875 0.53125zm12.89856 6.90625q-1.546875 1.234375 -3.375 1.234375q-1.828125 0 -2.828125 -1.15625q-0.984375 -1.15625 -0.984375 -3.015625q0 -1.859375 1.140625 -3.21875q1.15625 -1.359375 3.203125 -1.359375q0.84375 0 1.5 0.265625q0.671875 0.265625 0.953125 0.546875q0.28125 0.28125 0.28125 0.453125q0 0.75 -0.453125 1.359375l-0.453125 0q-0.21875 -0.609375 -0.75 -1.109375q-0.53125 -0.515625 -1.375 -0.515625q-1.15625 0 -1.78125 1.046875q-0.625 1.03125 -0.625 2.53125q0 1.5 0.71875 2.28125q0.734375 0.78125 2.03125 0.78125q1.3125 0 2.5625 -0.734375l0.234375 0.609375zm3.67099 -12.390625q-0.03125 2.328125 -0.03125 6.828125q0 4.5 0.203125 5.734375q0.015625 0.125 0.484375 0.265625q0.46875 0.125 0.8125 0.140625l-0.046875 0.546875q-0.90625 -0.0625 -2.171875 -0.0625q-1.265625 0 -2.15625 0.0625l0.046875 -0.546875q0.390625 -0.03125 0.828125 -0.15625q0.4375 -0.125 0.46875 -0.25q0.125 -1.21875 0.125 -4.671875q0 -5.609375 -0.109375 -6.5625l-0.046875 -0.3125l-1.1875 -0.359375l-0.03125 -0.484375q1.1875 0 2.453125 -0.34375l0.359375 0.171875zm5.0901184 2.671875q-0.28125 0.28125 -0.6875 0.28125q-0.40625 0 -0.6875 -0.28125q-0.28125 -0.296875 -0.28125 -0.71875q0 -0.421875 0.28125 -0.703125q0.28125 -0.28125 0.6875 -0.28125q0.40625 0 0.6875 0.28125q0.28125 0.28125 0.28125 0.703125q0 0.421875 -0.28125 0.71875zm0.078125 2.390625l-0.03125 4.125q0 2.40625 0.140625 3.125l0.03125 0.25q0.03125 0.125 0.484375 0.25q0.453125 0.125 0.84375 0.15625l-0.046875 0.546875q-0.90625 -0.0625 -2.1875 -0.0625q-1.28125 0 -2.1875 0.0625l0.0625 -0.546875q0.390625 -0.03125 0.828125 -0.15625q0.453125 -0.125 0.46875 -0.25q0.15625 -0.65625 0.15625 -2.609375q0 -3.171875 -0.15625 -3.890625l-1.1875 -0.359375l-0.03125 -0.484375q1.1875 0 2.453125 -0.328125l0.359375 0.171875zm9.630463 7.328125q-1.546875 1.234375 -3.375 1.234375q-1.828125 0 -2.828125 -1.15625q-0.984375 -1.15625 -0.984375 -3.015625q0 -1.859375 1.140625 -3.21875q1.15625 -1.359375 3.203125 -1.359375q0.84375 0 1.5 0.265625q0.671875 0.265625 0.953125 0.546875q0.28125 0.28125 0.28125 0.453125q0 0.75 -0.453125 1.359375l-0.453125 0q-0.21875 -0.609375 -0.75 -1.109375q-0.53125 -0.515625 -1.375 -0.515625q-1.15625 0 -1.78125 1.046875q-0.625 1.03125 -0.625 2.53125q0 1.5 0.71875 2.28125q0.734375 0.78125 2.03125 0.78125q1.3125 0 2.5625 -0.734375l0.234375 0.609375z" fill-rule="nonzero"/><path fill="#000000" d="m301.0127 242.66792q2.046875 0 3.3125 -0.671875l-0.125 -3.03125q-0.03125 -0.328125 -0.328125 -0.46875q-0.296875 -0.140625 -1.203125 -0.328125l0.0625 -0.546875q1.171875 0.0625 2.203125 0.0625q1.046875 0 2.21875 -0.0625l0.046875 0.546875q-0.28125 0.0625 -0.453125 0.125q-0.171875 0.046875 -0.296875 0.078125q-0.109375 0.015625 -0.171875 0.109375q-0.046875 0.09375 -0.0625 0.125q-0.03125 0.078125 -0.03125 0.359375l-0.140625 3.359375q-2.9375 1.25 -5.09375 1.25q-3.046875 0 -4.84375 -1.65625q-1.796875 -1.671875 -1.796875 -4.796875q0 -1.828125 0.765625 -3.328125q0.78125 -1.5 2.375 -2.4375q1.609375 -0.953125 3.765625 -0.953125q0.890625 0 1.984375 0.140625q1.109375 0.140625 1.515625 0.140625q0.421875 0 0.890625 -0.109375l0 0.28125q0 1.359375 0.21875 2.625l-0.515625 0.234375q-0.8125 -2.453125 -4.171875 -2.453125q-2.046875 0 -3.453125 1.421875q-1.40625 1.421875 -1.40625 4.125q0 2.28125 1.0625 3.953125q0.53125 0.859375 1.484375 1.390625q0.953125 0.515625 2.1875 0.515625zm12.51947 -8.0q0.140625 0 0.484375 0.4375q0.359375 0.4375 0.46875 0.859375l-0.28125 0.359375q-0.671875 -0.265625 -1.40625 -0.265625q-0.71875 0 -1.328125 0.609375q-0.59375 0.609375 -0.59375 1.953125q0.03125 3.28125 0.171875 3.8125q0.015625 0.15625 0.53125 0.28125q0.515625 0.125 1.078125 0.15625l-0.0625 0.546875q-0.890625 -0.0625 -2.265625 -0.0625q-1.375 0 -2.265625 0.0625l0.0625 -0.546875q0.375 -0.03125 0.78125 -0.15625q0.40625 -0.125 0.421875 -0.25q0.15625 -0.65625 0.15625 -2.609375q0 -3.171875 -0.15625 -3.890625l-1.1875 -0.359375l-0.046875 -0.484375q1.203125 0 2.46875 -0.328125l0.359375 0.171875q-0.046875 0.28125 -0.046875 1.53125q0.546875 -0.90625 1.375 -1.359375q0.828125 -0.46875 1.28125 -0.46875zm6.5021667 4.765625q-1.515625 0.046875 -2.328125 0.59375q-0.796875 0.53125 -0.796875 1.171875q0 0.625 0.328125 0.921875q0.328125 0.28125 1.046875 0.28125q0.734375 0 1.75 -0.609375l0 -2.359375zm1.375 4.09375q-1.125 0 -1.3125 -1.21875q-1.640625 1.21875 -2.828125 1.21875q-0.8125 0 -1.375 -0.5q-0.546875 -0.5 -0.546875 -1.53125q0 -1.046875 1.109375 -1.890625q1.109375 -0.84375 3.578125 -1.0l0 -1.75q0 -0.515625 -0.375 -0.796875q-0.375 -0.28125 -1.078125 -0.28125q-0.6875 0 -1.09375 0.390625q-0.40625 0.375 -0.40625 0.96875q0 0.234375 0.046875 0.515625l-0.40625 0.1875q-0.375 -0.21875 -0.703125 -0.5625q-0.328125 -0.359375 -0.328125 -0.515625q0 -0.15625 0.25 -0.46875q0.25 -0.3125 0.671875 -0.65625q0.4375 -0.359375 1.15625 -0.609375q0.71875 -0.25 1.609375 -0.25q0.90625 0 1.46875 0.4375q0.5625 0.4375 0.5625 1.59375q0 1.140625 0.109375 4.828125q0.015625 0.890625 0.671875 0.890625q0.28125 0 0.578125 -0.140625l0.1875 0.484375q-0.71875 0.65625 -1.546875 0.65625zm6.5102844 -1.0q1.484375 0 2.234375 -0.984375q0.75 -1.0 0.75 -2.375q0 -1.390625 -0.65625 -2.296875q-0.640625 -0.921875 -1.921875 -0.921875q-0.5 0 -1.15625 0.1875q-0.65625 0.1875 -0.96875 0.390625l0 5.6875q0.890625 0.3125 1.71875 0.3125zm-0.359375 5.734375q-0.890625 -0.0625 -2.171875 -0.0625q-1.265625 0 -2.15625 0.0625l0.0625 -0.546875q1.25 -0.109375 1.28125 -0.34375q0.21875 -1.0625 0.21875 -4.53125q0 -5.609375 -0.109375 -6.5625l-0.03125 -0.3125l-1.203125 -0.359375l-0.03125 -0.484375q1.171875 0 2.4375 -0.328125l0.359375 0.171875l0 0.90625q1.453125 -1.09375 2.96875 -1.09375q1.515625 0 2.4375 1.015625q0.9375 1.0 0.9375 3.15625q0 2.15625 -1.171875 3.375q-1.171875 1.203125 -2.875 1.203125q-1.234375 0 -2.3125 -0.59375q0.015625 4.171875 0.109375 4.4375q0.03125 0.234375 1.3125 0.34375l-0.0625 0.546875zm10.201935 -4.84375q-0.890625 -0.0625 -2.046875 -0.0625q-1.15625 0 -2.0625 0.0625l0.0625 -0.546875q0.359375 -0.03125 0.75 -0.15625q0.40625 -0.125 0.421875 -0.25q0.140625 -1.21875 0.140625 -4.671875q0 -5.609375 -0.125 -6.5625l-0.03125 -0.3125l-1.1875 -0.359375l-0.046875 -0.484375q1.203125 0 2.46875 -0.34375l0.359375 0.171875q-0.046875 2.1875 -0.046875 5.953125q2.078125 -1.078125 3.734375 -1.078125q0.9375 0 1.421875 0.375q0.484375 0.375 0.484375 1.390625l0 2.546875q0 2.40625 0.140625 3.125l0.046875 0.25q0.015625 0.125 0.40625 0.25q0.40625 0.125 0.78125 0.15625l-0.046875 0.546875q-0.90625 -0.0625 -2.0625 -0.0625q-1.15625 0 -2.046875 0.0625l0.046875 -0.546875q0.359375 -0.03125 0.75 -0.15625q0.40625 -0.125 0.4375 -0.25q0.140625 -0.65625 0.140625 -3.375l0 -1.8125q0 -0.734375 -0.4375 -1.015625q-0.421875 -0.28125 -1.015625 -0.28125q-0.59375 0 -0.96875 0.046875q-0.359375 0.046875 -0.65625 0.125q-0.75 0.203125 -0.96875 0.296875l-0.1875 0.0625q0 5.53125 0.203125 5.953125q0.03125 0.125 0.421875 0.25q0.40625 0.125 0.78125 0.15625l-0.0625 0.546875zm13.699249 -5.484375q0 1.921875 0.71875 3.9375q0.71875 2.0 2.125 3.65625l-0.578125 0.53125q-2.140625 -1.75 -3.078125 -3.90625q-0.9375 -2.15625 -0.9375 -4.21875q0 -4.515625 4.015625 -7.8125l0.578125 0.53125q-2.84375 3.359375 -2.84375 7.28125zm7.5783997 -7.359375l3.3125 0q2.171875 0 3.859375 0.84375q1.890625 0.96875 2.609375 2.828125q0.421875 1.03125 0.421875 2.296875q0 3.0 -1.859375 4.90625q-1.84375 1.90625 -5.34375 1.90625l-3.0 0q-1.46875 0 -2.640625 0.0625l-0.046875 -0.546875q0.953125 -0.1875 1.28125 -0.328125q0.34375 -0.15625 0.375 -0.46875q0.140625 -1.109375 0.140625 -4.0q0 -4.6875 -0.109375 -5.84375l-0.03125 -0.375q-0.03125 -0.328125 -0.34375 -0.46875q-0.296875 -0.140625 -1.1875 -0.328125l0.0625 -0.53125q1.171875 0.046875 2.5 0.046875zm1.0 11.65625q1.015625 0.234375 2.140625 0.234375q1.140625 0 2.171875 -0.453125q1.03125 -0.46875 1.5625 -1.09375q0.546875 -0.625 0.859375 -1.484375q0.5 -1.265625 0.5 -2.609375q0 -5.46875 -6.078125 -5.46875q-0.671875 0 -0.890625 0.078125q-0.203125 0.078125 -0.265625 0.3125q-0.203125 1.21875 -0.203125 4.109375q0 4.5 0.140625 5.953125l0.0625 0.421875zm13.664185 1.1875q-1.1875 -0.0625 -2.3125 -0.0625q-1.125 0 -2.296875 0.0625l-0.0625 -0.546875q0.859375 -0.171875 1.203125 -0.359375q0.359375 -0.203125 0.46875 -0.5625l3.71875 -11.359375l1.625 -0.1875l4.34375 11.671875q0.140625 0.3125 0.4375 0.46875q0.3125 0.15625 1.15625 0.328125l-0.0625 0.546875q-1.171875 -0.0625 -2.5625 -0.0625q-1.375 0 -2.546875 0.0625l-0.0625 -0.546875q1.328125 -0.265625 1.53125 -0.484375q0.109375 -0.09375 0.109375 -0.1875q0 -0.109375 -1.015625 -3.359375l-4.21875 0l-1.015625 3.328125q0 0.234375 0.375 0.390625q0.375 0.140625 1.234375 0.3125l-0.046875 0.546875zm1.484375 -11.0625l-0.078125 0q-0.125 0.4375 -0.328125 1.0625q-0.1875 0.625 -0.578125 1.953125q-0.390625 1.3125 -0.78125 2.609375l3.65625 0l-1.890625 -5.625zm13.264923 10.3125q2.046875 0 3.3125 -0.671875l-0.125 -3.03125q-0.03125 -0.328125 -0.328125 -0.46875q-0.296875 -0.140625 -1.203125 -0.328125l0.0625 -0.546875q1.171875 0.0625 2.203125 0.0625q1.046875 0 2.21875 -0.0625l0.046875 0.546875q-0.28125 0.0625 -0.453125 0.125q-0.171875 0.046875 -0.296875 0.078125q-0.109375 0.015625 -0.171875 0.109375q-0.046875 0.09375 -0.0625 0.125q-0.03125 0.078125 -0.03125 0.359375l-0.140625 3.359375q-2.9375 1.25 -5.09375 1.25q-3.046875 0 -4.84375 -1.65625q-1.796875 -1.671875 -1.796875 -4.796875q0 -1.828125 0.765625 -3.328125q0.78125 -1.5 2.375 -2.4375q1.609375 -0.953125 3.765625 -0.953125q0.890625 0 1.984375 0.140625q1.109375 0.140625 1.515625 0.140625q0.421875 0 0.890625 -0.109375l0 0.28125q0 1.359375 0.21875 2.625l-0.515625 0.234375q-0.8125 -2.453125 -4.171875 -2.453125q-2.046875 0 -3.453125 1.421875q-1.40625 1.421875 -1.40625 4.125q0 2.28125 1.0625 3.953125q0.53125 0.859375 1.484375 1.390625q0.953125 0.515625 2.1875 0.515625zm10.910095 -4.734375q0 -3.921875 -2.84375 -7.28125l0.578125 -0.53125q4.015625 3.296875 4.015625 7.8125q0 2.0625 -0.9375 4.21875q-0.9375 2.15625 -3.078125 3.90625l-0.578125 -0.53125q1.40625 -1.65625 2.125 -3.65625q0.71875 -2.015625 0.71875 -3.9375z" fill-rule="nonzero"/><path fill="#000000" fill-opacity="0.0" d="m368.41718 52.020634l48.661438 70.77165" fill-rule="evenodd"/><path stroke="#ff0000" stroke-width="3.0" stroke-linejoin="round" stroke-linecap="butt" d="m368.4172 52.020634l38.463043 55.939472" fill-rule="evenodd"/><path fill="#ff0000" stroke="#ff0000" stroke-width="3.0" stroke-linecap="butt" d="m402.79712 110.7676l11.796661 8.410812l-3.6304016 -14.025803z" fill-rule="evenodd"/><path fill="#000000" fill-opacity="0.0" d="m278.76965 122.7966l52.59842 -70.77165" fill-rule="evenodd"/><path stroke="#00ff00" stroke-width="3.0" stroke-linejoin="round" stroke-linecap="butt" d="m278.76965 122.7966l41.861267 -56.32473" fill-rule="evenodd"/><path fill="#00ff00" stroke="#00ff00" stroke-width="3.0" stroke-linecap="butt" d="m324.608 69.42769l4.1439514 -13.882744l-12.098114 7.9711113z" fill-rule="evenodd"/><path fill="#000000" fill-opacity="0.0" d="m304.96838 149.53244l85.921234 0" fill-rule="evenodd"/><path stroke="#ff0000" stroke-width="3.0" stroke-linejoin="round" stroke-linecap="butt" d="m304.96835 149.53244l67.921295 0" fill-rule="evenodd"/><path fill="#ff0000" stroke="#ff0000" stroke-width="3.0" stroke-linecap="butt" d="m372.88965 154.48764l13.614288 -4.9552l-13.614288 -4.9552z" fill-rule="evenodd"/><g filter="url(#shadowFilter-p.16)"><use xlink:href="#p.16" transform="matrix(1.0 0.0 0.0 1.0 0.0 2.0)"/></g><defs><filter id="shadowFilter-p.16" filterUnits="userSpaceOnUse"><feGaussianBlur in="SourceAlpha" stdDeviation="2.0" result="blur"/><feComponentTransfer in="blur" color-interpolation-filters="sRGB"><feFuncR type="linear" slope="0" intercept="0.0"/><feFuncG type="linear" slope="0" intercept="0.0"/><feFuncB type="linear" slope="0" intercept="0.0"/><feFuncA type="linear" slope="0.5" intercept="0"/></feComponentTransfer></filter></defs><g id="p.16"><path fill="#e0e0e0" d="m556.1004 33.1168l0 0c0 -14.768181 11.725159 -26.740158 26.188965 -26.740158l0 0c6.9457397 0 13.606995 2.8172588 18.518372 7.832011c4.911438 5.0147524 7.6705933 11.816216 7.6705933 18.908146l0 0c0 14.768181 -11.72522 26.740158 -26.188965 26.740158l0 0c-14.463806 0 -26.188965 -11.971977 -26.188965 -26.740158z" fill-rule="evenodd"/><path stroke="#9e9e9e" stroke-width="1.0" stroke-linejoin="round" stroke-linecap="butt" d="m556.1004 33.1168l0 0c0 -14.768181 11.725159 -26.740158 26.188965 -26.740158l0 0c6.9457397 0 13.606995 2.8172588 18.518372 7.832011c4.911438 5.0147524 7.6705933 11.816216 7.6705933 18.908146l0 0c0 14.768181 -11.72522 26.740158 -26.188965 26.740158l0 0c-14.463806 0 -26.188965 -11.971977 -26.188965 -26.740158z" fill-rule="evenodd"/><path fill="#37474f" d="m573.5522 33.443047q0 -2.359377 0.484375 -3.796877q0.484375 -1.453125 1.4375 -2.234375q0.96875 -0.78125 2.421875 -0.78125q1.078125 0 1.890625 0.4375q0.8125 0.421875 1.328125 1.25q0.53125 0.8125 0.828125 1.984375q0.3125 1.15625 0.3125 3.140627q0 2.359375 -0.484375 3.8125q-0.484375 1.4375 -1.453125 2.234375q-0.953125 0.78125 -2.421875 0.78125q-1.921875 0 -3.03125 -1.390625q-1.3125 -1.671875 -1.3125 -5.4375zm1.671875 0q0 3.296875 0.765625 4.390625q0.78125 1.078125 1.90625 1.078125q1.140625 0 1.90625 -1.09375q0.765625 -1.09375 0.765625 -4.375q0 -3.296877 -0.765625 -4.375002q-0.765625 -1.078125 -1.921875 -1.078125q-1.125 0 -1.796875 0.953125q-0.859375 1.21875 -0.859375 4.500002z" fill-rule="nonzero"/></g><g filter="url(#shadowFilter-p.17)"><use xlink:href="#p.17" transform="matrix(1.0 0.0 0.0 1.0 0.0 2.0)"/></g><defs><filter id="shadowFilter-p.17" filterUnits="userSpaceOnUse"><feGaussianBlur in="SourceAlpha" stdDeviation="2.0" result="blur"/><feComponentTransfer in="blur" color-interpolation-filters="sRGB"><feFuncR type="linear" slope="0" intercept="0.0"/><feFuncG type="linear" slope="0" intercept="0.0"/><feFuncB type="linear" slope="0" intercept="0.0"/><feFuncA type="linear" slope="0.5" intercept="0"/></feComponentTransfer></filter></defs><g id="p.17"><path fill="#000000" fill-opacity="0.0" d="m511.1819 122.79228l52.59845 -70.77165" fill-rule="evenodd"/><path stroke="#9e9e9e" stroke-width="1.0" stroke-linejoin="round" stroke-linecap="butt" d="m511.1819 122.79228l52.59845 -70.77165" fill-rule="evenodd"/></g><g filter="url(#shadowFilter-p.18)"><use xlink:href="#p.18" transform="matrix(1.0 0.0 0.0 1.0 0.0 2.0)"/></g><defs><filter id="shadowFilter-p.18" filterUnits="userSpaceOnUse"><feGaussianBlur in="SourceAlpha" stdDeviation="2.0" result="blur"/><feComponentTransfer in="blur" color-interpolation-filters="sRGB"><feFuncR type="linear" slope="0" intercept="0.0"/><feFuncG type="linear" slope="0" intercept="0.0"/><feFuncB type="linear" slope="0" intercept="0.0"/><feFuncA type="linear" slope="0.5" intercept="0"/></feComponentTransfer></filter></defs><g id="p.18"><path fill="#e0e0e0" d="m484.99292 149.53244l0 0c0 -14.768173 11.725189 -26.740158 26.188965 -26.740158l0 0c6.9457397 0 13.606995 2.8172607 18.518372 7.832016c4.911438 5.0147552 7.6705933 11.816208 7.6705933 18.908142l0 0c0 14.768188 -11.72522 26.740158 -26.188965 26.740158l0 0c-14.463776 0 -26.188965 -11.97197 -26.188965 -26.740158z" fill-rule="evenodd"/><path stroke="#9e9e9e" stroke-width="1.0" stroke-linejoin="round" stroke-linecap="butt" d="m484.99292 149.53244l0 0c0 -14.768173 11.725189 -26.740158 26.188965 -26.740158l0 0c6.9457397 0 13.606995 2.8172607 18.518372 7.832016c4.911438 5.0147552 7.6705933 11.816208 7.6705933 18.908142l0 0c0 14.768188 -11.72522 26.740158 -26.188965 26.740158l0 0c-14.463776 0 -26.188965 -11.97197 -26.188965 -26.740158z" fill-rule="evenodd"/><path fill="#37474f" d="m508.6166 156.45244l-1.640625 0l0 -10.453125q-0.59375 0.5625 -1.5625 1.140625q-0.953125 0.5625 -1.71875 0.84375l0 -1.59375q1.375 -0.640625 2.40625 -1.5625q1.03125 -0.921875 1.453125 -1.78125l1.0625 0l0 13.40625z" fill-rule="nonzero"/></g><g filter="url(#shadowFilter-p.19)"><use xlink:href="#p.19" transform="matrix(1.0 0.0 0.0 1.0 0.0 2.0)"/></g><defs><filter id="shadowFilter-p.19" filterUnits="userSpaceOnUse"><feGaussianBlur in="SourceAlpha" stdDeviation="2.0" result="blur"/><feComponentTransfer in="blur" color-interpolation-filters="sRGB"><feFuncR type="linear" slope="0" intercept="0.0"/><feFuncG type="linear" slope="0" intercept="0.0"/><feFuncB type="linear" slope="0" intercept="0.0"/><feFuncA type="linear" slope="0.5" intercept="0"/></feComponentTransfer></filter></defs><g id="p.19"><path fill="#e0e0e0" d="m623.29254 149.53244l0 0c0 -14.768173 11.725159 -26.740158 26.188965 -26.740158l0 0c6.9457397 0 13.606995 2.8172607 18.518372 7.832016c4.911377 5.0147552 7.6705933 11.816208 7.6705933 18.908142l0 0c0 14.768188 -11.72522 26.740158 -26.188965 26.740158l0 0c-14.463806 0 -26.188965 -11.97197 -26.188965 -26.740158z" fill-rule="evenodd"/><path stroke="#9e9e9e" stroke-width="1.0" stroke-linejoin="round" stroke-linecap="butt" d="m623.29254 149.53244l0 0c0 -14.768173 11.725159 -26.740158 26.188965 -26.740158l0 0c6.9457397 0 13.606995 2.8172607 18.518372 7.832016c4.911377 5.0147552 7.6705933 11.816208 7.6705933 18.908142l0 0c0 14.768188 -11.72522 26.740158 -26.188965 26.740158l0 0c-14.463806 0 -26.188965 -11.97197 -26.188965 -26.740158z" fill-rule="evenodd"/><path fill="#37474f" d="m649.3537 154.87431l0 1.578125l-8.828125 0q-0.015625 -0.59375 0.1875 -1.140625q0.34375 -0.90625 1.078125 -1.78125q0.75 -0.875 2.15625 -2.015625q2.171875 -1.78125 2.9375 -2.828125q0.765625 -1.046875 0.765625 -1.96875q0 -0.984375 -0.703125 -1.640625q-0.6875 -0.671875 -1.8125 -0.671875q-1.1875 0 -1.90625 0.71875q-0.703125 0.703125 -0.703125 1.953125l-1.6875 -0.171875q0.171875 -1.890625 1.296875 -2.875q1.140625 -0.984375 3.03125 -0.984375q1.921875 0 3.046875 1.0625q1.125 1.0625 1.125 2.640625q0 0.796875 -0.328125 1.578125q-0.328125 0.78125 -1.09375 1.640625q-0.75 0.84375 -2.53125 2.34375q-1.46875 1.234375 -1.890625 1.6875q-0.421875 0.4375 -0.6875 0.875l6.546875 0z" fill-rule="nonzero"/></g><g filter="url(#shadowFilter-p.20)"><use xlink:href="#p.20" transform="matrix(1.0 0.0 0.0 1.0 0.0 2.0)"/></g><defs><filter id="shadowFilter-p.20" filterUnits="userSpaceOnUse"><feGaussianBlur in="SourceAlpha" stdDeviation="2.0" result="blur"/><feComponentTransfer in="blur" color-interpolation-filters="sRGB"><feFuncR type="linear" slope="0" intercept="0.0"/><feFuncG type="linear" slope="0" intercept="0.0"/><feFuncB type="linear" slope="0" intercept="0.0"/><feFuncA type="linear" slope="0.5" intercept="0"/></feComponentTransfer></filter></defs><g id="p.20"><path fill="#000000" fill-opacity="0.0" d="m600.80774 52.024944l48.661438 70.77165" fill-rule="evenodd"/><path stroke="#9e9e9e" stroke-width="1.0" stroke-linejoin="round" stroke-linecap="butt" d="m600.80774 52.024944l48.661438 70.77165" fill-rule="evenodd"/></g><g filter="url(#shadowFilter-p.21)"><use xlink:href="#p.21" transform="matrix(1.0 0.0 0.0 1.0 0.0 2.0)"/></g><defs><filter id="shadowFilter-p.21" filterUnits="userSpaceOnUse"><feGaussianBlur in="SourceAlpha" stdDeviation="2.0" result="blur"/><feComponentTransfer in="blur" color-interpolation-filters="sRGB"><feFuncR type="linear" slope="0" intercept="0.0"/><feFuncG type="linear" slope="0" intercept="0.0"/><feFuncB type="linear" slope="0" intercept="0.0"/><feFuncA type="linear" slope="0.5" intercept="0"/></feComponentTransfer></filter></defs><g id="p.21"><path fill="#000000" fill-opacity="0.0" d="m623.29254 149.53244l-85.921265 0" fill-rule="evenodd"/><path stroke="#9e9e9e" stroke-width="1.0" stroke-linejoin="round" stroke-linecap="butt" d="m623.29254 149.53244l-85.921265 0" fill-rule="evenodd"/></g><g filter="url(#shadowFilter-p.22)"><use xlink:href="#p.22" transform="matrix(1.0 0.0 0.0 1.0 0.0 2.0)"/></g><defs><filter id="shadowFilter-p.22" filterUnits="userSpaceOnUse"><feGaussianBlur in="SourceAlpha" stdDeviation="2.0" result="blur"/><feComponentTransfer in="blur" color-interpolation-filters="sRGB"><feFuncR type="linear" slope="0" intercept="0.0"/><feFuncG type="linear" slope="0" intercept="0.0"/><feFuncB type="linear" slope="0" intercept="0.0"/><feFuncA type="linear" slope="0.5" intercept="0"/></feComponentTransfer></filter></defs><g id="p.22"><path fill="#000000" fill-opacity="0.0" d="m511.18713 122.79228l52.59845 -70.77165" fill-rule="evenodd"/><path stroke="#00ff00" stroke-width="3.0" stroke-linejoin="round" stroke-linecap="butt" d="m511.18713 122.79228l41.861267 -56.324722" fill-rule="evenodd"/><path fill="#00ff00" stroke="#00ff00" stroke-width="3.0" stroke-linecap="butt" d="m557.0255 69.42338l4.143921 -13.882744l-12.0980835 7.9711113z" fill-rule="evenodd"/></g><g filter="url(#shadowFilter-p.23)"><use xlink:href="#p.23" transform="matrix(1.0 0.0 0.0 1.0 0.0 2.0)"/></g><defs><filter id="shadowFilter-p.23" filterUnits="userSpaceOnUse"><feGaussianBlur in="SourceAlpha" stdDeviation="2.0" result="blur"/><feComponentTransfer in="blur" color-interpolation-filters="sRGB"><feFuncR type="linear" slope="0" intercept="0.0"/><feFuncG type="linear" slope="0" intercept="0.0"/><feFuncB type="linear" slope="0" intercept="0.0"/><feFuncA type="linear" slope="0.5" intercept="0"/></feComponentTransfer></filter></defs><g id="p.23"><path fill="#000000" fill-opacity="0.0" d="m600.813 52.024944l48.661438 70.77165" fill-rule="evenodd"/><path stroke="#00ff00" stroke-width="3.0" stroke-linejoin="round" stroke-linecap="butt" d="m611.01135 66.85712l28.26471 41.107307" fill-rule="evenodd"/><path fill="#00ff00" stroke="#00ff00" stroke-width="3.0" stroke-linecap="butt" d="m615.0945 64.04963l-11.796631 -8.41082l3.630371 14.025803z" fill-rule="evenodd"/><path fill="#00ff00" stroke="#00ff00" stroke-width="3.0" stroke-linecap="butt" d="m635.19293 110.77191l11.796631 8.41082l-3.630371 -14.025803z" fill-rule="evenodd"/></g><g filter="url(#shadowFilter-p.24)"><use xlink:href="#p.24" transform="matrix(1.0 0.0 0.0 1.0 0.0 2.0)"/></g><defs><filter id="shadowFilter-p.24" filterUnits="userSpaceOnUse"><feGaussianBlur in="SourceAlpha" stdDeviation="2.0" result="blur"/><feComponentTransfer in="blur" color-interpolation-filters="sRGB"><feFuncR type="linear" slope="0" intercept="0.0"/><feFuncG type="linear" slope="0" intercept="0.0"/><feFuncB type="linear" slope="0" intercept="0.0"/><feFuncA type="linear" slope="0.5" intercept="0"/></feComponentTransfer></filter></defs><g id="p.24"><path fill="#000000" fill-opacity="0.0" d="m623.2978 149.53244l-85.921265 0" fill-rule="evenodd"/><path stroke="#00ff00" stroke-width="3.0" stroke-linejoin="round" stroke-linecap="butt" d="m623.2978 149.53244l-67.921265 0" fill-rule="evenodd"/><path fill="#00ff00" stroke="#00ff00" stroke-width="3.0" stroke-linecap="butt" d="m555.3765 144.57724l-13.614319 4.9552l13.614319 4.9552z" fill-rule="evenodd"/></g><path fill="#000000" fill-opacity="0.0" d="m529.46326 194.03543l101.7323 0l0 64.62991l-101.7323 0z" fill-rule="evenodd"/><path fill="#000000" d="m549.72144 208.17418l3.3125 0q2.171875 0 3.859375 0.84375q1.890625 0.96875 2.609375 2.828125q0.421875 1.03125 0.421875 2.296875q0 3.0 -1.859375 4.90625q-1.84375 1.90625 -5.34375 1.90625l-3.0 0q-1.46875 0 -2.640625 0.0625l-0.046875 -0.546875q0.953125 -0.1875 1.28125 -0.328125q0.34375 -0.15625 0.375 -0.46875q0.140625 -1.109375 0.140625 -4.0q0 -4.6875 -0.109375 -5.84375l-0.03125 -0.375q-0.03125 -0.328125 -0.34375 -0.46875q-0.296875 -0.140625 -1.1875 -0.328125l0.0625 -0.53125q1.171875 0.046875 2.5 0.046875zm1.0 11.65625q1.015625 0.234375 2.140625 0.234375q1.140625 0 2.171875 -0.453125q1.03125 -0.46875 1.5625 -1.09375q0.546875 -0.625 0.859375 -1.484375q0.5 -1.265625 0.5 -2.609375q0 -5.46875 -6.078125 -5.46875q-0.671875 0 -0.890625 0.078125q-0.203125 0.078125 -0.265625 0.3125q-0.203125 1.21875 -0.203125 4.109375q0 4.5 0.140625 5.953125l0.0625 0.421875zm13.393555 -9.65625q-0.28125 0.28125 -0.6875 0.28125q-0.40625 0 -0.6875 -0.28125q-0.28125 -0.296875 -0.28125 -0.71875q0 -0.421875 0.28125 -0.703125q0.28125 -0.28125 0.6875 -0.28125q0.40625 0 0.6875 0.28125q0.28125 0.28125 0.28125 0.703125q0 0.421875 -0.28125 0.71875zm0.078125 2.390625l-0.03125 4.125q0 2.40625 0.140625 3.125l0.03125 0.25q0.03125 0.125 0.484375 0.25q0.453125 0.125 0.84375 0.15625l-0.046875 0.546875q-0.90625 -0.0625 -2.1875 -0.0625q-1.28125 0 -2.1875 0.0625l0.0625 -0.546875q0.390625 -0.03125 0.828125 -0.15625q0.453125 -0.125 0.46875 -0.25q0.15625 -0.65625 0.15625 -2.609375q0 -3.171875 -0.15625 -3.890625l-1.1875 -0.359375l-0.03125 -0.484375q1.1875 0 2.453125 -0.328125l0.359375 0.171875zm7.724243 -0.296875q0.140625 0 0.484375 0.4375q0.359375 0.4375 0.46875 0.859375l-0.28125 0.359375q-0.671875 -0.265625 -1.40625 -0.265625q-0.71875 0 -1.328125 0.609375q-0.59375 0.609375 -0.59375 1.953125q0.03125 3.28125 0.171875 3.8125q0.015625 0.15625 0.53125 0.28125q0.515625 0.125 1.078125 0.15625l-0.0625 0.546875q-0.890625 -0.0625 -2.265625 -0.0625q-1.375 0 -2.265625 0.0625l0.0625 -0.546875q0.375 -0.03125 0.78125 -0.15625q0.40625 -0.125 0.421875 -0.25q0.15625 -0.65625 0.15625 -2.609375q0 -3.171875 -0.15625 -3.890625l-1.1875 -0.359375l-0.046875 -0.484375q1.203125 0 2.46875 -0.328125l0.359375 0.171875q-0.046875 0.28125 -0.046875 1.53125q0.546875 -0.90625 1.375 -1.359375q0.828125 -0.46875 1.28125 -0.46875zm6.9260864 2.71875q0 -0.859375 -0.5 -1.28125q-0.484375 -0.421875 -1.078125 -0.421875q-0.875 0 -1.515625 0.703125q-0.625 0.6875 -0.828125 1.6875l3.859375 -0.140625q0.0625 -0.28125 0.0625 -0.546875zm-1.625 6.140625q-1.984375 0 -3.0 -1.125q-1.0 -1.140625 -1.0 -3.015625q0 -1.875 1.109375 -3.234375q1.109375 -1.375 3.359375 -1.375q1.125 0 1.96875 0.796875q0.859375 0.796875 0.859375 2.390625l-0.640625 0.765625q-0.109375 -0.015625 -1.765625 -0.015625q-1.640625 0 -3.296875 0.125l0 0.171875q0 1.6875 0.703125 2.546875q0.703125 0.84375 1.9375 0.84375q1.234375 0 2.59375 -0.59375l0.234375 0.5625q-1.4375 1.15625 -3.0625 1.15625zm11.735107 -1.234375q-1.546875 1.234375 -3.375 1.234375q-1.828125 0 -2.828125 -1.15625q-0.984375 -1.15625 -0.984375 -3.015625q0 -1.859375 1.140625 -3.21875q1.15625 -1.359375 3.203125 -1.359375q0.84375 0 1.5 0.265625q0.671875 0.265625 0.953125 0.546875q0.28125 0.28125 0.28125 0.453125q0 0.75 -0.453125 1.359375l-0.453125 0q-0.21875 -0.609375 -0.75 -1.109375q-0.53125 -0.515625 -1.375 -0.515625q-1.15625 0 -1.78125 1.046875q-0.625 1.03125 -0.625 2.53125q0 1.5 0.71875 2.28125q0.734375 0.78125 2.03125 0.78125q1.3125 0 2.5625 -0.734375l0.234375 0.609375zm4.0459595 1.234375q-1.9375 0 -1.9375 -1.875q0.015625 -1.640625 0.015625 -3.0q0 -1.375 -0.046875 -2.875l-1.1875 0.015625l-0.0625 -0.203125l0.4375 -0.71875q0.265625 0.046875 0.78125 0.078125l-0.078125 -1.71875l1.234375 -1.109375l0.359375 0.171875q-0.046875 1.375 -0.046875 2.625l2.75 -0.015625l0.09375 0.21875l-0.671875 0.75q-0.640625 -0.078125 -2.171875 -0.09375l0 2.5q0 2.328125 0.0625 3.34375q0.0625 0.84375 0.984375 0.84375q0.75 0 1.640625 -0.4375l0.234375 0.625q-1.328125 0.875 -2.390625 0.875zm8.772461 -6.140625q0 -0.859375 -0.5 -1.28125q-0.484375 -0.421875 -1.078125 -0.421875q-0.875 0 -1.515625 0.703125q-0.625 0.6875 -0.828125 1.6875l3.859375 -0.140625q0.0625 -0.28125 0.0625 -0.546875zm-1.625 6.140625q-1.984375 0 -3.0 -1.125q-1.0 -1.140625 -1.0 -3.015625q0 -1.875 1.109375 -3.234375q1.109375 -1.375 3.359375 -1.375q1.125 0 1.96875 0.796875q0.859375 0.796875 0.859375 2.390625l-0.640625 0.765625q-0.109375 -0.015625 -1.765625 -0.015625q-1.640625 0 -3.296875 0.125l0 0.171875q0 1.6875 0.703125 2.546875q0.703125 0.84375 1.9375 0.84375q1.234375 0 2.59375 -0.59375l0.234375 0.5625q-1.4375 1.15625 -3.0625 1.15625zm10.906982 -1.21875q-1.28125 1.21875 -2.8125 1.21875q-1.53125 0 -2.515625 -1.109375q-0.96875 -1.109375 -0.96875 -3.171875q0 -2.0625 1.15625 -3.265625q1.171875 -1.21875 2.890625 -1.21875q0.921875 0 2.234375 0.640625q0 -3.453125 -0.109375 -4.234375l-0.046875 -0.25l-1.1875 -0.359375l-0.03125 -0.484375q1.1875 0 2.453125 -0.34375l0.359375 0.171875q-0.046875 2.328125 -0.046875 6.609375q0 4.265625 0.03125 4.890625q0.046875 0.609375 0.171875 0.765625q0.125 0.15625 0.359375 0.234375q0.390625 0.109375 0.921875 0.15625l-0.0625 0.53125q-0.671875 0.0625 -2.03125 0.34375q-0.5625 -0.25 -0.765625 -1.125zm-1.765625 -6.421875q-1.484375 0 -2.1875 0.96875q-0.6875 0.953125 -0.6875 2.375q0 1.421875 0.609375 2.28125q0.625 0.84375 1.75 0.84375q1.140625 0 2.171875 -0.65625q0.09375 -1.5 0.09375 -5.46875q-0.96875 -0.34375 -1.75 -0.34375z" fill-rule="nonzero"/><path fill="#000000" d="m562.7652 242.66792q2.046875 0 3.3125 -0.671875l-0.125 -3.03125q-0.03125 -0.328125 -0.328125 -0.46875q-0.296875 -0.140625 -1.203125 -0.328125l0.0625 -0.546875q1.171875 0.0625 2.203125 0.0625q1.046875 0 2.21875 -0.0625l0.046875 0.546875q-0.28125 0.0625 -0.453125 0.125q-0.171875 0.046875 -0.296875 0.078125q-0.109375 0.015625 -0.171875 0.109375q-0.046875 0.09375 -0.0625 0.125q-0.03125 0.078125 -0.03125 0.359375l-0.140625 3.359375q-2.9375 1.25 -5.09375 1.25q-3.046875 0 -4.84375 -1.65625q-1.796875 -1.671875 -1.796875 -4.796875q0 -1.828125 0.765625 -3.328125q0.78125 -1.5 2.375 -2.4375q1.609375 -0.953125 3.765625 -0.953125q0.890625 0 1.984375 0.140625q1.109375 0.140625 1.515625 0.140625q0.421875 0 0.890625 -0.109375l0 0.28125q0 1.359375 0.21875 2.625l-0.515625 0.234375q-0.8125 -2.453125 -4.171875 -2.453125q-2.046875 0 -3.453125 1.421875q-1.40625 1.421875 -1.40625 4.125q0 2.28125 1.0625 3.953125q0.53125 0.859375 1.484375 1.390625q0.953125 0.515625 2.1875 0.515625zm12.51947 -8.0q0.140625 0 0.484375 0.4375q0.359375 0.4375 0.46875 0.859375l-0.28125 0.359375q-0.671875 -0.265625 -1.40625 -0.265625q-0.71875 0 -1.328125 0.609375q-0.59375 0.609375 -0.59375 1.953125q0.03125 3.28125 0.171875 3.8125q0.015625 0.15625 0.53125 0.28125q0.515625 0.125 1.078125 0.15625l-0.0625 0.546875q-0.890625 -0.0625 -2.265625 -0.0625q-1.375 0 -2.265625 0.0625l0.0625 -0.546875q0.375 -0.03125 0.78125 -0.15625q0.40625 -0.125 0.421875 -0.25q0.15625 -0.65625 0.15625 -2.609375q0 -3.171875 -0.15625 -3.890625l-1.1875 -0.359375l-0.046875 -0.484375q1.203125 0 2.46875 -0.328125l0.359375 0.171875q-0.046875 0.28125 -0.046875 1.53125q0.546875 -0.90625 1.375 -1.359375q0.828125 -0.46875 1.28125 -0.46875zm6.502136 4.765625q-1.515625 0.046875 -2.328125 0.59375q-0.796875 0.53125 -0.796875 1.171875q0 0.625 0.328125 0.921875q0.328125 0.28125 1.046875 0.28125q0.734375 0 1.75 -0.609375l0 -2.359375zm1.375 4.09375q-1.125 0 -1.3125 -1.21875q-1.640625 1.21875 -2.828125 1.21875q-0.8125 0 -1.375 -0.5q-0.546875 -0.5 -0.546875 -1.53125q0 -1.046875 1.109375 -1.890625q1.109375 -0.84375 3.578125 -1.0l0 -1.75q0 -0.515625 -0.375 -0.796875q-0.375 -0.28125 -1.078125 -0.28125q-0.6875 0 -1.09375 0.390625q-0.40625 0.375 -0.40625 0.96875q0 0.234375 0.046875 0.515625l-0.40625 0.1875q-0.375 -0.21875 -0.703125 -0.5625q-0.328125 -0.359375 -0.328125 -0.515625q0 -0.15625 0.25 -0.46875q0.25 -0.3125 0.671875 -0.65625q0.4375 -0.359375 1.15625 -0.609375q0.71875 -0.25 1.609375 -0.25q0.90625 0 1.46875 0.4375q0.5625 0.4375 0.5625 1.59375q0 1.140625 0.109375 4.828125q0.015625 0.890625 0.671875 0.890625q0.28125 0 0.578125 -0.140625l0.1875 0.484375q-0.71875 0.65625 -1.546875 0.65625zm6.510315 -1.0q1.484375 0 2.234375 -0.984375q0.75 -1.0 0.75 -2.375q0 -1.390625 -0.65625 -2.296875q-0.640625 -0.921875 -1.921875 -0.921875q-0.5 0 -1.15625 0.1875q-0.65625 0.1875 -0.96875 0.390625l0 5.6875q0.890625 0.3125 1.71875 0.3125zm-0.359375 5.734375q-0.890625 -0.0625 -2.171875 -0.0625q-1.265625 0 -2.15625 0.0625l0.0625 -0.546875q1.25 -0.109375 1.28125 -0.34375q0.21875 -1.0625 0.21875 -4.53125q0 -5.609375 -0.109375 -6.5625l-0.03125 -0.3125l-1.203125 -0.359375l-0.03125 -0.484375q1.171875 0 2.4375 -0.328125l0.359375 0.171875l0 0.90625q1.453125 -1.09375 2.96875 -1.09375q1.515625 0 2.4375 1.015625q0.9375 1.0 0.9375 3.15625q0 2.15625 -1.171875 3.375q-1.171875 1.203125 -2.875 1.203125q-1.234375 0 -2.3125 -0.59375q0.015625 4.171875 0.109375 4.4375q0.03125 0.234375 1.3125 0.34375l-0.0625 0.546875zm10.201904 -4.84375q-0.890625 -0.0625 -2.046875 -0.0625q-1.15625 0 -2.0625 0.0625l0.0625 -0.546875q0.359375 -0.03125 0.75 -0.15625q0.40625 -0.125 0.421875 -0.25q0.140625 -1.21875 0.140625 -4.671875q0 -5.609375 -0.125 -6.5625l-0.03125 -0.3125l-1.1875 -0.359375l-0.046875 -0.484375q1.203125 0 2.46875 -0.34375l0.359375 0.171875q-0.046875 2.1875 -0.046875 5.953125q2.078125 -1.078125 3.734375 -1.078125q0.9375 0 1.421875 0.375q0.484375 0.375 0.484375 1.390625l0 2.546875q0 2.40625 0.140625 3.125l0.046875 0.25q0.015625 0.125 0.40625 0.25q0.40625 0.125 0.78125 0.15625l-0.046875 0.546875q-0.90625 -0.0625 -2.0625 -0.0625q-1.15625 0 -2.046875 0.0625l0.046875 -0.546875q0.359375 -0.03125 0.75 -0.15625q0.40625 -0.125 0.4375 -0.25q0.140625 -0.65625 0.140625 -3.375l0 -1.8125q0 -0.734375 -0.4375 -1.015625q-0.421875 -0.28125 -1.015625 -0.28125q-0.59375 0 -0.96875 0.046875q-0.359375 0.046875 -0.65625 0.125q-0.75 0.203125 -0.96875 0.296875l-0.1875 0.0625q0 5.53125 0.203125 5.953125q0.03125 0.125 0.421875 0.25q0.40625 0.125 0.78125 0.15625l-0.0625 0.546875z" fill-rule="nonzero"/></g></svg>