<svg version="1.1" viewBox="0.0 0.0 480.07086614173227 289.0" fill="none" stroke="none" stroke-linecap="square" stroke-miterlimit="10" xmlns:xlink="http://www.w3.org/1999/xlink" xmlns="http://www.w3.org/2000/svg"><clipPath id="p.0"><path d="m0 0l480.07086 0l0 289.0l-480.07086 0l0 -289.0z" clip-rule="nonzero"/></clipPath><g clip-path="url(#p.0)"><path fill="#000000" fill-opacity="0.0" d="m0 0l480.07086 0l0 289.0l-480.07086 0z" fill-rule="evenodd"/><g filter="url(#shadowFilter-p.1)"><use xlink:href="#p.1" transform="matrix(1.0 0.0 0.0 1.0 0.0 2.0)"/></g><defs><filter id="shadowFilter-p.1" filterUnits="userSpaceOnUse"><feGaussianBlur in="SourceAlpha" stdDeviation="2.0" result="blur"/><feComponentTransfer in="blur" color-interpolation-filters="sRGB"><feFuncR type="linear" slope="0" intercept="0.0"/><feFuncG type="linear" slope="0" intercept="0.0"/><feFuncB type="linear" slope="0" intercept="0.0"/><feFuncA type="linear" slope="0.5" intercept="0"/></feComponentTransfer></filter></defs><g id="p.1"><path fill="#e0e0e0" d="m13.133859 37.683727l0 0c0 -19.621328 16.068394 -35.527557 35.889763 -35.527557l0 0c9.5185585 0 18.647263 3.7430716 25.3779 10.405781c6.7306366 6.66271 10.511864 15.699284 10.511864 25.121778l0 0c0 19.62133 -16.06839 35.52756 -35.889763 35.52756l0 0c-19.821367 0 -35.889763 -15.906231 -35.889763 -35.52756z" fill-rule="evenodd"/><path stroke="#9e9e9e" stroke-width="1.0" stroke-linejoin="round" stroke-linecap="butt" d="m13.133859 37.683727l0 0c0 -19.621328 16.068394 -35.527557 35.889763 -35.527557l0 0c9.5185585 0 18.647263 3.7430716 25.3779 10.405781c6.7306366 6.66271 10.511864 15.699284 10.511864 25.121778l0 0c0 19.62133 -16.06839 35.52756 -35.889763 35.52756l0 0c-19.821367 0 -35.889763 -15.906231 -35.889763 -35.52756z" fill-rule="evenodd"/><path fill="#37474f" d="m40.1926 43.416225q-0.921875 0.765625 -1.765625 1.09375q-0.828125 0.3125 -1.796875 0.3125q-1.59375 0 -2.453125 -0.78125q-0.859375 -0.78125 -0.859375 -1.984375q0 -0.71875 0.328125 -1.296875q0.328125 -0.59375 0.84375 -0.9375q0.53125 -0.359375 1.1875 -0.546875q0.46875 -0.125 1.453125 -0.25q1.984375 -0.234375 2.921875 -0.5625q0.015625 -0.34375 0.015625 -0.421875q0 -1.0 -0.46875 -1.421875q-0.625 -0.546875 -1.875 -0.546875q-1.15625 0 -1.703125 0.40625q-0.546875 0.40625 -0.8125 1.421875l-1.609375 -0.21875q0.21875 -1.015625 0.71875 -1.640625q0.5 -0.640625 1.453125 -0.984375q0.953125 -0.34375 2.1875 -0.34375q1.25 0 2.015625 0.296875q0.78125 0.28125 1.140625 0.734375q0.375 0.4375 0.515625 1.109375q0.078125 0.421875 0.078125 1.515625l0 2.1875q0 2.28125 0.109375 2.890625q0.109375 0.59375 0.40625 1.15625l-1.703125 0q-0.265625 -0.515625 -0.328125 -1.1875zm-0.140625 -3.671875q-0.890625 0.375 -2.671875 0.625q-1.015625 0.140625 -1.4375 0.328125q-0.421875 0.1875 -0.65625 0.53125q-0.21875 0.34375 -0.21875 0.78125q0 0.65625 0.5 1.09375q0.5 0.4375 1.453125 0.4375q0.9375 0 1.671875 -0.40625q0.75 -0.421875 1.09375 -1.140625q0.265625 -0.5625 0.265625 -1.640625l0 -0.609375z" fill-rule="nonzero"/><path fill="#37474f" d="m43.537067 47.2131q0 -1.578125 0.328125 -2.53125q0.328125 -0.96875 0.96875 -1.484375q0.640625 -0.53125 1.609375 -0.53125q0.71875 0 1.25 0.296875q0.546875 0.28125 0.890625 0.828125q0.359375 0.53125 0.5625 1.3125q0.203125 0.78125 0.203125 2.109375q0 1.5625 -0.328125 2.53125q-0.328125 0.953125 -0.96875 1.484375q-0.640625 0.53125 -1.609375 0.53125q-1.296875 0 -2.03125 -0.921875q-0.875 -1.109375 -0.875 -3.625zm1.125 0q0 2.1875 0.515625 2.921875q0.515625 0.71875 1.265625 0.71875q0.75 0 1.265625 -0.71875q0.515625 -0.734375 0.515625 -2.921875q0 -2.203125 -0.515625 -2.921875q-0.515625 -0.71875 -1.28125 -0.71875q-0.75 0 -1.203125 0.640625q-0.5625 0.8125 -0.5625 3.0z" fill-rule="nonzero"/><path fill="#37474f" d="m52.84473 40.228725q-0.90625 -1.15625 -1.53125 -2.671875q-0.625 -1.53125 -0.625 -3.171875q0 -1.453125 0.46875 -2.781252q0.546875 -1.53125 1.6875 -3.0625l0.78125 0q-0.734375 1.265625 -0.96875 1.8125q-0.375 0.84375 -0.578125 1.7500019q-0.265625 1.140625 -0.265625 2.28125q0 2.921875 1.8125 5.84375l-0.78125 0zm1.7510834 -7.015625q0 -1.5781269 0.328125 -2.531252q0.328125 -0.96875 0.96875 -1.484375q0.640625 -0.53125 1.609375 -0.53125q0.71875 0 1.25 0.296875q0.546875 0.28125 0.890625 0.828125q0.359375 0.53125 0.5625 1.3125q0.203125 0.78125 0.203125 2.109377q0 1.5625 -0.328125 2.53125q-0.328125 0.953125 -0.96875 1.484375q-0.640625 0.53125 -1.609375 0.53125q-1.296875 0 -2.03125 -0.921875q-0.875 -1.109375 -0.875 -3.625zm1.125 0q0 2.1875 0.515625 2.921875q0.515625 0.71875 1.265625 0.71875q0.75 0 1.265625 -0.71875q0.515625 -0.734375 0.515625 -2.921875q0 -2.203127 -0.515625 -2.921877q-0.515625 -0.71875 -1.28125 -0.71875q-0.75 0 -1.203125 0.640625q-0.5625 0.8125 -0.5625 3.000002zm6.807663 7.015625l-0.78125 0q1.8125 -2.921875 1.8125 -5.84375q0 -1.140625 -0.25 -2.265625q-0.21875 -0.9062519 -0.578125 -1.7500019q-0.234375 -0.546875 -0.984375 -1.828125l0.78125 0q1.140625 1.53125 1.6875038 3.0625q0.46875 1.3281269 0.46875 2.781252q0 1.640625 -0.625 3.171875q-0.6250038 1.515625 -1.5312538 2.671875z" fill-rule="nonzero"/></g><g filter="url(#shadowFilter-p.2)"><use xlink:href="#p.2" transform="matrix(1.0 0.0 0.0 1.0 0.0 2.000000000000019)"/></g><defs><filter id="shadowFilter-p.2" filterUnits="userSpaceOnUse"><feGaussianBlur in="SourceAlpha" stdDeviation="2.0" result="blur"/><feComponentTransfer in="blur" color-interpolation-filters="sRGB"><feFuncR type="linear" slope="0" intercept="0.0"/><feFuncG type="linear" slope="0" intercept="0.0"/><feFuncB type="linear" slope="0" intercept="0.0"/><feFuncA type="linear" slope="0.5" intercept="0"/></feComponentTransfer></filter></defs><g id="p.2"><path fill="#e0e0e0" d="m13.133859 134.80971l0 0c0 -19.621323 16.068394 -35.527557 35.889763 -35.527557l0 0c9.5185585 0 18.647263 3.7430725 25.3779 10.405785c6.7306366 6.6627045 10.511864 15.69928 10.511864 25.121773l0 0c0 19.621338 -16.06839 35.527557 -35.889763 35.527557l0 0c-19.821367 0 -35.889763 -15.9062195 -35.889763 -35.527557z" fill-rule="evenodd"/><path stroke="#9e9e9e" stroke-width="1.0" stroke-linejoin="round" stroke-linecap="butt" d="m13.133859 134.80971l0 0c0 -19.621323 16.068394 -35.527557 35.889763 -35.527557l0 0c9.5185585 0 18.647263 3.7430725 25.3779 10.405785c6.7306366 6.6627045 10.511864 15.69928 10.511864 25.121773l0 0c0 19.621338 -16.06839 35.527557 -35.889763 35.527557l0 0c-19.821367 0 -35.889763 -15.9062195 -35.889763 -35.527557z" fill-rule="evenodd"/><path fill="#37474f" d="m40.1926 140.5422q-0.921875 0.765625 -1.765625 1.09375q-0.828125 0.3125 -1.796875 0.3125q-1.59375 0 -2.453125 -0.78125q-0.859375 -0.78125 -0.859375 -1.984375q0 -0.71875 0.328125 -1.296875q0.328125 -0.59375 0.84375 -0.9375q0.53125 -0.359375 1.1875 -0.546875q0.46875 -0.125 1.453125 -0.25q1.984375 -0.234375 2.921875 -0.5625q0.015625 -0.34375 0.015625 -0.421875q0 -1.0 -0.46875 -1.421875q-0.625 -0.546875 -1.875 -0.546875q-1.15625 0 -1.703125 0.40625q-0.546875 0.40625 -0.8125 1.421875l-1.609375 -0.21875q0.21875 -1.015625 0.71875 -1.640625q0.5 -0.640625 1.453125 -0.984375q0.953125 -0.34375 2.1875 -0.34375q1.25 0 2.015625 0.296875q0.78125 0.28125 1.140625 0.734375q0.375 0.4375 0.515625 1.109375q0.078125 0.421875 0.078125 1.515625l0 2.1875q0 2.28125 0.109375 2.890625q0.109375 0.59375 0.40625 1.15625l-1.703125 0q-0.265625 -0.515625 -0.328125 -1.1875zm-0.140625 -3.671875q-0.890625 0.375 -2.671875 0.625q-1.015625 0.140625 -1.4375 0.328125q-0.421875 0.1875 -0.65625 0.53125q-0.21875 0.34375 -0.21875 0.78125q0 0.65625 0.5 1.09375q0.5 0.4375 1.453125 0.4375q0.9375 0 1.671875 -0.40625q0.75 -0.421875 1.09375 -1.140625q0.265625 -0.5625 0.265625 -1.640625l0 -0.609375z" fill-rule="nonzero"/><path fill="#37474f" d="m47.662067 148.7297l-1.09375 0l0 -6.96875q-0.40625 0.375 -1.046875 0.75q-0.640625 0.375 -1.140625 0.578125l0 -1.0625q0.90625 -0.4375 1.59375 -1.046875q0.6875 -0.609375 0.96875 -1.1875l0.71875 0l0 8.9375z" fill-rule="nonzero"/><path fill="#37474f" d="m52.84473 137.3547q-0.90625 -1.15625 -1.53125 -2.671875q-0.625 -1.53125 -0.625 -3.171875q0 -1.453125 0.46875 -2.78125q0.546875 -1.53125 1.6875 -3.0625l0.78125 0q-0.734375 1.265625 -0.96875 1.8125q-0.375 0.84375 -0.578125 1.75q-0.265625 1.140625 -0.265625 2.28125q0 2.921875 1.8125 5.84375l-0.78125 0zm1.7510834 -7.015625q0 -1.578125 0.328125 -2.53125q0.328125 -0.96875 0.96875 -1.484375q0.640625 -0.53125 1.609375 -0.53125q0.71875 0 1.25 0.296875q0.546875 0.28125 0.890625 0.828125q0.359375 0.53125 0.5625 1.3125q0.203125 0.78125 0.203125 2.109375q0 1.5625 -0.328125 2.53125q-0.328125 0.953125 -0.96875 1.484375q-0.640625 0.53125 -1.609375 0.53125q-1.296875 0 -2.03125 -0.921875q-0.875 -1.109375 -0.875 -3.625zm1.125 0q0 2.1875 0.515625 2.921875q0.515625 0.71875 1.265625 0.71875q0.75 0 1.265625 -0.71875q0.515625 -0.734375 0.515625 -2.921875q0 -2.203125 -0.515625 -2.921875q-0.515625 -0.71875 -1.28125 -0.71875q-0.75 0 -1.203125 0.640625q-0.5625 0.8125 -0.5625 3.0zm6.807663 7.015625l-0.78125 0q1.8125 -2.921875 1.8125 -5.84375q0 -1.140625 -0.25 -2.265625q-0.21875 -0.90625 -0.578125 -1.75q-0.234375 -0.546875 -0.984375 -1.828125l0.78125 0q1.140625 1.53125 1.6875038 3.0625q0.46875 1.328125 0.46875 2.78125q0 1.640625 -0.625 3.171875q-0.6250038 1.515625 -1.5312538 2.671875z" fill-rule="nonzero"/></g><g filter="url(#shadowFilter-p.3)"><use xlink:href="#p.3" transform="matrix(1.0 0.0 0.0 1.0 0.0 2.0)"/></g><defs><filter id="shadowFilter-p.3" filterUnits="userSpaceOnUse"><feGaussianBlur in="SourceAlpha" stdDeviation="2.0" result="blur"/><feComponentTransfer in="blur" color-interpolation-filters="sRGB"><feFuncR type="linear" slope="0" intercept="0.0"/><feFuncG type="linear" slope="0" intercept="0.0"/><feFuncB type="linear" slope="0" intercept="0.0"/><feFuncA type="linear" slope="0.5" intercept="0"/></feComponentTransfer></filter></defs><g id="p.3"><path fill="#e0e0e0" d="m13.133859 231.9357l0 0c0 -19.621338 16.068394 -35.527557 35.889763 -35.527557l0 0c9.5185585 0 18.647263 3.7430725 25.3779 10.405777c6.7306366 6.6627045 10.511864 15.69928 10.511864 25.12178l0 0c0 19.621323 -16.06839 35.527557 -35.889763 35.527557l0 0c-19.821367 0 -35.889763 -15.906235 -35.889763 -35.527557z" fill-rule="evenodd"/><path stroke="#9e9e9e" stroke-width="1.0" stroke-linejoin="round" stroke-linecap="butt" d="m13.133859 231.9357l0 0c0 -19.621338 16.068394 -35.527557 35.889763 -35.527557l0 0c9.5185585 0 18.647263 3.7430725 25.3779 10.405777c6.7306366 6.6627045 10.511864 15.69928 10.511864 25.12178l0 0c0 19.621323 -16.06839 35.527557 -35.889763 35.527557l0 0c-19.821367 0 -35.889763 -15.906235 -35.889763 -35.527557z" fill-rule="evenodd"/><path fill="#37474f" d="m40.1926 237.6682q-0.921875 0.765625 -1.765625 1.09375q-0.828125 0.3125 -1.796875 0.3125q-1.59375 0 -2.453125 -0.78125q-0.859375 -0.78125 -0.859375 -1.984375q0 -0.71875 0.328125 -1.296875q0.328125 -0.59375 0.84375 -0.9375q0.53125 -0.359375 1.1875 -0.546875q0.46875 -0.125 1.453125 -0.25q1.984375 -0.234375 2.921875 -0.5625q0.015625 -0.34375 0.015625 -0.421875q0 -1.0 -0.46875 -1.421875q-0.625 -0.546875 -1.875 -0.546875q-1.15625 0 -1.703125 0.40625q-0.546875 0.40625 -0.8125 1.421875l-1.609375 -0.21875q0.21875 -1.015625 0.71875 -1.640625q0.5 -0.640625 1.453125 -0.984375q0.953125 -0.34375 2.1875 -0.34375q1.25 0 2.015625 0.296875q0.78125 0.28125 1.140625 0.734375q0.375 0.4375 0.515625 1.109375q0.078125 0.421875 0.078125 1.515625l0 2.1875q0 2.28125 0.109375 2.890625q0.109375 0.59375 0.40625 1.15625l-1.703125 0q-0.265625 -0.515625 -0.328125 -1.1875zm-0.140625 -3.671875q-0.890625 0.375 -2.671875 0.625q-1.015625 0.140625 -1.4375 0.328125q-0.421875 0.1875 -0.65625 0.53125q-0.21875 0.34375 -0.21875 0.78125q0 0.65625 0.5 1.09375q0.5 0.4375 1.453125 0.4375q0.9375 0 1.671875 -0.40625q0.75 -0.421875 1.09375 -1.140625q0.265625 -0.5625 0.265625 -1.640625l0 -0.609375z" fill-rule="nonzero"/><path fill="#37474f" d="m49.287067 244.80882l0 1.046875l-5.890625 0q-0.015625 -0.390625 0.125 -0.765625q0.234375 -0.59375 0.71875 -1.171875q0.5 -0.59375 1.4375 -1.359375q1.453125 -1.1875 1.953125 -1.875q0.515625 -0.703125 0.515625 -1.3125q0 -0.65625 -0.46875 -1.09375q-0.453125 -0.453125 -1.203125 -0.453125q-0.796875 0 -1.265625 0.46875q-0.46875 0.46875 -0.484375 1.3125l-1.125 -0.109375q0.125 -1.265625 0.875 -1.921875q0.75 -0.65625 2.015625 -0.65625q1.28125 0 2.03125 0.71875q0.75 0.703125 0.75 1.75q0 0.53125 -0.21875 1.046875q-0.21875 0.515625 -0.734375 1.09375q-0.5 0.5625 -1.671875 1.5625q-0.984375 0.828125 -1.265625 1.125q-0.28125 0.296875 -0.46875 0.59375l4.375 0z" fill-rule="nonzero"/><path fill="#37474f" d="m52.84473 234.4807q-0.90625 -1.15625 -1.53125 -2.671875q-0.625 -1.53125 -0.625 -3.171875q0 -1.453125 0.46875 -2.78125q0.546875 -1.53125 1.6875 -3.0625l0.78125 0q-0.734375 1.265625 -0.96875 1.8125q-0.375 0.84375 -0.578125 1.75q-0.265625 1.140625 -0.265625 2.28125q0 2.921875 1.8125 5.84375l-0.78125 0zm1.7510834 -7.015625q0 -1.578125 0.328125 -2.53125q0.328125 -0.96875 0.96875 -1.484375q0.640625 -0.53125 1.609375 -0.53125q0.71875 0 1.25 0.296875q0.546875 0.28125 0.890625 0.828125q0.359375 0.53125 0.5625 1.3125q0.203125 0.78125 0.203125 2.109375q0 1.5625 -0.328125 2.53125q-0.328125 0.953125 -0.96875 1.484375q-0.640625 0.53125 -1.609375 0.53125q-1.296875 0 -2.03125 -0.921875q-0.875 -1.109375 -0.875 -3.625zm1.125 0q0 2.1875 0.515625 2.921875q0.515625 0.71875 1.265625 0.71875q0.75 0 1.265625 -0.71875q0.515625 -0.734375 0.515625 -2.921875q0 -2.203125 -0.515625 -2.921875q-0.515625 -0.71875 -1.28125 -0.71875q-0.75 0 -1.203125 0.640625q-0.5625 0.8125 -0.5625 3.0zm6.807663 7.015625l-0.78125 0q1.8125 -2.921875 1.8125 -5.84375q0 -1.140625 -0.25 -2.265625q-0.21875 -0.90625 -0.578125 -1.75q-0.234375 -0.546875 -0.984375 -1.828125l0.78125 0q1.140625 1.53125 1.6875038 3.0625q0.46875 1.328125 0.46875 2.78125q0 1.640625 -0.625 3.171875q-0.6250038 1.515625 -1.5312538 2.671875z" fill-rule="nonzero"/></g><path fill="#000000" fill-opacity="0.0" d="m84.91338 37.683727l65.54331 55.811024" fill-rule="evenodd"/><path stroke="#000000" stroke-width="1.0" stroke-linejoin="round" stroke-linecap="butt" d="m84.91338 37.683727l62.93403 53.589184" fill-rule="evenodd"/><path fill="#000000" stroke="#000000" stroke-width="1.0" stroke-linecap="butt" d="m147.84741 91.27291l-1.5853119 0.12713623l3.081543 1.1469269l-1.6233673 -2.859375z" fill-rule="evenodd"/><path fill="#000000" fill-opacity="0.0" d="m84.91338 134.80971l65.54331 -41.32283" fill-rule="evenodd"/><path stroke="#000000" stroke-width="1.0" stroke-linejoin="round" stroke-linecap="butt" d="m84.91338 134.80971l62.644295 -39.495094" fill-rule="evenodd"/><path fill="#000000" stroke="#000000" stroke-width="1.0" stroke-linecap="butt" d="m147.55768 95.31461l-0.35154724 1.5510635l2.013916 -2.5991364l-3.21344 0.6965332z" fill-rule="evenodd"/><path fill="#000000" fill-opacity="0.0" d="m84.91338 231.9357l65.54331 -138.4252" fill-rule="evenodd"/><path stroke="#000000" stroke-width="1.0" stroke-linejoin="round" stroke-linecap="butt" d="m84.91338 231.9357l64.0767 -135.32779" fill-rule="evenodd"/><path fill="#000000" stroke="#000000" stroke-width="1.0" stroke-linecap="butt" d="m148.99008 96.60792l0.53515625 1.4976654l0.30584717 -3.2738113l-2.3386536 2.311287z" fill-rule="evenodd"/><path fill="#000000" fill-opacity="0.0" d="m84.91338 37.683727l65.51182 152.94489" fill-rule="evenodd"/><path stroke="#000000" stroke-width="1.0" stroke-linejoin="round" stroke-linecap="butt" d="m84.91338 37.683727l64.16244 149.79462" fill-rule="evenodd"/><path fill="#000000" stroke="#000000" stroke-width="1.0" stroke-linecap="butt" d="m149.07582 187.47835l-1.476532 -0.59095764l2.2503052 2.3974l-0.18281555 -3.2829742z" fill-rule="evenodd"/><path fill="#000000" fill-opacity="0.0" d="m84.91338 134.80971l65.51182 55.84253" fill-rule="evenodd"/><path stroke="#000000" stroke-width="1.0" stroke-linejoin="round" stroke-linecap="butt" d="m84.91338 134.80971l62.90368 53.61934" fill-rule="evenodd"/><path fill="#000000" stroke="#000000" stroke-width="1.0" stroke-linecap="butt" d="m147.81706 188.42905l-1.5853729 0.12631226l3.0809479 1.148529l-1.6219025 -2.8602142z" fill-rule="evenodd"/><path fill="#000000" fill-opacity="0.0" d="m84.91338 231.9357l65.51182 -41.291336" fill-rule="evenodd"/><path stroke="#000000" stroke-width="1.0" stroke-linejoin="round" stroke-linecap="butt" d="m84.91338 231.9357l62.61257 -39.463974" fill-rule="evenodd"/><path fill="#000000" stroke="#000000" stroke-width="1.0" stroke-linecap="butt" d="m147.52594 192.47173l-0.35173035 1.5510101l2.0142517 -2.598877l-3.2135315 0.6961212z" fill-rule="evenodd"/><g filter="url(#shadowFilter-p.4)"><use xlink:href="#p.4" transform="matrix(1.0 0.0 0.0 1.0 0.0 2.0)"/></g><defs><filter id="shadowFilter-p.4" filterUnits="userSpaceOnUse"><feGaussianBlur in="SourceAlpha" stdDeviation="2.0" result="blur"/><feComponentTransfer in="blur" color-interpolation-filters="sRGB"><feFuncR type="linear" slope="0" intercept="0.0"/><feFuncG type="linear" slope="0" intercept="0.0"/><feFuncB type="linear" slope="0" intercept="0.0"/><feFuncA type="linear" slope="0.5" intercept="0"/></feComponentTransfer></filter></defs><g id="p.4"><path fill="#e0e0e0" d="m150.44357 189.82152l0 0c0 -20.708496 30.1344 -37.496063 67.30708 -37.496063l0 0c37.172684 0 67.30708 16.787567 67.30708 37.496063l0 0c0 20.708511 -30.1344 37.496063 -67.30708 37.496063l0 0c-37.172684 0 -67.30708 -16.787552 -67.30708 -37.496063z" fill-rule="evenodd"/><path stroke="#9e9e9e" stroke-width="1.0" stroke-linejoin="round" stroke-linecap="butt" d="m150.44357 189.82152l0 0c0 -20.708496 30.1344 -37.496063 67.30708 -37.496063l0 0c37.172684 0 67.30708 16.787567 67.30708 37.496063l0 0c0 20.708511 -30.1344 37.496063 -67.30708 37.496063l0 0c-37.172684 0 -67.30708 -16.787552 -67.30708 -37.496063z" fill-rule="evenodd"/><path fill="#37474f" d="m203.24184 184.96402q-0.71875 0.609375 -1.375 0.859375q-0.65625 0.25 -1.421875 0.25q-1.25 0 -1.921875 -0.609375q-0.671875 -0.609375 -0.671875 -1.5625q0 -0.5625 0.25 -1.015625q0.25 -0.46875 0.65625 -0.75q0.421875 -0.28125 0.9375 -0.421875q0.375 -0.09375 1.140625 -0.1875q1.5625 -0.1875 2.296875 -0.453125q0.015625 -0.265625 0.015625 -0.328125q0 -0.796875 -0.375 -1.109375q-0.484375 -0.4375 -1.453125 -0.4375q-0.921875 0 -1.359375 0.328125q-0.421875 0.3125 -0.625 1.109375l-1.265625 -0.171875q0.171875 -0.796875 0.5625 -1.296875q0.390625 -0.5 1.140625 -0.765625q0.75 -0.265625 1.71875 -0.265625q0.984375 0 1.59375 0.234375q0.609375 0.21875 0.890625 0.5625q0.28125 0.34375 0.40625 0.875q0.0625 0.328125 0.0625 1.1875l0 1.71875q0 1.796875 0.078125 2.28125q0.078125 0.46875 0.328125 0.90625l-1.34375 0q-0.203125 -0.40625 -0.265625 -0.9375zm-0.109375 -2.875q-0.703125 0.28125 -2.09375 0.484375q-0.796875 0.109375 -1.125 0.265625q-0.328125 0.140625 -0.515625 0.421875q-0.171875 0.265625 -0.171875 0.59375q0 0.515625 0.390625 0.859375q0.390625 0.34375 1.140625 0.34375q0.734375 0 1.3125 -0.3125q0.59375 -0.328125 0.859375 -0.890625q0.203125 -0.4375 0.203125 -1.296875l0 -0.46875z" fill-rule="nonzero"/><path fill="#37474f" d="m209.1117 191.40152l-0.859375 0l0 -5.46875q-0.3125 0.296875 -0.8125 0.59375q-0.5 0.296875 -0.90625 0.4375l0 -0.828125q0.71875 -0.34375 1.25 -0.8125q0.546875 -0.484375 0.765625 -0.9375l0.5625 0l0 7.015625z" fill-rule="nonzero"/><path fill="#37474f" d="m213.18341 182.46402q-0.703125 -0.90625 -1.203125 -2.109375q-0.484375 -1.203125 -0.484375 -2.484375q0 -1.140625 0.359375 -2.171875q0.4375 -1.203125 1.328125 -2.40625l0.625 0q-0.578125 0.984375 -0.765625 1.421875q-0.296875 0.65625 -0.46875 1.375q-0.203125 0.890625 -0.203125 1.78125q0 2.296875 1.4375 4.59375l-0.625 0zm4.6113434 -2.0625l-0.859375 0l0 -5.46875q-0.3125 0.296875 -0.8125 0.59375q-0.5 0.296875 -0.90625 0.4375l0 -0.828125q0.71875 -0.34375 1.25 -0.8125q0.546875 -0.484375 0.765625 -0.9375l0.5625 0l0 7.015625zm2.9935913 2.0625l-0.609375 0q1.421875 -2.296875 1.421875 -4.59375q0 -0.890625 -0.203125 -1.78125q-0.15625 -0.703125 -0.453125 -1.359375q-0.1875 -0.4375 -0.765625 -1.4375l0.609375 0q0.90625 1.203125 1.328125 2.40625q0.375 1.03125 0.375 2.171875q0 1.28125 -0.5 2.484375q-0.5 1.203125 -1.203125 2.109375z" fill-rule="nonzero"/><path fill="#37474f" d="m237.37233 179.72964l-6.9375 0l0 -1.203125l6.9375 0l0 1.203125zm0 3.1875l-6.9375 0l0 -1.203125l6.9375 0l0 1.203125z" fill-rule="nonzero"/><path fill="#37474f" d="m188.4233 196.30777l0 1.03125l-2.0625 0q0.953125 0.890625 0.953125 2.765625q0 2.046875 -1.046875 3.015625q-1.03125 0.953125 -2.53125 0.953125q-1.546875 0 -2.546875 -1.0q-1.0 -1.0 -1.0 -2.96875q0 -2.03125 1.03125 -3.0q1.046875 -0.96875 2.515625 -0.96875q0.546875 0 1.21875 0.171875l3.46875 0zm-4.703125 0.890625q-0.9375 0 -1.578125 0.734375q-0.625 0.71875 -0.625 2.171875q0 1.453125 0.609375 2.1875q0.625 0.71875 1.609375 0.71875q1.046875 0 1.65625 -0.75q0.609375 -0.765625 0.609375 -2.15625q0 -1.265625 -0.5625 -2.078125q-0.5625 -0.828125 -1.71875 -0.828125zm8.451904 9.78125q-1.0625 -1.34375 -1.796875 -3.140625q-0.734375 -1.8125 -0.734375 -3.734375q0 -1.703125 0.546875 -3.265625q0.640625 -1.8125 1.984375 -3.609375l0.921875 0q-0.859375 1.484375 -1.140625 2.125q-0.4375 0.984375 -0.6875 2.0625q-0.296875 1.34375 -0.296875 2.6875q0 3.453125 2.125 6.875l-0.921875 0zm2.4587708 -13.75l8.84375 0l0 1.171875l-7.0625 0l4.34375 5.546875l-4.65625 5.890625l7.453125 0l0 1.140625l-9.046875 0l0 -1.328125l4.4375 -5.640625l-4.3125 -5.53125l0 -1.25zm11.823303 10.671875l-2.328125 -7.59375l1.328125 0l1.203125 4.375l0.453125 1.640625q0.03125 -0.125 0.390625 -1.578125l1.21875 -4.4375l1.328125 0l1.125 4.40625l0.390625 1.453125l0.4375 -1.46875l1.296875 -4.390625l1.25 0l-2.375 7.59375l-1.34375 0l-1.203125 -4.546875l-0.296875 -1.296875l-1.53125 5.84375l-1.34375 0z" fill-rule="nonzero"/><path fill="#37474f" d="m215.30405 203.40152l0 -0.984375l0.859375 0l0 0.984375l-0.859375 0zm-1.09375 7.96875l0.171875 -0.734375q0.25 0.0625 0.40625 0.0625q0.25 0 0.375 -0.171875q0.140625 -0.171875 0.140625 -0.875l0 -5.3125l0.859375 0l0 5.34375q0 0.9375 -0.25 1.296875q-0.3125 0.484375 -1.03125 0.484375q-0.34375 0 -0.671875 -0.09375zm3.497696 -1.96875l0 -0.984375l0.96875 0l0 0.984375q0 0.53125 -0.1875 0.859375q-0.1875 0.34375 -0.609375 0.53125l-0.234375 -0.375q0.265625 -0.125 0.390625 -0.359375q0.140625 -0.21875 0.15625 -0.65625l-0.484375 0zm2.4944153 -6.0l0 -0.984375l0.84375 0l0 0.984375l-0.84375 0zm0 6.0l0 -5.0625l0.84375 0l0 5.0625l-0.84375 0z" fill-rule="nonzero"/><path fill="#37474f" d="m227.6376 202.96402q-0.71875 0.609375 -1.375 0.859375q-0.65625 0.25 -1.421875 0.25q-1.25 0 -1.921875 -0.609375q-0.671875 -0.609375 -0.671875 -1.5625q0 -0.5625 0.25 -1.015625q0.25 -0.46875 0.65625 -0.75q0.421875 -0.28125 0.9375 -0.421875q0.375 -0.09375 1.140625 -0.1875q1.5625 -0.1875 2.296875 -0.453125q0.015625 -0.265625 0.015625 -0.328125q0 -0.796875 -0.375 -1.109375q-0.484375 -0.4375 -1.453125 -0.4375q-0.921875 0 -1.359375 0.328125q-0.421875 0.3125 -0.625 1.109375l-1.265625 -0.171875q0.171875 -0.796875 0.5625 -1.296875q0.390625 -0.5 1.140625 -0.765625q0.75 -0.265625 1.71875 -0.265625q0.984375 0 1.59375 0.234375q0.609375 0.21875 0.890625 0.5625q0.28125 0.34375 0.40625 0.875q0.0625 0.328125 0.0625 1.1875l0 1.71875q0 1.796875 0.078125 2.28125q0.078125 0.46875 0.328125 0.90625l-1.34375 0q-0.203125 -0.40625 -0.265625 -0.9375zm-0.109375 -2.875q-0.703125 0.28125 -2.09375 0.484375q-0.796875 0.109375 -1.125 0.265625q-0.328125 0.140625 -0.515625 0.421875q-0.171875 0.265625 -0.171875 0.59375q0 0.515625 0.390625 0.859375q0.390625 0.34375 1.140625 0.34375q0.734375 0 1.3125 -0.3125q0.59375 -0.328125 0.859375 -0.890625q0.203125 -0.4375 0.203125 -1.296875l0 -0.46875z" fill-rule="nonzero"/><path fill="#37474f" d="m230.52309 203.40152l0 -0.984375l0.84375 0l0 0.984375l-0.84375 0zm0 6.0l0 -5.0625l0.84375 0l0 5.0625l-0.84375 0z" fill-rule="nonzero"/><path fill="#37474f" d="m235.7083 202.1984l0 -2.875l-2.8593903 0l0 -1.203125l2.8593903 0l0 -2.84375l1.21875 0l0 2.84375l2.859375 0l0 1.203125l-2.859375 0l0 2.875l-1.21875 0zm7.043396 1.703125l-1.203125 0l0 -10.484375l1.296875 0l0 3.734375q0.8125 -1.015625 2.078125 -1.015625q0.703125 0 1.328125 0.28125q0.625 0.28125 1.03125 0.796875q0.40625 0.5 0.625 1.234375q0.234375 0.71875 0.234375 1.53125q0 1.96875 -0.96875 3.03125q-0.953125 1.0625 -2.3125 1.0625q-1.34375 0 -2.109375 -1.125l0 0.953125zm-0.015625 -3.859375q0 1.375 0.375 1.984375q0.609375 0.984375 1.640625 0.984375q0.84375 0 1.453125 -0.734375q0.625 -0.734375 0.625 -2.1875q0 -1.484375 -0.59375 -2.1875q-0.59375 -0.71875 -1.421875 -0.71875q-0.84375 0 -1.46875 0.734375q-0.609375 0.734375 -0.609375 2.125z" fill-rule="nonzero"/><path fill="#37474f" d="m249.4028 203.40152l0 -0.984375l0.84375 0l0 0.984375l-0.84375 0zm0 6.0l0 -5.0625l0.84375 0l0 5.0625l-0.84375 0z" fill-rule="nonzero"/><path fill="#37474f" d="m252.72862 206.97964l-0.921875 0q2.140625 -3.421875 2.140625 -6.875q0 -1.34375 -0.3125 -2.671875q-0.25 -1.0625 -0.671875 -2.046875q-0.28125 -0.65625 -1.15625 -2.15625l0.921875 0q1.34375 1.796875 1.984375 3.609375q0.546875 1.5625 0.546875 3.265625q0 1.921875 -0.734375 3.734375q-0.734375 1.796875 -1.796875 3.140625z" fill-rule="nonzero"/></g><path fill="#000000" fill-opacity="0.0" d="m285.05774 93.49606l41.039368 0" fill-rule="evenodd"/><path stroke="#000000" stroke-width="1.0" stroke-linejoin="round" stroke-linecap="butt" d="m285.05774 93.49606l37.612305 0" fill-rule="evenodd"/><path fill="#000000" stroke="#000000" stroke-width="1.0" stroke-linecap="butt" d="m322.67 93.49606l-1.1245728 1.1245804l3.0897827 -1.1245804l-3.0897827 -1.1245804z" fill-rule="evenodd"/><path fill="#000000" fill-opacity="0.0" d="m285.05774 93.49606l41.039368 96.31496" fill-rule="evenodd"/><path stroke="#000000" stroke-width="1.0" stroke-linejoin="round" stroke-linecap="butt" d="m285.05774 93.49606l39.695984 93.162155" fill-rule="evenodd"/><path fill="#000000" stroke="#000000" stroke-width="1.0" stroke-linecap="butt" d="m324.75372 186.65822l-1.4754333 -0.59375l2.245758 2.401657l-0.1765747 -3.2833252z" fill-rule="evenodd"/><path fill="#000000" fill-opacity="0.0" d="m285.05774 189.82152l41.039368 -96.31496" fill-rule="evenodd"/><path stroke="#000000" stroke-width="1.0" stroke-linejoin="round" stroke-linecap="butt" d="m285.05774 189.82152l39.695984 -93.16215" fill-rule="evenodd"/><path fill="#000000" stroke="#000000" stroke-width="1.0" stroke-linecap="butt" d="m324.75372 96.65937l0.59375 1.4754105l0.1765747 -3.2833176l-2.245758 2.401657z" fill-rule="evenodd"/><path fill="#000000" fill-opacity="0.0" d="m285.05774 189.82152l41.039368 0" fill-rule="evenodd"/><path stroke="#000000" stroke-width="1.0" stroke-linejoin="round" stroke-linecap="butt" d="m285.05774 189.82152l37.612305 0" fill-rule="evenodd"/><path fill="#000000" stroke="#000000" stroke-width="1.0" stroke-linecap="butt" d="m322.67 189.82152l-1.1245728 1.124588l3.0897827 -1.124588l-3.0897827 -1.1245728z" fill-rule="evenodd"/><path fill="#000000" fill-opacity="0.0" d="m103.57218 31.356955l54.01574 0l0 38.771652l-54.01574 0z" fill-rule="evenodd"/><path fill="#000000" d="m115.16593 55.716957l-2.546875 -8.296875l1.453125 0l1.328125 4.78125l0.484375 1.78125q0.03125 -0.125 0.4375 -1.703125l1.3125 -4.859375l1.453125 0l1.234375 4.8125l0.421875 1.578125l0.46875 -1.59375l1.421875 -4.796875l1.375 0l-2.59375 8.296875l-1.46875 0l-1.3125 -4.96875l-0.328125 -1.421875l-1.671875 6.390625l-1.46875 0z" fill-rule="nonzero"/><path fill="#000000" d="m124.56437 57.951332q0 -1.34375 0.28125 -2.171875q0.28125 -0.828125 0.828125 -1.265625q0.546875 -0.453125 1.375 -0.453125q0.625 0 1.0781174 0.25q0.46875 0.234375 0.765625 0.703125q0.3125 0.46875 0.484375 1.140625q0.171875 0.671875 0.171875 1.796875q0 1.34375 -0.28125 2.171875q-0.28125 0.828125 -0.828125 1.28125q-0.5468674 0.4375 -1.3906174 0.4375q-1.09375 0 -1.71875 -0.78125q-0.765625 -0.953125 -0.765625 -3.109375zm0.96875 0q0 1.875 0.4375 2.5q0.4375 0.625 1.078125 0.625q0.65625 0 1.0937424 -0.625q0.4375 -0.625 0.4375 -2.5q0 -1.875 -0.4375 -2.5q-0.43749237 -0.625 -1.0937424 -0.625q-0.640625 0 -1.03125 0.546875q-0.484375 0.703125 -0.484375 2.578125zm5.473366 3.765625l0 -1.0625l1.0625 0l0 1.0625q0 0.59375 -0.21875 0.953125q-0.203125 0.359375 -0.65625 0.5625l-0.25 -0.40625q0.296875 -0.125 0.4375 -0.390625q0.140625 -0.25 0.15625 -0.71875l-0.53125 0zm2.4450226 -3.765625q0 -1.34375 0.28125 -2.171875q0.28125 -0.828125 0.828125 -1.265625q0.546875 -0.453125 1.375 -0.453125q0.625 0 1.078125 0.25q0.46875 0.234375 0.765625 0.703125q0.3125 0.46875 0.484375 1.140625q0.171875 0.671875 0.171875 1.796875q0 1.34375 -0.28125 2.171875q-0.28125 0.828125 -0.828125 1.28125q-0.546875 0.4375 -1.390625 0.4375q-1.09375 0 -1.71875 -0.78125q-0.765625 -0.953125 -0.765625 -3.109375zm0.96875 0q0 1.875 0.4375 2.5q0.4375 0.625 1.078125 0.625q0.65625 0 1.09375 -0.625q0.4375 -0.625 0.4375 -2.5q0 -1.875 -0.4375 -2.5q-0.4375 -0.625 -1.09375 -0.625q-0.640625 0 -1.03125 0.546875q-0.484375 0.703125 -0.484375 2.578125z" fill-rule="nonzero"/><path fill="#000000" fill-opacity="0.0" d="m96.44095 207.35695l54.015747 0l0 38.771667l-54.015747 0z" fill-rule="evenodd"/><path fill="#000000" d="m108.0347 231.71695l-2.546875 -8.296875l1.453125 0l1.328125 4.78125l0.484375 1.78125q0.03125 -0.125 0.4375 -1.703125l1.3125 -4.859375l1.453125 0l1.234375 4.8125l0.421875 1.578125l0.46875 -1.59375l1.421875 -4.796875l1.375 0l-2.59375 8.296875l-1.46875 0l-1.3125 -4.96875l-0.328125 -1.421875l-1.671875 6.390625l-1.46875 0z" fill-rule="nonzero"/><path fill="#000000" d="m120.964386 237.71695l-0.9375 0l0 -5.96875q-0.34375 0.328125 -0.890625 0.65625q-0.546875 0.3125 -0.984375 0.46875l0 -0.90625q0.796875 -0.359375 1.375 -0.890625q0.59375 -0.53125 0.828125 -1.015625l0.609375 0l0 7.65625zm2.9108734 0l0 -1.0625l1.0625 0l0 1.0625q0 0.59375 -0.21875 0.953125q-0.203125 0.359375 -0.65625 0.5625l-0.25 -0.40625q0.296875 -0.125 0.4375 -0.390625q0.140625 -0.25 0.15625 -0.71875l-0.53125 0zm7.3668976 -0.90625l0 0.90625l-5.03125 0q-0.015625 -0.34375 0.109375 -0.65625q0.1875 -0.515625 0.609375 -1.015625q0.421875 -0.5 1.234375 -1.140625q1.234375 -1.03125 1.671875 -1.625q0.4375 -0.59375 0.4375 -1.125q0 -0.5625 -0.40625 -0.9375q-0.390625 -0.390625 -1.03125 -0.390625q-0.671875 0 -1.078125 0.40625q-0.40625 0.40625 -0.40625 1.125l-0.96875 -0.09375q0.09375 -1.078125 0.734375 -1.640625q0.65625 -0.5625 1.734375 -0.5625q1.109375 0 1.75 0.609375q0.640625 0.609375 0.640625 1.5q0 0.46875 -0.1875 0.90625q-0.1875 0.4375 -0.625 0.9375q-0.4375 0.484375 -1.453125 1.328125q-0.828125 0.71875 -1.078125 0.96875q-0.234375 0.25 -0.390625 0.5l3.734375 0z" fill-rule="nonzero"/><path fill="#000000" fill-opacity="0.0" d="m278.56955 56.0l54.015747 0l0 38.771652l-54.015747 0z" fill-rule="evenodd"/><path fill="#000000" d="m290.1633 80.36l-2.546875 -8.296875l1.453125 0l1.328125 4.78125l0.484375 1.78125q0.03125 -0.125 0.4375 -1.703125l1.3125 -4.859375l1.453125 0l1.234375 4.8125l0.421875 1.578125l0.46875 -1.59375l1.421875 -4.796875l1.375 0l-2.59375 8.296875l-1.46875 0l-1.3125 -4.96875l-0.328125 -1.421875l-1.671875 6.390625l-1.46875 0z" fill-rule="nonzero"/><path fill="#000000" d="m299.56174 82.594376q0 -1.34375 0.28125 -2.171875q0.28125 -0.828125 0.828125 -1.265625q0.546875 -0.453125 1.375 -0.453125q0.625 0 1.078125 0.25q0.46875 0.234375 0.765625 0.703125q0.3125 0.46875 0.484375 1.140625q0.171875 0.671875 0.171875 1.796875q0 1.34375 -0.28125 2.171875q-0.28125 0.828125 -0.828125 1.28125q-0.546875 0.4375 -1.390625 0.4375q-1.09375 0 -1.71875 -0.78125q-0.765625 -0.953125 -0.765625 -3.109375zm0.96875 0q0 1.875 0.4375 2.5q0.4375 0.625 1.078125 0.625q0.65625 0 1.09375 -0.625q0.4375 -0.625 0.4375 -2.5q0 -1.875 -0.4375 -2.5q-0.4375 -0.625 -1.09375 -0.625q-0.640625 0 -1.03125 0.546875q-0.484375 0.703125 -0.484375 2.578125zm5.4733887 3.765625l0 -1.0625l1.0625 0l0 1.0625q0 0.59375 -0.21875 0.953125q-0.203125 0.359375 -0.65625 0.5625l-0.25 -0.40625q0.296875 -0.125 0.4375 -0.390625q0.140625 -0.25 0.15625 -0.71875l-0.53125 0zm2.4450073 -3.765625q0 -1.34375 0.28125 -2.171875q0.28125 -0.828125 0.828125 -1.265625q0.546875 -0.453125 1.375 -0.453125q0.625 0 1.078125 0.25q0.46875 0.234375 0.765625 0.703125q0.3125 0.46875 0.484375 1.140625q0.171875 0.671875 0.171875 1.796875q0 1.34375 -0.28125 2.171875q-0.28125 0.828125 -0.828125 1.28125q-0.546875 0.4375 -1.390625 0.4375q-1.09375 0 -1.71875 -0.78125q-0.765625 -0.953125 -0.765625 -3.109375zm0.96875 0q0 1.875 0.4375 2.5q0.4375 0.625 1.078125 0.625q0.65625 0 1.09375 -0.625q0.4375 -0.625 0.4375 -2.5q0 -1.875 -0.4375 -2.5q-0.4375 -0.625 -1.09375 -0.625q-0.640625 0 -1.03125 0.546875q-0.484375 0.703125 -0.484375 2.578125z" fill-rule="nonzero"/><path fill="#000000" fill-opacity="0.0" d="m285.05774 182.83202l54.015747 0l0 38.771652l-54.015747 0z" fill-rule="evenodd"/><path fill="#000000" d="m296.6515 207.19202l-2.546875 -8.296875l1.453125 0l1.328125 4.78125l0.484375 1.78125q0.03125 -0.125 0.4375 -1.703125l1.3125 -4.859375l1.453125 0l1.234375 4.8125l0.421875 1.578125l0.46875 -1.59375l1.421875 -4.796875l1.375 0l-2.59375 8.296875l-1.46875 0l-1.3125 -4.96875l-0.328125 -1.421875l-1.671875 6.390625l-1.46875 0z" fill-rule="nonzero"/><path fill="#000000" d="m309.58118 213.19202l-0.9375 0l0 -5.96875q-0.34375 0.328125 -0.890625 0.65625q-0.546875 0.3125 -0.984375 0.46875l0 -0.90625q0.796875 -0.359375 1.375 -0.890625q0.59375 -0.53125 0.828125 -1.015625l0.609375 0l0 7.65625zm2.9108887 0l0 -1.0625l1.0625 0l0 1.0625q0 0.59375 -0.21875 0.953125q-0.203125 0.359375 -0.65625 0.5625l-0.25 -0.40625q0.296875 -0.125 0.4375 -0.390625q0.140625 -0.25 0.15625 -0.71875l-0.53125 0zm5.9762573 0l-0.9375 0l0 -5.96875q-0.34375 0.328125 -0.890625 0.65625q-0.546875 0.3125 -0.984375 0.46875l0 -0.90625q0.796875 -0.359375 1.375 -0.890625q0.59375 -0.53125 0.828125 -1.015625l0.609375 0l0 7.65625z" fill-rule="nonzero"/><g filter="url(#shadowFilter-p.5)"><use xlink:href="#p.5" transform="matrix(1.0 0.0 0.0 1.0 0.0 2.0)"/></g><defs><filter id="shadowFilter-p.5" filterUnits="userSpaceOnUse"><feGaussianBlur in="SourceAlpha" stdDeviation="2.0" result="blur"/><feComponentTransfer in="blur" color-interpolation-filters="sRGB"><feFuncR type="linear" slope="0" intercept="0.0"/><feFuncG type="linear" slope="0" intercept="0.0"/><feFuncB type="linear" slope="0" intercept="0.0"/><feFuncA type="linear" slope="0.5" intercept="0"/></feComponentTransfer></filter></defs><g id="p.5"><path fill="#e0e0e0" d="m150.44357 93.49606l0 0c0 -20.708504 30.1344 -37.496063 67.30708 -37.496063l0 0c37.172684 0 67.30708 16.78756 67.30708 37.496063l0 0c0 20.708504 -30.1344 37.496063 -67.30708 37.496063l0 0c-37.172684 0 -67.30708 -16.78756 -67.30708 -37.496063z" fill-rule="evenodd"/><path stroke="#9e9e9e" stroke-width="1.0" stroke-linejoin="round" stroke-linecap="butt" d="m150.44357 93.49606l0 0c0 -20.708504 30.1344 -37.496063 67.30708 -37.496063l0 0c37.172684 0 67.30708 16.78756 67.30708 37.496063l0 0c0 20.708504 -30.1344 37.496063 -67.30708 37.496063l0 0c-37.172684 0 -67.30708 -16.78756 -67.30708 -37.496063z" fill-rule="evenodd"/><path fill="#37474f" d="m203.24184 88.638565q-0.71875 0.609375 -1.375 0.859375q-0.65625 0.25 -1.421875 0.25q-1.25 0 -1.921875 -0.609375q-0.671875 -0.609375 -0.671875 -1.5625q0 -0.5625 0.25 -1.015625q0.25 -0.46875 0.65625 -0.75q0.421875 -0.28125 0.9375 -0.421875q0.375 -0.09375 1.140625 -0.1875q1.5625 -0.1875 2.296875 -0.453125q0.015625 -0.265625 0.015625 -0.328125q0 -0.796875 -0.375 -1.109375q-0.484375 -0.4375 -1.453125 -0.4375q-0.921875 0 -1.359375 0.328125q-0.421875 0.3125 -0.625 1.109375l-1.265625 -0.171875q0.171875 -0.796875 0.5625 -1.296875q0.390625 -0.5 1.140625 -0.765625q0.75 -0.265625 1.71875 -0.265625q0.984375 0 1.59375 0.234375q0.609375 0.21875 0.890625 0.5625q0.28125 0.34375 0.40625 0.875q0.0625 0.328125 0.0625 1.1875l0 1.71875q0 1.796875 0.078125 2.28125q0.078125 0.46875 0.328125 0.90625l-1.34375 0q-0.203125 -0.40625 -0.265625 -0.9375zm-0.109375 -2.875q-0.703125 0.28125 -2.09375 0.484375q-0.796875 0.109375 -1.125 0.265625q-0.328125 0.140625 -0.515625 0.421875q-0.171875 0.265625 -0.171875 0.59375q0 0.515625 0.390625 0.859375q0.390625 0.34375 1.140625 0.34375q0.734375 0 1.3125 -0.3125q0.59375 -0.328125 0.859375 -0.890625q0.203125 -0.4375 0.203125 -1.296875l0 -0.46875z" fill-rule="nonzero"/><path fill="#37474f" d="m205.87732 91.62294q0 -1.234375 0.25 -1.984375q0.265625 -0.765625 0.765625 -1.171875q0.5 -0.40625 1.265625 -0.40625q0.5625 0 0.984375 0.234375q0.421875 0.21875 0.703125 0.640625q0.28125 0.421875 0.4375 1.046875q0.15625 0.609375 0.15625 1.640625q0 1.234375 -0.265625 2.0q-0.25 0.75 -0.75 1.171875q-0.5 0.40625 -1.265625 0.40625q-1.015625 0 -1.59375 -0.734375q-0.6875 -0.875 -0.6875 -2.84375zm0.875 0q0 1.734375 0.40625 2.296875q0.40625 0.5625 1.0 0.5625q0.59375 0 0.984375 -0.5625q0.40625 -0.578125 0.40625 -2.296875q0 -1.71875 -0.40625 -2.28125q-0.390625 -0.578125 -1.0 -0.578125q-0.59375 0 -0.9375 0.5q-0.453125 0.640625 -0.453125 2.359375z" fill-rule="nonzero"/><path fill="#37474f" d="m213.18341 86.138565q-0.703125 -0.90625 -1.203125 -2.109375q-0.484375 -1.203125 -0.484375 -2.484375q0 -1.140625 0.359375 -2.171875q0.4375 -1.203125 1.328125 -2.40625l0.625 0q-0.578125 0.984375 -0.765625 1.421875q-0.296875 0.65625 -0.46875 1.375q-0.203125 0.890625 -0.203125 1.78125q0 2.296875 1.4375 4.59375l-0.625 0zm4.6113434 -2.0625l-0.859375 0l0 -5.46875q-0.3125 0.296875 -0.8125 0.59375q-0.5 0.296875 -0.90625 0.4375l0 -0.828125q0.71875 -0.34375 1.25 -0.8125q0.546875 -0.484375 0.765625 -0.9375l0.5625 0l0 7.015625zm2.9935913 2.0625l-0.609375 0q1.421875 -2.296875 1.421875 -4.59375q0 -0.890625 -0.203125 -1.78125q-0.15625 -0.703125 -0.453125 -1.359375q-0.1875 -0.4375 -0.765625 -1.4375l0.609375 0q0.90625 1.203125 1.328125 2.40625q0.375 1.03125 0.375 2.171875q0 1.28125 -0.5 2.484375q-0.5 1.203125 -1.203125 2.109375z" fill-rule="nonzero"/><path fill="#37474f" d="m237.37233 83.40419l-6.9375 0l0 -1.203125l6.9375 0l0 1.203125zm0 3.1875l-6.9375 0l0 -1.203125l6.9375 0l0 1.203125z" fill-rule="nonzero"/><path fill="#37474f" d="m188.4233 99.982315l0 1.03125l-2.0625 0q0.953125 0.890625 0.953125 2.765625q0 2.046875 -1.046875 3.015625q-1.03125 0.953125 -2.53125 0.953125q-1.546875 0 -2.546875 -1.0q-1.0 -1.0 -1.0 -2.96875q0 -2.03125 1.03125 -3.0q1.046875 -0.96875 2.515625 -0.96875q0.546875 0 1.21875 0.171875l3.46875 0zm-4.703125 0.890625q-0.9375 0 -1.578125 0.734375q-0.625 0.71875 -0.625 2.171875q0 1.453125 0.609375 2.1875q0.625 0.71875 1.609375 0.71875q1.046875 0 1.65625 -0.75q0.609375 -0.765625 0.609375 -2.15625q0 -1.265625 -0.5625 -2.078125q-0.5625 -0.828125 -1.71875 -0.828125zm8.451904 9.78125q-1.0625 -1.34375 -1.796875 -3.140625q-0.734375 -1.8125 -0.734375 -3.734375q0 -1.703125 0.546875 -3.265625q0.640625 -1.8125 1.984375 -3.609375l0.921875 0q-0.859375 1.484375 -1.140625 2.125q-0.4375 0.984375 -0.6875 2.0625q-0.296875 1.34375 -0.296875 2.6875q0 3.453125 2.125 6.875l-0.921875 0zm2.4587708 -13.75l8.84375 0l0 1.171875l-7.0625 0l4.34375 5.546875l-4.65625 5.890625l7.453125 0l0 1.140625l-9.046875 0l0 -1.328125l4.4375 -5.640625l-4.3125 -5.53125l0 -1.25zm11.823303 10.671875l-2.328125 -7.59375l1.328125 0l1.203125 4.375l0.453125 1.640625q0.03125 -0.125 0.390625 -1.578125l1.21875 -4.4375l1.328125 0l1.125 4.40625l0.390625 1.453125l0.4375 -1.46875l1.296875 -4.390625l1.25 0l-2.375 7.59375l-1.34375 0l-1.203125 -4.546875l-0.296875 -1.296875l-1.53125 5.84375l-1.34375 0z" fill-rule="nonzero"/><path fill="#37474f" d="m215.30405 107.076065l0 -0.984375l0.859375 0l0 0.984375l-0.859375 0zm-1.09375 7.96875l0.171875 -0.734375q0.25 0.0625 0.40625 0.0625q0.25 0 0.375 -0.171875q0.140625 -0.171875 0.140625 -0.875l0 -5.3125l0.859375 0l0 5.34375q0 0.9375 -0.25 1.296875q-0.3125 0.484375 -1.03125 0.484375q-0.34375 0 -0.671875 -0.09375zm3.497696 -1.96875l0 -0.984375l0.96875 0l0 0.984375q0 0.53125 -0.1875 0.859375q-0.1875 0.34375 -0.609375 0.53125l-0.234375 -0.375q0.265625 -0.125 0.390625 -0.359375q0.140625 -0.21875 0.15625 -0.65625l-0.484375 0zm2.4944153 -6.0l0 -0.984375l0.84375 0l0 0.984375l-0.84375 0zm0 6.0l0 -5.0625l0.84375 0l0 5.0625l-0.84375 0z" fill-rule="nonzero"/><path fill="#37474f" d="m227.6376 106.638565q-0.71875 0.609375 -1.375 0.859375q-0.65625 0.25 -1.421875 0.25q-1.25 0 -1.921875 -0.609375q-0.671875 -0.609375 -0.671875 -1.5625q0 -0.5625 0.25 -1.015625q0.25 -0.46875 0.65625 -0.75q0.421875 -0.28125 0.9375 -0.421875q0.375 -0.09375 1.140625 -0.1875q1.5625 -0.1875 2.296875 -0.453125q0.015625 -0.265625 0.015625 -0.328125q0 -0.796875 -0.375 -1.109375q-0.484375 -0.4375 -1.453125 -0.4375q-0.921875 0 -1.359375 0.328125q-0.421875 0.3125 -0.625 1.109375l-1.265625 -0.171875q0.171875 -0.796875 0.5625 -1.296875q0.390625 -0.5 1.140625 -0.765625q0.75 -0.265625 1.71875 -0.265625q0.984375 0 1.59375 0.234375q0.609375 0.21875 0.890625 0.5625q0.28125 0.34375 0.40625 0.875q0.0625 0.328125 0.0625 1.1875l0 1.71875q0 1.796875 0.078125 2.28125q0.078125 0.46875 0.328125 0.90625l-1.34375 0q-0.203125 -0.40625 -0.265625 -0.9375zm-0.109375 -2.875q-0.703125 0.28125 -2.09375 0.484375q-0.796875 0.109375 -1.125 0.265625q-0.328125 0.140625 -0.515625 0.421875q-0.171875 0.265625 -0.171875 0.59375q0 0.515625 0.390625 0.859375q0.390625 0.34375 1.140625 0.34375q0.734375 0 1.3125 -0.3125q0.59375 -0.328125 0.859375 -0.890625q0.203125 -0.4375 0.203125 -1.296875l0 -0.46875z" fill-rule="nonzero"/><path fill="#37474f" d="m230.52309 107.076065l0 -0.984375l0.84375 0l0 0.984375l-0.84375 0zm0 6.0l0 -5.0625l0.84375 0l0 5.0625l-0.84375 0z" fill-rule="nonzero"/><path fill="#37474f" d="m235.7083 105.87294l0 -2.875l-2.8593903 0l0 -1.203125l2.8593903 0l0 -2.84375l1.21875 0l0 2.84375l2.859375 0l0 1.203125l-2.859375 0l0 2.875l-1.21875 0zm7.043396 1.703125l-1.203125 0l0 -10.484375l1.296875 0l0 3.734375q0.8125 -1.015625 2.078125 -1.015625q0.703125 0 1.328125 0.28125q0.625 0.28125 1.03125 0.796875q0.40625 0.5 0.625 1.234375q0.234375 0.71875 0.234375 1.53125q0 1.96875 -0.96875 3.03125q-0.953125 1.0625 -2.3125 1.0625q-1.34375 0 -2.109375 -1.125l0 0.953125zm-0.015625 -3.859375q0 1.375 0.375 1.984375q0.609375 0.984375 1.640625 0.984375q0.84375 0 1.453125 -0.734375q0.625 -0.734375 0.625 -2.1875q0 -1.484375 -0.59375 -2.1875q-0.59375 -0.71875 -1.421875 -0.71875q-0.84375 0 -1.46875 0.734375q-0.609375 0.734375 -0.609375 2.125z" fill-rule="nonzero"/><path fill="#37474f" d="m249.4028 107.076065l0 -0.984375l0.84375 0l0 0.984375l-0.84375 0zm0 6.0l0 -5.0625l0.84375 0l0 5.0625l-0.84375 0z" fill-rule="nonzero"/><path fill="#37474f" d="m252.72862 110.65419l-0.921875 0q2.140625 -3.421875 2.140625 -6.875q0 -1.34375 -0.3125 -2.671875q-0.25 -1.0625 -0.671875 -2.046875q-0.28125 -0.65625 -1.15625 -2.15625l0.921875 0q1.34375 1.796875 1.984375 3.609375q0.546875 1.5625 0.546875 3.265625q0 1.921875 -0.734375 3.734375q-0.734375 1.796875 -1.796875 3.140625z" fill-rule="nonzero"/></g><g filter="url(#shadowFilter-p.6)"><use xlink:href="#p.6" transform="matrix(1.0 0.0 0.0 1.0 0.0 2.0)"/></g><defs><filter id="shadowFilter-p.6" filterUnits="userSpaceOnUse"><feGaussianBlur in="SourceAlpha" stdDeviation="2.0" result="blur"/><feComponentTransfer in="blur" color-interpolation-filters="sRGB"><feFuncR type="linear" slope="0" intercept="0.0"/><feFuncG type="linear" slope="0" intercept="0.0"/><feFuncB type="linear" slope="0" intercept="0.0"/><feFuncA type="linear" slope="0.5" intercept="0"/></feComponentTransfer></filter></defs><g id="p.6"><path fill="#e0e0e0" d="m326.10498 93.49606l0 0c0 -20.708504 30.13443 -37.496063 67.3071 -37.496063l0 0c37.17267 0 67.30707 16.78756 67.30707 37.496063l0 0c0 20.708504 -30.1344 37.496063 -67.30707 37.496063l0 0c-37.17267 0 -67.3071 -16.78756 -67.3071 -37.496063z" fill-rule="evenodd"/><path stroke="#9e9e9e" stroke-width="1.0" stroke-linejoin="round" stroke-linecap="butt" d="m326.10498 93.49606l0 0c0 -20.708504 30.13443 -37.496063 67.3071 -37.496063l0 0c37.17267 0 67.30707 16.78756 67.30707 37.496063l0 0c0 20.708504 -30.1344 37.496063 -67.30707 37.496063l0 0c-37.17267 0 -67.3071 -16.78756 -67.3071 -37.496063z" fill-rule="evenodd"/><path fill="#37474f" d="m378.90326 88.638565q-0.71875 0.609375 -1.375 0.859375q-0.65625 0.25 -1.421875 0.25q-1.25 0 -1.921875 -0.609375q-0.671875 -0.609375 -0.671875 -1.5625q0 -0.5625 0.25 -1.015625q0.25 -0.46875 0.65625 -0.75q0.421875 -0.28125 0.9375 -0.421875q0.375 -0.09375 1.140625 -0.1875q1.5625 -0.1875 2.296875 -0.453125q0.015625 -0.265625 0.015625 -0.328125q0 -0.796875 -0.375 -1.109375q-0.484375 -0.4375 -1.453125 -0.4375q-0.921875 0 -1.359375 0.328125q-0.421875 0.3125 -0.625 1.109375l-1.265625 -0.171875q0.171875 -0.796875 0.5625 -1.296875q0.390625 -0.5 1.140625 -0.765625q0.75 -0.265625 1.71875 -0.265625q0.984375 0 1.59375 0.234375q0.609375 0.21875 0.890625 0.5625q0.28125 0.34375 0.40625 0.875q0.0625 0.328125 0.0625 1.1875l0 1.71875q0 1.796875 0.078125 2.28125q0.078125 0.46875 0.328125 0.90625l-1.34375 0q-0.203125 -0.40625 -0.265625 -0.9375zm-0.109375 -2.875q-0.703125 0.28125 -2.09375 0.484375q-0.796875 0.109375 -1.125 0.265625q-0.328125 0.140625 -0.515625 0.421875q-0.171875 0.265625 -0.171875 0.59375q0 0.515625 0.390625 0.859375q0.390625 0.34375 1.140625 0.34375q0.734375 0 1.3125 -0.3125q0.59375 -0.328125 0.859375 -0.890625q0.203125 -0.4375 0.203125 -1.296875l0 -0.46875z" fill-rule="nonzero"/><path fill="#37474f" d="m381.53873 91.62294q0 -1.234375 0.25 -1.984375q0.265625 -0.765625 0.765625 -1.171875q0.5 -0.40625 1.265625 -0.40625q0.5625 0 0.984375 0.234375q0.421875 0.21875 0.703125 0.640625q0.28125 0.421875 0.4375 1.046875q0.15625 0.609375 0.15625 1.640625q0 1.234375 -0.265625 2.0q-0.25 0.75 -0.75 1.171875q-0.5 0.40625 -1.265625 0.40625q-1.015625 0 -1.59375 -0.734375q-0.6875 -0.875 -0.6875 -2.84375zm0.875 0q0 1.734375 0.40625 2.296875q0.40625 0.5625 1.0 0.5625q0.59375 0 0.984375 -0.5625q0.40625 -0.578125 0.40625 -2.296875q0 -1.71875 -0.40625 -2.28125q-0.390625 -0.578125 -1.0 -0.578125q-0.59375 0 -0.9375 0.5q-0.453125 0.640625 -0.453125 2.359375z" fill-rule="nonzero"/><path fill="#37474f" d="m388.84482 86.138565q-0.703125 -0.90625 -1.203125 -2.109375q-0.484375 -1.203125 -0.484375 -2.484375q0 -1.140625 0.359375 -2.171875q0.4375 -1.203125 1.328125 -2.40625l0.625 0q-0.578125 0.984375 -0.765625 1.421875q-0.296875 0.65625 -0.46875 1.375q-0.203125 0.890625 -0.203125 1.78125q0 2.296875 1.4375 4.59375l-0.625 0zm5.8926086 -2.890625l0 0.828125l-4.625 0q-0.015625 -0.3125 0.09375 -0.59375q0.1875 -0.46875 0.5625 -0.921875q0.390625 -0.46875 1.125 -1.0625q1.140625 -0.9375 1.546875 -1.484375q0.40625 -0.546875 0.40625 -1.03125q0 -0.515625 -0.375 -0.859375q-0.359375 -0.359375 -0.953125 -0.359375q-0.609375 0 -0.984375 0.375q-0.375 0.375 -0.375 1.03125l-0.890625 -0.09375q0.09375 -0.984375 0.6875 -1.5q0.59375 -0.515625 1.59375 -0.515625q1.0 0 1.578125 0.5625q0.59375 0.546875 0.59375 1.375q0 0.421875 -0.171875 0.828125q-0.171875 0.40625 -0.578125 0.859375q-0.390625 0.4375 -1.3125 1.21875q-0.78125 0.65625 -1.0 0.890625q-0.21875 0.21875 -0.359375 0.453125l3.4375 0zm1.7123413 2.890625l-0.609375 0q1.421875 -2.296875 1.421875 -4.59375q0 -0.890625 -0.203125 -1.78125q-0.15625 -0.703125 -0.453125 -1.359375q-0.1875 -0.4375 -0.765625 -1.4375l0.609375 0q0.90625 1.203125 1.328125 2.40625q0.375 1.03125 0.375 2.171875q0 1.28125 -0.5 2.484375q-0.5 1.203125 -1.203125 2.109375z" fill-rule="nonzero"/><path fill="#37474f" d="m413.03375 83.40419l-6.9375 0l0 -1.203125l6.9375 0l0 1.203125zm0 3.1875l-6.9375 0l0 -1.203125l6.9375 0l0 1.203125z" fill-rule="nonzero"/><path fill="#37474f" d="m364.08472 99.982315l0 1.03125l-2.0625 0q0.953125 0.890625 0.953125 2.765625q0 2.046875 -1.046875 3.015625q-1.03125 0.953125 -2.53125 0.953125q-1.546875 0 -2.546875 -1.0q-1.0 -1.0 -1.0 -2.96875q0 -2.03125 1.03125 -3.0q1.046875 -0.96875 2.515625 -0.96875q0.546875 0 1.21875 0.171875l3.46875 0zm-4.703125 0.890625q-0.9375 0 -1.578125 0.734375q-0.625 0.71875 -0.625 2.171875q0 1.453125 0.609375 2.1875q0.625 0.71875 1.609375 0.71875q1.046875 0 1.65625 -0.75q0.609375 -0.765625 0.609375 -2.15625q0 -1.265625 -0.5625 -2.078125q-0.5625 -0.828125 -1.71875 -0.828125zm8.451904 9.78125q-1.0625 -1.34375 -1.796875 -3.140625q-0.734375 -1.8125 -0.734375 -3.734375q0 -1.703125 0.546875 -3.265625q0.640625 -1.8125 1.984375 -3.609375l0.921875 0q-0.859375 1.484375 -1.140625 2.125q-0.4375 0.984375 -0.6875 2.0625q-0.296875 1.34375 -0.296875 2.6875q0 3.453125 2.125 6.875l-0.921875 0zm2.4587708 -13.75l8.84375 0l0 1.171875l-7.0625 0l4.34375 5.546875l-4.65625 5.890625l7.453125 0l0 1.140625l-9.046875 0l0 -1.328125l4.4375 -5.640625l-4.3125 -5.53125l0 -1.25zm11.823303 10.671875l-2.328125 -7.59375l1.328125 0l1.203125 4.375l0.453125 1.640625q0.03125 -0.125 0.390625 -1.578125l1.21875 -4.4375l1.328125 0l1.125 4.40625l0.390625 1.453125l0.4375 -1.46875l1.296875 -4.390625l1.25 0l-2.375 7.59375l-1.34375 0l-1.203125 -4.546875l-0.296875 -1.296875l-1.53125 5.84375l-1.34375 0z" fill-rule="nonzero"/><path fill="#37474f" d="m390.96548 107.076065l0 -0.984375l0.859375 0l0 0.984375l-0.859375 0zm-1.09375 7.96875l0.171875 -0.734375q0.25 0.0625 0.40625 0.0625q0.25 0 0.375 -0.171875q0.140625 -0.171875 0.140625 -0.875l0 -5.3125l0.859375 0l0 5.34375q0 0.9375 -0.25 1.296875q-0.3125 0.484375 -1.03125 0.484375q-0.34375 0 -0.671875 -0.09375zm3.4976807 -1.96875l0 -0.984375l0.96875 0l0 0.984375q0 0.53125 -0.1875 0.859375q-0.1875 0.34375 -0.609375 0.53125l-0.234375 -0.375q0.265625 -0.125 0.390625 -0.359375q0.140625 -0.21875 0.15625 -0.65625l-0.484375 0zm2.4944153 -6.0l0 -0.984375l0.84375 0l0 0.984375l-0.84375 0zm0 6.0l0 -5.0625l0.84375 0l0 5.0625l-0.84375 0z" fill-rule="nonzero"/><path fill="#37474f" d="m403.29904 106.638565q-0.71875 0.609375 -1.375 0.859375q-0.65625 0.25 -1.421875 0.25q-1.25 0 -1.921875 -0.609375q-0.671875 -0.609375 -0.671875 -1.5625q0 -0.5625 0.25 -1.015625q0.25 -0.46875 0.65625 -0.75q0.421875 -0.28125 0.9375 -0.421875q0.375 -0.09375 1.140625 -0.1875q1.5625 -0.1875 2.296875 -0.453125q0.015625 -0.265625 0.015625 -0.328125q0 -0.796875 -0.375 -1.109375q-0.484375 -0.4375 -1.453125 -0.4375q-0.921875 0 -1.359375 0.328125q-0.421875 0.3125 -0.625 1.109375l-1.265625 -0.171875q0.171875 -0.796875 0.5625 -1.296875q0.390625 -0.5 1.140625 -0.765625q0.75 -0.265625 1.71875 -0.265625q0.984375 0 1.59375 0.234375q0.609375 0.21875 0.890625 0.5625q0.28125 0.34375 0.40625 0.875q0.0625 0.328125 0.0625 1.1875l0 1.71875q0 1.796875 0.078125 2.28125q0.078125 0.46875 0.328125 0.90625l-1.34375 0q-0.203125 -0.40625 -0.265625 -0.9375zm-0.109375 -2.875q-0.703125 0.28125 -2.09375 0.484375q-0.796875 0.109375 -1.125 0.265625q-0.328125 0.140625 -0.515625 0.421875q-0.171875 0.265625 -0.171875 0.59375q0 0.515625 0.390625 0.859375q0.390625 0.34375 1.140625 0.34375q0.734375 0 1.3125 -0.3125q0.59375 -0.328125 0.859375 -0.890625q0.203125 -0.4375 0.203125 -1.296875l0 -0.46875z" fill-rule="nonzero"/><path fill="#37474f" d="m406.1845 107.076065l0 -0.984375l0.84375 0l0 0.984375l-0.84375 0zm0 6.0l0 -5.0625l0.84375 0l0 5.0625l-0.84375 0z" fill-rule="nonzero"/><path fill="#37474f" d="m411.36972 105.87294l0 -2.875l-2.859375 0l0 -1.203125l2.859375 0l0 -2.84375l1.21875 0l0 2.84375l2.859375 0l0 1.203125l-2.859375 0l0 2.875l-1.21875 0zm7.043396 1.703125l-1.203125 0l0 -10.484375l1.296875 0l0 3.734375q0.8125 -1.015625 2.078125 -1.015625q0.703125 0 1.328125 0.28125q0.625 0.28125 1.03125 0.796875q0.40625 0.5 0.625 1.234375q0.234375 0.71875 0.234375 1.53125q0 1.96875 -0.96875 3.03125q-0.953125 1.0625 -2.3125 1.0625q-1.34375 0 -2.109375 -1.125l0 0.953125zm-0.015625 -3.859375q0 1.375 0.375 1.984375q0.609375 0.984375 1.640625 0.984375q0.84375 0 1.453125 -0.734375q0.625 -0.734375 0.625 -2.1875q0 -1.484375 -0.59375 -2.1875q-0.59375 -0.71875 -1.421875 -0.71875q-0.84375 0 -1.46875 0.734375q-0.609375 0.734375 -0.609375 2.125z" fill-rule="nonzero"/><path fill="#37474f" d="m425.0642 107.076065l0 -0.984375l0.84375 0l0 0.984375l-0.84375 0zm0 6.0l0 -5.0625l0.84375 0l0 5.0625l-0.84375 0z" fill-rule="nonzero"/><path fill="#37474f" d="m428.39005 110.65419l-0.921875 0q2.140625 -3.421875 2.140625 -6.875q0 -1.34375 -0.3125 -2.671875q-0.25 -1.0625 -0.671875 -2.046875q-0.28125 -0.65625 -1.15625 -2.15625l0.921875 0q1.34375 1.796875 1.984375 3.609375q0.546875 1.5625 0.546875 3.265625q0 1.921875 -0.734375 3.734375q-0.734375 1.796875 -1.796875 3.140625z" fill-rule="nonzero"/></g><g filter="url(#shadowFilter-p.7)"><use xlink:href="#p.7" transform="matrix(1.0 0.0 0.0 1.0 0.0 2.0)"/></g><defs><filter id="shadowFilter-p.7" filterUnits="userSpaceOnUse"><feGaussianBlur in="SourceAlpha" stdDeviation="2.0" result="blur"/><feComponentTransfer in="blur" color-interpolation-filters="sRGB"><feFuncR type="linear" slope="0" intercept="0.0"/><feFuncG type="linear" slope="0" intercept="0.0"/><feFuncB type="linear" slope="0" intercept="0.0"/><feFuncA type="linear" slope="0.5" intercept="0"/></feComponentTransfer></filter></defs><g id="p.7"><path fill="#e0e0e0" d="m326.10498 189.82152l0 0c0 -20.708496 30.13443 -37.496063 67.3071 -37.496063l0 0c37.17267 0 67.30707 16.787567 67.30707 37.496063l0 0c0 20.708511 -30.1344 37.496063 -67.30707 37.496063l0 0c-37.17267 0 -67.3071 -16.787552 -67.3071 -37.496063z" fill-rule="evenodd"/><path stroke="#9e9e9e" stroke-width="1.0" stroke-linejoin="round" stroke-linecap="butt" d="m326.10498 189.82152l0 0c0 -20.708496 30.13443 -37.496063 67.3071 -37.496063l0 0c37.17267 0 67.30707 16.787567 67.30707 37.496063l0 0c0 20.708511 -30.1344 37.496063 -67.30707 37.496063l0 0c-37.17267 0 -67.3071 -16.787552 -67.3071 -37.496063z" fill-rule="evenodd"/><path fill="#37474f" d="m378.90326 184.96402q-0.71875 0.609375 -1.375 0.859375q-0.65625 0.25 -1.421875 0.25q-1.25 0 -1.921875 -0.609375q-0.671875 -0.609375 -0.671875 -1.5625q0 -0.5625 0.25 -1.015625q0.25 -0.46875 0.65625 -0.75q0.421875 -0.28125 0.9375 -0.421875q0.375 -0.09375 1.140625 -0.1875q1.5625 -0.1875 2.296875 -0.453125q0.015625 -0.265625 0.015625 -0.328125q0 -0.796875 -0.375 -1.109375q-0.484375 -0.4375 -1.453125 -0.4375q-0.921875 0 -1.359375 0.328125q-0.421875 0.3125 -0.625 1.109375l-1.265625 -0.171875q0.171875 -0.796875 0.5625 -1.296875q0.390625 -0.5 1.140625 -0.765625q0.75 -0.265625 1.71875 -0.265625q0.984375 0 1.59375 0.234375q0.609375 0.21875 0.890625 0.5625q0.28125 0.34375 0.40625 0.875q0.0625 0.328125 0.0625 1.1875l0 1.71875q0 1.796875 0.078125 2.28125q0.078125 0.46875 0.328125 0.90625l-1.34375 0q-0.203125 -0.40625 -0.265625 -0.9375zm-0.109375 -2.875q-0.703125 0.28125 -2.09375 0.484375q-0.796875 0.109375 -1.125 0.265625q-0.328125 0.140625 -0.515625 0.421875q-0.171875 0.265625 -0.171875 0.59375q0 0.515625 0.390625 0.859375q0.390625 0.34375 1.140625 0.34375q0.734375 0 1.3125 -0.3125q0.59375 -0.328125 0.859375 -0.890625q0.203125 -0.4375 0.203125 -1.296875l0 -0.46875z" fill-rule="nonzero"/><path fill="#37474f" d="m384.7731 191.40152l-0.859375 0l0 -5.46875q-0.3125 0.296875 -0.8125 0.59375q-0.5 0.296875 -0.90625 0.4375l0 -0.828125q0.71875 -0.34375 1.25 -0.8125q0.546875 -0.484375 0.765625 -0.9375l0.5625 0l0 7.015625z" fill-rule="nonzero"/><path fill="#37474f" d="m388.84482 182.46402q-0.703125 -0.90625 -1.203125 -2.109375q-0.484375 -1.203125 -0.484375 -2.484375q0 -1.140625 0.359375 -2.171875q0.4375 -1.203125 1.328125 -2.40625l0.625 0q-0.578125 0.984375 -0.765625 1.421875q-0.296875 0.65625 -0.46875 1.375q-0.203125 0.890625 -0.203125 1.78125q0 2.296875 1.4375 4.59375l-0.625 0zm5.8926086 -2.890625l0 0.828125l-4.625 0q-0.015625 -0.3125 0.09375 -0.59375q0.1875 -0.46875 0.5625 -0.921875q0.390625 -0.46875 1.125 -1.0625q1.140625 -0.9375 1.546875 -1.484375q0.40625 -0.546875 0.40625 -1.03125q0 -0.515625 -0.375 -0.859375q-0.359375 -0.359375 -0.953125 -0.359375q-0.609375 0 -0.984375 0.375q-0.375 0.375 -0.375 1.03125l-0.890625 -0.09375q0.09375 -0.984375 0.6875 -1.5q0.59375 -0.515625 1.59375 -0.515625q1.0 0 1.578125 0.5625q0.59375 0.546875 0.59375 1.375q0 0.421875 -0.171875 0.828125q-0.171875 0.40625 -0.578125 0.859375q-0.390625 0.4375 -1.3125 1.21875q-0.78125 0.65625 -1.0 0.890625q-0.21875 0.21875 -0.359375 0.453125l3.4375 0zm1.7123413 2.890625l-0.609375 0q1.421875 -2.296875 1.421875 -4.59375q0 -0.890625 -0.203125 -1.78125q-0.15625 -0.703125 -0.453125 -1.359375q-0.1875 -0.4375 -0.765625 -1.4375l0.609375 0q0.90625 1.203125 1.328125 2.40625q0.375 1.03125 0.375 2.171875q0 1.28125 -0.5 2.484375q-0.5 1.203125 -1.203125 2.109375z" fill-rule="nonzero"/><path fill="#37474f" d="m413.03375 179.72964l-6.9375 0l0 -1.203125l6.9375 0l0 1.203125zm0 3.1875l-6.9375 0l0 -1.203125l6.9375 0l0 1.203125z" fill-rule="nonzero"/><path fill="#37474f" d="m364.08472 196.30777l0 1.03125l-2.0625 0q0.953125 0.890625 0.953125 2.765625q0 2.046875 -1.046875 3.015625q-1.03125 0.953125 -2.53125 0.953125q-1.546875 0 -2.546875 -1.0q-1.0 -1.0 -1.0 -2.96875q0 -2.03125 1.03125 -3.0q1.046875 -0.96875 2.515625 -0.96875q0.546875 0 1.21875 0.171875l3.46875 0zm-4.703125 0.890625q-0.9375 0 -1.578125 0.734375q-0.625 0.71875 -0.625 2.171875q0 1.453125 0.609375 2.1875q0.625 0.71875 1.609375 0.71875q1.046875 0 1.65625 -0.75q0.609375 -0.765625 0.609375 -2.15625q0 -1.265625 -0.5625 -2.078125q-0.5625 -0.828125 -1.71875 -0.828125zm8.451904 9.78125q-1.0625 -1.34375 -1.796875 -3.140625q-0.734375 -1.8125 -0.734375 -3.734375q0 -1.703125 0.546875 -3.265625q0.640625 -1.8125 1.984375 -3.609375l0.921875 0q-0.859375 1.484375 -1.140625 2.125q-0.4375 0.984375 -0.6875 2.0625q-0.296875 1.34375 -0.296875 2.6875q0 3.453125 2.125 6.875l-0.921875 0zm2.4587708 -13.75l8.84375 0l0 1.171875l-7.0625 0l4.34375 5.546875l-4.65625 5.890625l7.453125 0l0 1.140625l-9.046875 0l0 -1.328125l4.4375 -5.640625l-4.3125 -5.53125l0 -1.25zm11.823303 10.671875l-2.328125 -7.59375l1.328125 0l1.203125 4.375l0.453125 1.640625q0.03125 -0.125 0.390625 -1.578125l1.21875 -4.4375l1.328125 0l1.125 4.40625l0.390625 1.453125l0.4375 -1.46875l1.296875 -4.390625l1.25 0l-2.375 7.59375l-1.34375 0l-1.203125 -4.546875l-0.296875 -1.296875l-1.53125 5.84375l-1.34375 0z" fill-rule="nonzero"/><path fill="#37474f" d="m390.96548 203.40152l0 -0.984375l0.859375 0l0 0.984375l-0.859375 0zm-1.09375 7.96875l0.171875 -0.734375q0.25 0.0625 0.40625 0.0625q0.25 0 0.375 -0.171875q0.140625 -0.171875 0.140625 -0.875l0 -5.3125l0.859375 0l0 5.34375q0 0.9375 -0.25 1.296875q-0.3125 0.484375 -1.03125 0.484375q-0.34375 0 -0.671875 -0.09375zm3.4976807 -1.96875l0 -0.984375l0.96875 0l0 0.984375q0 0.53125 -0.1875 0.859375q-0.1875 0.34375 -0.609375 0.53125l-0.234375 -0.375q0.265625 -0.125 0.390625 -0.359375q0.140625 -0.21875 0.15625 -0.65625l-0.484375 0zm2.4944153 -6.0l0 -0.984375l0.84375 0l0 0.984375l-0.84375 0zm0 6.0l0 -5.0625l0.84375 0l0 5.0625l-0.84375 0z" fill-rule="nonzero"/><path fill="#37474f" d="m403.29904 202.96402q-0.71875 0.609375 -1.375 0.859375q-0.65625 0.25 -1.421875 0.25q-1.25 0 -1.921875 -0.609375q-0.671875 -0.609375 -0.671875 -1.5625q0 -0.5625 0.25 -1.015625q0.25 -0.46875 0.65625 -0.75q0.421875 -0.28125 0.9375 -0.421875q0.375 -0.09375 1.140625 -0.1875q1.5625 -0.1875 2.296875 -0.453125q0.015625 -0.265625 0.015625 -0.328125q0 -0.796875 -0.375 -1.109375q-0.484375 -0.4375 -1.453125 -0.4375q-0.921875 0 -1.359375 0.328125q-0.421875 0.3125 -0.625 1.109375l-1.265625 -0.171875q0.171875 -0.796875 0.5625 -1.296875q0.390625 -0.5 1.140625 -0.765625q0.75 -0.265625 1.71875 -0.265625q0.984375 0 1.59375 0.234375q0.609375 0.21875 0.890625 0.5625q0.28125 0.34375 0.40625 0.875q0.0625 0.328125 0.0625 1.1875l0 1.71875q0 1.796875 0.078125 2.28125q0.078125 0.46875 0.328125 0.90625l-1.34375 0q-0.203125 -0.40625 -0.265625 -0.9375zm-0.109375 -2.875q-0.703125 0.28125 -2.09375 0.484375q-0.796875 0.109375 -1.125 0.265625q-0.328125 0.140625 -0.515625 0.421875q-0.171875 0.265625 -0.171875 0.59375q0 0.515625 0.390625 0.859375q0.390625 0.34375 1.140625 0.34375q0.734375 0 1.3125 -0.3125q0.59375 -0.328125 0.859375 -0.890625q0.203125 -0.4375 0.203125 -1.296875l0 -0.46875z" fill-rule="nonzero"/><path fill="#37474f" d="m406.1845 203.40152l0 -0.984375l0.84375 0l0 0.984375l-0.84375 0zm0 6.0l0 -5.0625l0.84375 0l0 5.0625l-0.84375 0z" fill-rule="nonzero"/><path fill="#37474f" d="m411.36972 202.1984l0 -2.875l-2.859375 0l0 -1.203125l2.859375 0l0 -2.84375l1.21875 0l0 2.84375l2.859375 0l0 1.203125l-2.859375 0l0 2.875l-1.21875 0zm7.043396 1.703125l-1.203125 0l0 -10.484375l1.296875 0l0 3.734375q0.8125 -1.015625 2.078125 -1.015625q0.703125 0 1.328125 0.28125q0.625 0.28125 1.03125 0.796875q0.40625 0.5 0.625 1.234375q0.234375 0.71875 0.234375 1.53125q0 1.96875 -0.96875 3.03125q-0.953125 1.0625 -2.3125 1.0625q-1.34375 0 -2.109375 -1.125l0 0.953125zm-0.015625 -3.859375q0 1.375 0.375 1.984375q0.609375 0.984375 1.640625 0.984375q0.84375 0 1.453125 -0.734375q0.625 -0.734375 0.625 -2.1875q0 -1.484375 -0.59375 -2.1875q-0.59375 -0.71875 -1.421875 -0.71875q-0.84375 0 -1.46875 0.734375q-0.609375 0.734375 -0.609375 2.125z" fill-rule="nonzero"/><path fill="#37474f" d="m425.0642 203.40152l0 -0.984375l0.84375 0l0 0.984375l-0.84375 0zm0 6.0l0 -5.0625l0.84375 0l0 5.0625l-0.84375 0z" fill-rule="nonzero"/><path fill="#37474f" d="m428.39005 206.97964l-0.921875 0q2.140625 -3.421875 2.140625 -6.875q0 -1.34375 -0.3125 -2.671875q-0.25 -1.0625 -0.671875 -2.046875q-0.28125 -0.65625 -1.15625 -2.15625l0.921875 0q1.34375 1.796875 1.984375 3.609375q0.546875 1.5625 0.546875 3.265625q0 1.921875 -0.734375 3.734375q-0.734375 1.796875 -1.796875 3.140625z" fill-rule="nonzero"/></g></g></svg>