<svg version="1.1" viewBox="0.0 0.0 273.750656167979 146.249343832021" fill="none" stroke="none" stroke-linecap="square" stroke-miterlimit="10" xmlns:xlink="http://www.w3.org/1999/xlink" xmlns="http://www.w3.org/2000/svg"><clipPath id="p.0"><path d="m0 0l273.75067 0l0 146.24934l-273.75067 0l0 -146.24934z" clip-rule="nonzero"/></clipPath><g clip-path="url(#p.0)"><path fill="#000000" fill-opacity="0.0" d="m0 0l273.75067 0l0 146.24934l-273.75067 0z" fill-rule="evenodd"/><g filter="url(#shadowFilter-p.1)"><use xlink:href="#p.1" transform="matrix(1.0 0.0 0.0 1.0 0.0 2.0)"/></g><defs><filter id="shadowFilter-p.1" filterUnits="userSpaceOnUse"><feGaussianBlur in="SourceAlpha" stdDeviation="2.0" result="blur"/><feComponentTransfer in="blur" color-interpolation-filters="sRGB"><feFuncR type="linear" slope="0" intercept="0.0"/><feFuncG type="linear" slope="0" intercept="0.0"/><feFuncB type="linear" slope="0" intercept="0.0"/><feFuncA type="linear" slope="0.5" intercept="0"/></feComponentTransfer></filter></defs><g id="p.1"><path fill="#e0e0e0" d="m113.485565 70.779526l0 0c0 -19.882248 17.901566 -36.0 39.984253 -36.0l0 0c22.082687 0 39.984253 16.117752 39.984253 36.0l0 0c0 19.882256 -17.901566 36.0 -39.984253 36.0l0 0c-22.082687 0 -39.984253 -16.117744 -39.984253 -36.0z" fill-rule="evenodd"/><path stroke="#9e9e9e" stroke-width="1.0" stroke-linejoin="round" stroke-linecap="butt" d="m113.485565 70.779526l0 0c0 -19.882248 17.901566 -36.0 39.984253 -36.0l0 0c22.082687 0 39.984253 16.117752 39.984253 36.0l0 0c0 19.882256 -17.901566 36.0 -39.984253 36.0l0 0c-22.082687 0 -39.984253 -16.117744 -39.984253 -36.0z" fill-rule="evenodd"/><path fill="#37474f" d="m135.29044 64.98328l9.65625 0l0 1.28125l-7.71875 0l4.75 6.0625l-5.078125 6.421875l8.125 0l0 1.265625l-9.875 0l0 -1.46875l4.84375 -6.15625l-4.703125 -6.03125l0 -1.375zm12.90625 11.65625l-2.546875 -8.296875l1.453125 0l1.328125 4.78125l0.484375 1.78125q0.03125 -0.125 0.4375 -1.703125l1.3125 -4.859375l1.453125 0l1.234375 4.8125l0.421875 1.578125l0.46875 -1.59375l1.421875 -4.796875l1.375 0l-2.59375 8.296875l-1.46875 0l-1.3125 -4.96875l-0.328125 -1.421875l-1.671875 6.390625l-1.46875 0z" fill-rule="nonzero"/><path fill="#37474f" d="m157.86075 76.09265l0 -1.078125l0.9375 0l0 1.078125l-0.9375 0zm0 6.546875l0 -5.53125l0.9375 0l0 5.53125l-0.9375 0z" fill-rule="nonzero"/><path fill="#37474f" d="m165.99385 75.60828q-0.78125 0.671875 -1.5 0.953125q-0.71875 0.265625 -1.546875 0.265625q-1.375 0 -2.109375 -0.671875q-0.734375 -0.671875 -0.734375 -1.703125q0 -0.609375 0.28125 -1.109375q0.28125 -0.515625 0.71875 -0.8125q0.453125 -0.3125 1.015625 -0.46875q0.421875 -0.109375 1.25 -0.203125q1.703125 -0.203125 2.515625 -0.484375q0 -0.296875 0 -0.375q0 -0.859375 -0.390625 -1.203125q-0.546875 -0.484375 -1.609375 -0.484375q-0.984375 0 -1.46875 0.359375q-0.46875 0.34375 -0.6875 1.21875l-1.375 -0.1875q0.1875 -0.875 0.609375 -1.421875q0.4375 -0.546875 1.25 -0.828125q0.8125 -0.296875 1.875 -0.296875q1.0625 0 1.71875 0.25q0.671875 0.25 0.984375 0.625q0.3125 0.375 0.4375 0.953125q0.078125 0.359375 0.078125 1.296875l0 1.875q0 1.96875 0.078125 2.484375q0.09375 0.515625 0.359375 1.0l-1.46875 0q-0.21875 -0.4375 -0.28125 -1.03125zm-0.109375 -3.140625q-0.765625 0.3125 -2.296875 0.53125q-0.875 0.125 -1.234375 0.28125q-0.359375 0.15625 -0.5625 0.46875q-0.1875 0.296875 -0.1875 0.65625q0 0.5625 0.421875 0.9375q0.4375 0.375 1.25 0.375q0.8125 0 1.4375 -0.34375q0.640625 -0.359375 0.9375 -0.984375q0.234375 -0.46875 0.234375 -1.40625l0 -0.515625z" fill-rule="nonzero"/><path fill="#37474f" d="m169.12666 76.09265l0 -1.078125l0.9375 0l0 1.078125l-0.9375 0zm0 6.546875l0 -5.53125l0.9375 0l0 5.53125l-0.9375 0z" fill-rule="nonzero"/></g><path fill="#000000" fill-opacity="0.0" d="m52.868767 24.96588l60.62992 45.826767" fill-rule="evenodd"/><path stroke="#000000" stroke-width="1.0" stroke-linejoin="round" stroke-linecap="butt" d="m52.868767 24.96588l57.895935 43.760307" fill-rule="evenodd"/><path fill="#000000" stroke="#000000" stroke-width="1.0" stroke-linecap="butt" d="m110.76471 68.72619l-1.5752487 0.21903992l3.1429825 0.9659271l-1.7867813 -2.7602158z" fill-rule="evenodd"/><path fill="#000000" fill-opacity="0.0" d="m52.868767 70.779526l60.62992 0" fill-rule="evenodd"/><path stroke="#000000" stroke-width="1.0" stroke-linejoin="round" stroke-linecap="butt" d="m52.868767 70.779526l57.202835 0" fill-rule="evenodd"/><path fill="#000000" stroke="#000000" stroke-width="1.0" stroke-linecap="butt" d="m110.0716 70.779526l-1.124588 1.124588l3.089775 -1.124588l-3.089775 -1.1245804z" fill-rule="evenodd"/><path fill="#000000" fill-opacity="0.0" d="m52.868767 116.59318l60.62992 -45.826775" fill-rule="evenodd"/><path stroke="#000000" stroke-width="1.0" stroke-linejoin="round" stroke-linecap="butt" d="m52.868767 116.59318l57.895935 -43.760307" fill-rule="evenodd"/><path fill="#000000" stroke="#000000" stroke-width="1.0" stroke-linecap="butt" d="m110.76471 72.83287l-0.21904755 1.5752411l1.7867813 -2.7602081l-3.1429825 0.9659195z" fill-rule="evenodd"/><path fill="#000000" fill-opacity="0.0" d="m245.1181 51.879265l37.480316 0l0 38.771652l-37.480316 0z" fill-rule="evenodd"/><path fill="#000000" d="m255.1181 79.44239l-0.15625 -1.328125q0.453125 0.125 0.796875 0.125q0.46875 0 0.75 -0.15625q0.28125 -0.15625 0.46875 -0.4375q0.125 -0.203125 0.421875 -1.046875q0.046875 -0.109375 0.125 -0.34375l-3.140625 -8.3125l1.515625 0l1.71875 4.796875q0.34375 0.921875 0.609375 1.921875q0.234375 -0.96875 0.578125 -1.890625l1.765625 -4.828125l1.40625 0l-3.15625 8.4375q-0.5 1.375 -0.78125 1.890625q-0.375 0.6875 -0.859375 1.015625q-0.484375 0.328125 -1.15625 0.328125q-0.40625 0 -0.90625 -0.171875z" fill-rule="nonzero"/><path fill="#000000" fill-opacity="0.0" d="m193.45407 70.779526l51.653534 0.47244263" fill-rule="evenodd"/><path stroke="#000000" stroke-width="1.0" stroke-linejoin="round" stroke-linecap="butt" d="m193.45407 70.779526l48.22661 0.44110107" fill-rule="evenodd"/><path fill="#000000" stroke="#000000" stroke-width="1.0" stroke-linecap="butt" d="m241.68066 71.22063l-1.1348114 1.1142502l3.0999146 -1.0962753l-3.0793457 -1.1528015z" fill-rule="evenodd"/><path fill="#000000" fill-opacity="0.0" d="m66.08137 15.532808l44.62992 0l0 38.771652l-44.62992 0z" fill-rule="evenodd"/><path fill="#000000" d="m77.67512 39.89281l-2.546875 -8.296877l1.453125 0l1.328125 4.781252l0.484375 1.78125q0.03125 -0.125 0.4375 -1.703125l1.3125 -4.859377l1.453125 0l1.234375 4.812502l0.421875 1.578125l0.46875 -1.59375l1.421875 -4.796877l1.375 0l-2.59375 8.296877l-1.46875 0l-1.3125 -4.96875l-0.328125 -1.421875l-1.671875 6.390625l-1.46875 0z" fill-rule="nonzero"/><path fill="#000000" d="m87.073555 42.127186q0 -1.34375 0.28125 -2.171875q0.28125 -0.828125 0.828125 -1.265625q0.546875 -0.453125 1.375 -0.453125q0.625 0 1.078125 0.25q0.46875 0.234375 0.765625 0.703125q0.3125 0.46875 0.484375 1.140625q0.171875 0.671875 0.171875 1.796875q0 1.34375 -0.28125 2.171875q-0.28125 0.828125 -0.828125 1.28125q-0.546875 0.4375 -1.390625 0.4375q-1.09375 0 -1.71875 -0.78125q-0.765625 -0.953125 -0.765625 -3.109375zm0.96875 0q0 1.875 0.4375 2.5q0.4375 0.625 1.078125 0.625q0.65625 0 1.09375 -0.625q0.4375 -0.625 0.4375 -2.5q0 -1.875 -0.4375 -2.5q-0.4375 -0.625 -1.09375 -0.625q-0.640625 0 -1.03125 0.546875q-0.484375 0.703125 -0.484375 2.578125z" fill-rule="nonzero"/><path fill="#000000" fill-opacity="0.0" d="m57.782154 38.48819l44.629917 0l0 38.771652l-44.629917 0z" fill-rule="evenodd"/><path fill="#000000" d="m69.3759 62.84819l-2.546875 -8.296875l1.453125 0l1.328125 4.78125l0.484375 1.78125q0.03125 -0.125 0.4375 -1.703125l1.3125 -4.859375l1.453125 0l1.234375 4.8125l0.421875 1.578125l0.46875 -1.59375l1.421875 -4.796875l1.375 0l-2.59375 8.296875l-1.46875 0l-1.3125 -4.96875l-0.328125 -1.421875l-1.671875 6.390625l-1.46875 0z" fill-rule="nonzero"/><path fill="#000000" d="m82.30559 68.84819l-0.9375 0l0 -5.96875q-0.34375 0.328125 -0.890625 0.65625q-0.546875 0.3125 -0.984375 0.46875l0 -0.90625q0.796875 -0.359375 1.375 -0.890625q0.59375 -0.53125 0.828125 -1.015625l0.609375 0l0 7.65625z" fill-rule="nonzero"/><path fill="#000000" fill-opacity="0.0" d="m55.11811 64.00787l44.62992 0l0 38.771652l-44.62992 0z" fill-rule="evenodd"/><path fill="#000000" d="m66.71186 88.367874l-2.546875 -8.296875l1.453125 0l1.328125 4.78125l0.484375 1.78125q0.03125 -0.125 0.4375 -1.703125l1.3125 -4.859375l1.453125 0l1.234375 4.8125l0.421875 1.578125l0.46875 -1.59375l1.421875 -4.796875l1.375 0l-2.59375 8.296875l-1.46875 0l-1.3125 -4.96875l-0.328125 -1.421875l-1.671875 6.390625l-1.46875 0z" fill-rule="nonzero"/><path fill="#000000" d="m81.03217 93.461624l0 0.90625l-5.03125 0q-0.015625 -0.34375 0.109375 -0.65625q0.1875 -0.515625 0.609375 -1.015625q0.421875 -0.5 1.234375 -1.140625q1.234375 -1.03125 1.671875 -1.625q0.4375 -0.59375 0.4375 -1.125q0 -0.5625 -0.40625 -0.9375q-0.390625 -0.390625 -1.03125 -0.390625q-0.671875 0 -1.078125 0.40625q-0.40625 0.40625 -0.40625 1.125l-0.96875 -0.09375q0.09375 -1.078125 0.734375 -1.640625q0.65625 -0.5625 1.734375 -0.5625q1.109375 0 1.75 0.609375q0.640625 0.609375 0.640625 1.5q0 0.46875 -0.1875 0.90625q-0.1875 0.4375 -0.625 0.9375q-0.4375 0.484375 -1.453125 1.328125q-0.828125 0.71875 -1.078125 0.96875q-0.234375 0.25 -0.390625 0.5l3.734375 0z" fill-rule="nonzero"/><g filter="url(#shadowFilter-p.2)"><use xlink:href="#p.2" transform="matrix(1.0 0.0 0.0 1.0 0.0 2.0)"/></g><defs><filter id="shadowFilter-p.2" filterUnits="userSpaceOnUse"><feGaussianBlur in="SourceAlpha" stdDeviation="2.0" result="blur"/><feComponentTransfer in="blur" color-interpolation-filters="sRGB"><feFuncR type="linear" slope="0" intercept="0.0"/><feFuncG type="linear" slope="0" intercept="0.0"/><feFuncB type="linear" slope="0" intercept="0.0"/><feFuncA type="linear" slope="0.5" intercept="0"/></feComponentTransfer></filter></defs><g id="p.2"><path fill="#e0e0e0" d="m4.9317584 24.96588l0 0c0 -11.558842 10.731066 -20.929134 23.968504 -20.929134l0 0c13.23744 0 23.968504 9.370293 23.968504 20.929134l0 0c0 11.55884 -10.731064 20.929132 -23.968504 20.929132l0 0c-13.237439 0 -23.968504 -9.370293 -23.968504 -20.929132z" fill-rule="evenodd"/><path stroke="#9e9e9e" stroke-width="1.0" stroke-linejoin="round" stroke-linecap="butt" d="m4.9317584 24.96588l0 0c0 -11.558842 10.731066 -20.929134 23.968504 -20.929134l0 0c13.23744 0 23.968504 9.370293 23.968504 20.929134l0 0c0 11.55884 -10.731064 20.929132 -23.968504 20.929132l0 0c-13.237439 0 -23.968504 -9.370293 -23.968504 -20.929132z" fill-rule="evenodd"/><path fill="#37474f" d="m27.420721 29.794628q-0.78125 0.671875 -1.5 0.953125q-0.71875 0.265625 -1.546875 0.265625q-1.375 0 -2.109375 -0.671875q-0.734375 -0.671875 -0.734375 -1.703125q0 -0.609375 0.28125 -1.109375q0.28125 -0.515625 0.71875 -0.8125q0.453125 -0.3125 1.015625 -0.46875q0.421875 -0.109375 1.25 -0.203125q1.703125 -0.203125 2.515625 -0.484375q0 -0.296875 0 -0.375q0 -0.859375 -0.390625 -1.203125q-0.546875 -0.484375 -1.609375 -0.484375q-0.984375 0 -1.46875 0.359375q-0.46875 0.34375 -0.6875 1.21875l-1.375 -0.1875q0.1875 -0.875 0.609375 -1.421875q0.4375 -0.546875 1.25 -0.828125q0.8125 -0.296875 1.875 -0.296875q1.0625 0 1.71875 0.25q0.671875 0.25 0.984375 0.625q0.3125 0.375 0.4375 0.953125q0.078125 0.359375 0.078125 1.296875l0 1.875q0 1.96875 0.078125 2.484375q0.09375 0.515625 0.359375 1.0l-1.46875 0q-0.21875 -0.4375 -0.28125 -1.03125zm-0.109375 -3.140625q-0.765625 0.3125 -2.296875 0.53125q-0.875 0.125 -1.234375 0.28125q-0.359375 0.15625 -0.5625 0.46875q-0.1875 0.296875 -0.1875 0.65625q0 0.5625 0.421875 0.9375q0.4375 0.375 1.25 0.375q0.8125 0 1.4375 -0.34375q0.640625 -0.359375 0.9375 -0.984375q0.234375 -0.46875 0.234375 -1.40625l0 -0.515625z" fill-rule="nonzero"/><path fill="#37474f" d="m30.287909 33.060253q0 -1.34375 0.28125 -2.171875q0.28125 -0.828125 0.828125 -1.265625q0.546875 -0.453125 1.3749981 -0.453125q0.625 0 1.078125 0.25q0.46875 0.234375 0.765625 0.703125q0.3125 0.46875 0.484375 1.140625q0.171875 0.671875 0.171875 1.796875q0 1.34375 -0.28125 2.171875q-0.28125 0.828125 -0.828125 1.28125q-0.546875 0.4375 -1.390625 0.4375q-1.0937481 0 -1.7187481 -0.78125q-0.765625 -0.953125 -0.765625 -3.109375zm0.96875 0q0 1.875 0.4375 2.5q0.4374981 0.625 1.0781231 0.625q0.65625 0 1.09375 -0.625q0.4375 -0.625 0.4375 -2.5q0 -1.875 -0.4375 -2.5q-0.4375 -0.625 -1.09375 -0.625q-0.640625 0 -1.0312481 0.546875q-0.484375 0.703125 -0.484375 2.578125z" fill-rule="nonzero"/></g><g filter="url(#shadowFilter-p.3)"><use xlink:href="#p.3" transform="matrix(1.0 0.0 0.0 1.0 0.0 2.0)"/></g><defs><filter id="shadowFilter-p.3" filterUnits="userSpaceOnUse"><feGaussianBlur in="SourceAlpha" stdDeviation="2.0" result="blur"/><feComponentTransfer in="blur" color-interpolation-filters="sRGB"><feFuncR type="linear" slope="0" intercept="0.0"/><feFuncG type="linear" slope="0" intercept="0.0"/><feFuncB type="linear" slope="0" intercept="0.0"/><feFuncA type="linear" slope="0.5" intercept="0"/></feComponentTransfer></filter></defs><g id="p.3"><path fill="#e0e0e0" d="m4.9317584 116.59318l0 0c0 -11.5588455 10.731066 -20.929138 23.968504 -20.929138l0 0c13.23744 0 23.968504 9.370293 23.968504 20.929138l0 0c0 11.5588455 -10.731064 20.92913 -23.968504 20.92913l0 0c-13.237439 0 -23.968504 -9.370285 -23.968504 -20.92913z" fill-rule="evenodd"/><path stroke="#9e9e9e" stroke-width="1.0" stroke-linejoin="round" stroke-linecap="butt" d="m4.9317584 116.59318l0 0c0 -11.5588455 10.731066 -20.929138 23.968504 -20.929138l0 0c13.23744 0 23.968504 9.370293 23.968504 20.929138l0 0c0 11.5588455 -10.731064 20.92913 -23.968504 20.92913l0 0c-13.237439 0 -23.968504 -9.370285 -23.968504 -20.92913z" fill-rule="evenodd"/><path fill="#37474f" d="m27.420721 121.42193q-0.78125 0.671875 -1.5 0.953125q-0.71875 0.265625 -1.546875 0.265625q-1.375 0 -2.109375 -0.671875q-0.734375 -0.671875 -0.734375 -1.703125q0 -0.609375 0.28125 -1.109375q0.28125 -0.515625 0.71875 -0.8125q0.453125 -0.3125 1.015625 -0.46875q0.421875 -0.109375 1.25 -0.203125q1.703125 -0.203125 2.515625 -0.484375q0 -0.296875 0 -0.375q0 -0.859375 -0.390625 -1.203125q-0.546875 -0.484375 -1.609375 -0.484375q-0.984375 0 -1.46875 0.359375q-0.46875 0.34375 -0.6875 1.21875l-1.375 -0.1875q0.1875 -0.875 0.609375 -1.421875q0.4375 -0.546875 1.25 -0.828125q0.8125 -0.296875 1.875 -0.296875q1.0625 0 1.71875 0.25q0.671875 0.25 0.984375 0.625q0.3125 0.375 0.4375 0.953125q0.078125 0.359375 0.078125 1.296875l0 1.875q0 1.96875 0.078125 2.484375q0.09375 0.515625 0.359375 1.0l-1.46875 0q-0.21875 -0.4375 -0.28125 -1.03125zm-0.109375 -3.140625q-0.765625 0.3125 -2.296875 0.53125q-0.875 0.125 -1.234375 0.28125q-0.359375 0.15625 -0.5625 0.46875q-0.1875 0.296875 -0.1875 0.65625q0 0.5625 0.421875 0.9375q0.4375 0.375 1.25 0.375q0.8125 0 1.4375 -0.34375q0.640625 -0.359375 0.9375 -0.984375q0.234375 -0.46875 0.234375 -1.40625l0 -0.515625z" fill-rule="nonzero"/><path fill="#37474f" d="m35.20978 127.54693l0 0.9062424l-5.031248 0q-0.015625 -0.34375 0.109375 -0.6562424q0.1875 -0.515625 0.609375 -1.015625q0.421875 -0.5 1.2343731 -1.140625q1.234375 -1.03125 1.671875 -1.625q0.4375 -0.59375 0.4375 -1.125q0 -0.5625 -0.40625 -0.9375q-0.390625 -0.390625 -1.03125 -0.390625q-0.671875 0 -1.0781231 0.40625q-0.40625 0.40625 -0.40625 1.125l-0.96875 -0.09375q0.09375 -1.078125 0.734375 -1.640625q0.65625 -0.5625 1.7343731 -0.5625q1.109375 0 1.75 0.609375q0.640625 0.609375 0.640625 1.5q0 0.46875 -0.1875 0.90625q-0.1875 0.4375 -0.625 0.9375q-0.4375 0.484375 -1.453125 1.328125q-0.828125 0.71875 -1.0781231 0.96875q-0.234375 0.25 -0.390625 0.5l3.734373 0z" fill-rule="nonzero"/></g><g filter="url(#shadowFilter-p.4)"><use xlink:href="#p.4" transform="matrix(1.0 0.0 0.0 1.0 0.0 2.0)"/></g><defs><filter id="shadowFilter-p.4" filterUnits="userSpaceOnUse"><feGaussianBlur in="SourceAlpha" stdDeviation="2.0" result="blur"/><feComponentTransfer in="blur" color-interpolation-filters="sRGB"><feFuncR type="linear" slope="0" intercept="0.0"/><feFuncG type="linear" slope="0" intercept="0.0"/><feFuncB type="linear" slope="0" intercept="0.0"/><feFuncA type="linear" slope="0.5" intercept="0"/></feComponentTransfer></filter></defs><g id="p.4"><path fill="#e0e0e0" d="m4.9317584 70.779526l0 0c0 -11.558838 10.731066 -20.92913 23.968504 -20.92913l0 0c13.23744 0 23.968504 9.370293 23.968504 20.92913l0 0c0 11.5588455 -10.731064 20.929138 -23.968504 20.929138l0 0c-13.237439 0 -23.968504 -9.370293 -23.968504 -20.929138z" fill-rule="evenodd"/><path stroke="#9e9e9e" stroke-width="1.0" stroke-linejoin="round" stroke-linecap="butt" d="m4.9317584 70.779526l0 0c0 -11.558838 10.731066 -20.92913 23.968504 -20.92913l0 0c13.23744 0 23.968504 9.370293 23.968504 20.92913l0 0c0 11.5588455 -10.731064 20.929138 -23.968504 20.929138l0 0c-13.237439 0 -23.968504 -9.370293 -23.968504 -20.929138z" fill-rule="evenodd"/><path fill="#37474f" d="m27.420721 75.60828q-0.78125 0.671875 -1.5 0.953125q-0.71875 0.265625 -1.546875 0.265625q-1.375 0 -2.109375 -0.671875q-0.734375 -0.671875 -0.734375 -1.703125q0 -0.609375 0.28125 -1.109375q0.28125 -0.515625 0.71875 -0.8125q0.453125 -0.3125 1.015625 -0.46875q0.421875 -0.109375 1.25 -0.203125q1.703125 -0.203125 2.515625 -0.484375q0 -0.296875 0 -0.375q0 -0.859375 -0.390625 -1.203125q-0.546875 -0.484375 -1.609375 -0.484375q-0.984375 0 -1.46875 0.359375q-0.46875 0.34375 -0.6875 1.21875l-1.375 -0.1875q0.1875 -0.875 0.609375 -1.421875q0.4375 -0.546875 1.25 -0.828125q0.8125 -0.296875 1.875 -0.296875q1.0625 0 1.71875 0.25q0.671875 0.25 0.984375 0.625q0.3125 0.375 0.4375 0.953125q0.078125 0.359375 0.078125 1.296875l0 1.875q0 1.96875 0.078125 2.484375q0.09375 0.515625 0.359375 1.0l-1.46875 0q-0.21875 -0.4375 -0.28125 -1.03125zm-0.109375 -3.140625q-0.765625 0.3125 -2.296875 0.53125q-0.875 0.125 -1.234375 0.28125q-0.359375 0.15625 -0.5625 0.46875q-0.1875 0.296875 -0.1875 0.65625q0 0.5625 0.421875 0.9375q0.4375 0.375 1.25 0.375q0.8125 0 1.4375 -0.34375q0.640625 -0.359375 0.9375 -0.984375q0.234375 -0.46875 0.234375 -1.40625l0 -0.515625z" fill-rule="nonzero"/><path fill="#37474f" d="m33.819157 82.63953l-0.9375 0l0 -5.96875q-0.34375 0.328125 -0.8906231 0.65625q-0.546875 0.3125 -0.984375 0.46875l0 -0.90625q0.796875 -0.359375 1.3749981 -0.890625q0.59375 -0.53125 0.828125 -1.015625l0.609375 0l0 7.65625z" fill-rule="nonzero"/></g></g></svg>